# Rhino

mtllib 1.mtl
usemtl diffuse_White
v -9.5897922515869141 8.1806774139404297 -3.2949855327606201
v -9.3603763580322266 8.0407142639160156 -3.2559921741485596
v -10 7.5638337135314941 -3.035435676574707
v -9.7705841064453125 7.4238710403442383 -2.9964423179626465
v -9.794896125793457 7.8722553253173828 -3.165210485458374
v -9.5654802322387695 7.732292652130127 -3.1262173652648926
v -9.238123893737793 7.0093436241149902 -5.2400631904602051
v -9.0050601959228516 6.857231616973877 -5.2212448120117188
v -9.659245491027832 6.4288525581359863 -4.9201474189758301
v -9.426182746887207 6.276740550994873 -4.9013290405273438
v -9.4486846923828125 6.7190980911254883 -5.0801053047180176
v -9.2156209945678711 6.566986083984375 -5.0612869262695313
v -9.5897922515869141 8.1806774139404297 -3.2949855327606201
v -9.4139585494995117 7.5950107574462891 -4.267524242401123
v -9.238123893737793 7.0093436241149902 -5.2400631904602051
v -9.794896125793457 7.8722553253173828 -3.165210485458374
v -9.4486846923828125 6.7190980911254883 -5.0801053047180176
v -10 7.5638337135314941 -3.035435676574707
v -9.8296232223510742 6.9963431358337402 -3.9777915477752686
v -9.659245491027832 6.4288525581359863 -4.9201474189758301
v -9.9148111343383789 7.2800884246826172 -3.5066134929656982
v -9.7444343566894531 6.7125978469848633 -4.4489693641662598
v -9.3260412216186523 7.3021769523620605 -4.7537937164306641
v -9.5018749237060547 7.8878440856933594 -3.7812550067901611
v -10 7.5638337135314941 -3.035435676574707
v -9.659245491027832 6.4288525581359863 -4.9201474189758301
v -9.7705841064453125 7.4238710403442383 -2.9964423179626465
v -9.426182746887207 6.276740550994873 -4.9013290405273438
v -9.7444343566894531 6.7125978469848633 -4.4489693641662598
v -9.8296232223510742 6.9963431358337402 -3.9777915477752686
v -9.9148111343383789 7.2800884246826172 -3.5066134929656982
v -9.684483528137207 7.1370882987976074 -3.4726641178131104
v -9.5983829498291016 6.8503055572509766 -3.9488856792449951
v -9.5122823715209961 6.5635232925415039 -4.425107479095459
v -9.7705841064453125 7.4238710403442383 -2.9964423179626465
v -9.426182746887207 6.276740550994873 -4.9013290405273438
v -9.3603763580322266 8.0407142639160156 -3.2559921741485596
v -9.0050601959228516 6.857231616973877 -5.2212448120117188
v -9.5654802322387695 7.732292652130127 -3.1262173652648926
v -9.1827182769775391 7.4489731788635254 -4.2386183738708496
v -9.2156209945678711 6.566986083984375 -5.0612869262695313
v -9.5983829498291016 6.8503055572509766 -3.9488856792449951
v -9.5122823715209961 6.5635232925415039 -4.425107479095459
v -9.684483528137207 7.1370882987976074 -3.4726641178131104
v -9.2715473175048828 7.7448439598083496 -3.7473053932189941
v -9.0938892364501953 7.1531023979187012 -4.7299318313598633
v -9.3603763580322266 8.0407142639160156 -3.2559921741485596
v -9.0050601959228516 6.857231616973877 -5.2212448120117188
v -9.5897922515869141 8.1806774139404297 -3.2949855327606201
v -9.238123893737793 7.0093436241149902 -5.2400631904602051
v -9.5018749237060547 7.8878440856933594 -3.7812550067901611
v -9.4139585494995117 7.5950107574462891 -4.267524242401123
v -9.3260412216186523 7.3021769523620605 -4.7537937164306641
v -9.0938892364501953 7.1531023979187012 -4.7299318313598633
v -9.1827182769775391 7.4489731788635254 -4.2386183738708496
v -9.2715473175048828 7.7448439598083496 -3.7473053932189941
vt 0.0999012291431427 0
vt 0 0
vt 0.0999012291431427 0.29300382733345032
vt 0 0.29300382733345032
vt 0.0999012291431427 0.14650191366672516
vt 0 0.14650191366672516
vt 0.2040264755487442 0
vt 0.1013660728931427 0
vt 0.2040264755487442 0.2931290864944458
vt 0.1013660728931427 0.2931290864944458
vt 0.2040264755487442 0.1465645432472229
vt 0.1013660728931427 0.1465645432472229
vt 0.4137418270111084 0
vt 0.4137418270111084 0.42882764339447021
vt 0.4137418270111084 0.85765528678894043
vt 0.5595739483833313 0
vt 0.5595739483833313 0.85765528678894043
vt 0.7054060697555542 0
vt 0.7054060697555542 0.42882764339447021
vt 0.7054060697555542 0.85765528678894043
vt 0.7054060697555542 0.21441382169723511
vt 0.7054060697555542 0.64324146509170532
vt 0.4137418270111084 0.64324146509170532
vt 0.4137418270111084 0.21441382169723511
vt 0.2054913192987442 0
vt 0.2054913192987442 0.83993369340896606
vt 0.3081517219543457 0
vt 0.3081517219543457 0.83993369340896606
vt 0.2054913192987442 0.62995022535324097
vt 0.2054913192987442 0.41996684670448303
vt 0.2054913192987442 0.20998342335224152
vt 0.3081517219543457 0.20998342335224152
vt 0.3081517219543457 0.41996684670448303
vt 0.3081517219543457 0.62995022535324097
vt 0.7068709135055542 0
vt 0.7068709135055542 0.86508631706237793
vt 0.99853515625 0
vt 0.99853515625 0.86508631706237793
vt 0.8527030348777771 0
vt 0.99853515625 0.43254315853118896
vt 0.8527030348777771 0.86508631706237793
vt 0.7068709135055542 0.43254315853118896
vt 0.7068709135055542 0.64881473779678345
vt 0.7068709135055542 0.21627157926559448
vt 0.99853515625 0.21627157926559448
vt 0.99853515625 0.64881473779678345
vt 0.3096165657043457 0
vt 0.3096165657043457 0.86508631706237793
vt 0.4122769832611084 0
vt 0.4122769832611084 0.86508631706237793
vt 0.4122769832611084 0.21627157926559448
vt 0.4122769832611084 0.43254315853118896
vt 0.4122769832611084 0.64881473779678345
vt 0.3096165657043457 0.64881473779678345
vt 0.3096165657043457 0.43254315853118896
vt 0.3096165657043457 0.21627157926559448
vn 0.057588625699281693 0.35441413521766663 0.93331354856491089
vn 0.057588625699281693 0.35441413521766663 0.93331354856491089
vn 0.057588625699281693 0.35441413521766663 0.93331354856491089
vn 0.057588625699281693 0.35441413521766663 0.93331354856491089
vn 0.057588625699281693 0.35441413521766663 0.93331354856491089
vn 0.057588625699281693 0.35441413521766663 0.93331354856491089
vn -0.17231175303459167 -0.37661832571029663 -0.9102017879486084
vn -0.17231175303459167 -0.37661832571029663 -0.9102017879486084
vn -0.17231175303459167 -0.37661832571029663 -0.9102017879486084
vn -0.17231175303459167 -0.37661832571029663 -0.9102017879486084
vn -0.17231175303459167 -0.37661832571029663 -0.9102017879486084
vn -0.17231175303459167 -0.37661832571029663 -0.9102017879486084
vn -0.83453541994094849 0.39212679862976074 -0.38702353835105896
vn -0.83453541994094849 0.39212679862976074 -0.38702353835105896
vn -0.83453541994094849 0.39212679862976074 -0.38702353835105896
vn -0.83453541994094849 0.39212679862976074 -0.38702353835105896
vn -0.83453541994094849 0.39212679862976074 -0.38702353835105896
vn -0.83453541994094849 0.39212679862976074 -0.38702353835105896
vn -0.83453541994094849 0.39212679862976074 -0.38702353835105896
vn -0.83453541994094849 0.39212679862976074 -0.38702353835105896
vn -0.83453541994094849 0.39212679862976074 -0.38702353835105896
vn -0.83453541994094849 0.39212679862976074 -0.38702353835105896
vn -0.83453541994094849 0.39212679862976074 -0.38702353835105896
vn -0.83453541994094849 0.39212679862976074 -0.38702353835105896
vn -0.52926725149154663 -0.76572561264038086 0.36543193459510803
vn -0.52926725149154663 -0.76572561264038086 0.36543193459510803
vn -0.52926725149154663 -0.76572561264038086 0.36543193459510803
vn -0.52926725149154663 -0.76572561264038086 0.36543193459510803
vn -0.52926725149154663 -0.76572561264038086 0.36543193459510803
vn -0.52926725149154663 -0.76572561264038086 0.36543193459510803
vn -0.52926725149154663 -0.76572561264038086 0.36543193459510803
vn -0.52926725149154663 -0.76572561264038086 0.36543193459510803
vn -0.52926725149154663 -0.76572561264038086 0.36543193459510803
vn -0.52926725149154663 -0.76572561264038086 0.36543193459510803
vn 0.83453541994094849 -0.39212679862976074 0.38702353835105896
vn 0.83453541994094849 -0.39212679862976074 0.38702353835105896
vn 0.83453541994094849 -0.39212679862976074 0.38702353835105896
vn 0.83453541994094849 -0.39212679862976074 0.38702353835105896
vn 0.83453541994094849 -0.39212679862976074 0.38702353835105896
vn 0.83453541994094849 -0.39212679862976074 0.38702353835105896
vn 0.83453541994094849 -0.39212679862976074 0.38702353835105896
vn 0.83453541994094849 -0.39212679862976074 0.38702353835105896
vn 0.83453541994094849 -0.39212679862976074 0.38702353835105896
vn 0.83453541994094849 -0.39212679862976074 0.38702353835105896
vn 0.83453541994094849 -0.39212679862976074 0.38702353835105896
vn 0.83453541994094849 -0.39212679862976074 0.38702353835105896
vn 0.52926725149154663 0.76572561264038086 -0.36543193459510803
vn 0.52926725149154663 0.76572561264038086 -0.36543193459510803
vn 0.52926725149154663 0.76572561264038086 -0.36543193459510803
vn 0.52926725149154663 0.76572561264038086 -0.36543193459510803
vn 0.52926725149154663 0.76572561264038086 -0.36543193459510803
vn 0.52926725149154663 0.76572561264038086 -0.36543193459510803
vn 0.52926725149154663 0.76572561264038086 -0.36543193459510803
vn 0.52926725149154663 0.76572561264038086 -0.36543193459510803
vn 0.52926725149154663 0.76572561264038086 -0.36543193459510803
vn 0.52926725149154663 0.76572561264038086 -0.36543193459510803
f 6/6/6 2/2/2 1/1/1 5/5/5 3/3/3 4/4/4
f 8/8/8 12/12/12 10/10/10 9/9/9 11/11/11 7/7/7
f 16/16/16 13/13/13 24/24/24 14/14/14 23/23/23 15/15/15 17/17/17 20/20/20 22/22/22 19/19/19 21/21/21 18/18/18
f 32/32/32 27/27/27 25/25/25 31/31/31 30/30/30 29/29/29 26/26/26 28/28/28 34/34/34 33/33/33
f 39/39/39 35/35/35 44/44/44 42/42/42 43/43/43 36/36/36 41/41/41 38/38/38 46/46/46 40/40/40 45/45/45 37/37/37
f 51/51/51 49/49/49 47/47/47 56/56/56 55/55/55 54/54/54 48/48/48 50/50/50 53/53/53 52/52/52
