# Rhino

mtllib 16.mtl
usemtl diffuse_White
v 8.1347627639770508 7.2234869003295898 -3.2018423080444336
v 8.0904722213745117 7.0793576240539551 -3.4375953674316406
v 8.5589408874511719 6.6314287185668945 -2.9100213050842285
v 8.5146503448486328 6.4872994422912598 -3.1457743644714355
v 8.3468513488769531 6.9274578094482422 -3.0559318065643311
v 8.3025617599487305 6.7833285331726074 -3.2916848659515381
v 9.3914365768432617 8.0215225219726563 -3.2941460609436035
v 9.3491582870483398 7.8786706924438477 -3.5300469398498535
v 9.807621955871582 7.4243884086608887 -3.0017378330230713
v 9.7653436660766602 7.2815361022949219 -3.2376387119293213
v 9.5301656723022461 7.8224782943725586 -3.1966767311096191
v 9.6688938140869141 7.6234331130981445 -3.0992074012756348
v 9.6266155242919922 7.4805812835693359 -3.3351080417633057
v 9.4878864288330078 7.6796259880065918 -3.4325776100158691
v 8.1347627639770508 7.2234869003295898 -3.2018423080444336
v 9.3914365768432617 8.0215225219726563 -3.2941460609436035
v 8.5589408874511719 6.6314287185668945 -2.9100213050842285
v 9.807621955871582 7.4243884086608887 -3.0017378330230713
v 8.3468513488769531 6.9274578094482422 -3.0559318065643311
v 9.6688938140869141 7.6234331130981445 -3.0992074012756348
v 9.5301656723022461 7.8224782943725586 -3.1966767311096191
v 8.9751682281494141 6.8957486152648926 -2.9405934810638428
v 9.3913946151733398 7.1600685119628906 -2.971165657043457
v 8.9725456237792969 7.7555108070373535 -3.2633781433105469
v 8.5536537170410156 7.4894990921020508 -3.2326102256774902
v 8.5589408874511719 6.6314287185668945 -2.9100213050842285
v 9.807621955871582 7.4243884086608887 -3.0017378330230713
v 8.5146503448486328 6.4872994422912598 -3.1457743644714355
v 9.7653436660766602 7.2815361022949219 -3.2376387119293213
v 9.3913946151733398 7.1600685119628906 -2.971165657043457
v 8.9751682281494141 6.8957486152648926 -2.9405934810638428
v 8.9315481185913086 6.7520451545715332 -3.1763956546783447
v 9.3484458923339844 7.0167908668518066 -3.207017183303833
v 8.5146503448486328 6.4872994422912598 -3.1457743644714355
v 9.7653436660766602 7.2815361022949219 -3.2376387119293213
v 8.3025617599487305 6.7833285331726074 -3.2916848659515381
v 8.0904722213745117 7.0793576240539551 -3.4375953674316406
v 9.3491582870483398 7.8786706924438477 -3.5300469398498535
v 9.4878864288330078 7.6796259880065918 -3.4325776100158691
v 9.6266155242919922 7.4805812835693359 -3.3351080417633057
v 9.3484458923339844 7.0167908668518066 -3.207017183303833
v 8.9315481185913086 6.7520451545715332 -3.1763956546783447
v 8.5100345611572266 7.3457951545715332 -3.4684126377105713
v 8.929595947265625 7.6122331619262695 -3.4992296695709229
v 8.0904722213745117 7.0793576240539551 -3.4375953674316406
v 9.3491582870483398 7.8786706924438477 -3.5300469398498535
v 8.1347627639770508 7.2234869003295898 -3.2018423080444336
v 9.3914365768432617 8.0215225219726563 -3.2941460609436035
v 8.5536537170410156 7.4894990921020508 -3.2326102256774902
v 8.9725456237792969 7.7555108070373535 -3.2633781433105469
v 8.929595947265625 7.6122331619262695 -3.4992296695709229
v 8.5100345611572266 7.3457951545715332 -3.4684126377105713
vt 0.2630043625831604 0.13110607862472534
vt 0.2630043625831604 0.26114341616630554
vt 0.63170021772384644 0.13110607862472534
vt 0.63170021772384644 0.26114341616630554
vt 0.44735229015350342 0.13110607862472534
vt 0.44735229015350342 0.26114341616630554
vt 0.2630043625831604 0
vt 0.2630043625831604 0.12964123487472534
vt 0.6315990686416626 0
vt 0.6315990686416626 0.12964123487472534
vt 0.38586926460266113 0
vt 0.50873416662216187 0
vt 0.50873416662216187 0.12964123487472534
vt 0.38586926460266113 0.12964123487472534
vt 0.96353405714035034 0.26260825991630554
vt 0.2630043625831604 0.26260825991630554
vt 0.96353405714035034 0.62983930110931396
vt 0.2630043625831604 0.62983930110931396
vt 0.96353405714035034 0.44622376561164856
vt 0.2630043625831604 0.50742894411087036
vt 0.2630043625831604 0.38501861691474915
vt 0.73002415895462036 0.62983930110931396
vt 0.49651426076889038 0.62983930110931396
vt 0.49651426076889038 0.26260825991630554
vt 0.73002415895462036 0.26260825991630554
vt 0 0
vt 0 0.6975364089012146
vt 0.1300373375415802 0
vt 0.1300373375415802 0.6975364089012146
vt 0 0.46502429246902466
vt 0 0.23251214623451233
vt 0.1300373375415802 0.23251214623451233
vt 0.1300373375415802 0.46502429246902466
vt 0.96353405714035034 0.63130414485931396
vt 0.2630043625831604 0.63130414485931396
vt 0.96353405714035034 0.81491965055465698
vt 0.96353405714035034 0.99853515625
vt 0.2630043625831604 0.99853515625
vt 0.2630043625831604 0.8761247992515564
vt 0.2630043625831604 0.75371450185775757
vt 0.49651426076889038 0.63130414485931396
vt 0.73002415895462036 0.63130414485931396
vt 0.73002415895462036 0.99853515625
vt 0.49651426076889038 0.99853515625
vt 0.1315021812915802 0
vt 0.1315021812915802 0.70199453830718994
vt 0.2615395188331604 0
vt 0.2615395188331604 0.70199453830718994
vt 0.2615395188331604 0.23399819433689117
vt 0.2615395188331604 0.46799638867378235
vt 0.1315021812915802 0.46799638867378235
vt 0.1315021812915802 0.23399819433689117
vn -0.82728654146194458 -0.39659446477890015 0.39788162708282471
vn -0.82728654146194458 -0.39659446477890015 0.39788162708282471
vn -0.82728654146194458 -0.39659446477890015 0.39788162708282471
vn -0.82728654146194458 -0.39659446477890015 0.39788162708282471
vn -0.82728654146194458 -0.39659446477890015 0.39788162708282471
vn -0.82728654146194458 -0.39659446477890015 0.39788162708282471
vn 0.83453541994094849 0.39212676882743835 -0.38702353835105896
vn 0.83453541994094849 0.39212676882743835 -0.38702353835105896
vn 0.83453541994094849 0.39212676882743835 -0.38702353835105896
vn 0.83453541994094849 0.39212676882743835 -0.38702353835105896
vn 0.83453541994094849 0.39212676882743835 -0.38702353835105896
vn 0.83453541994094849 0.39212676882743835 -0.38702353835105896
vn 0.83453541994094849 0.39212676882743835 -0.38702353835105896
vn 0.83453541994094849 0.39212676882743835 -0.38702353835105896
vn -0.15236584842205048 0.34696915745735168 0.92541724443435669
vn -0.15236584842205048 0.34696915745735168 0.92541724443435669
vn -0.15236584842205048 0.34696915745735168 0.92541724443435669
vn -0.15236584842205048 0.34696915745735168 0.92541724443435669
vn -0.15236584842205048 0.34696915745735168 0.92541724443435669
vn -0.15236584842205048 0.34696915745735168 0.92541724443435669
vn -0.15236584842205048 0.34696915745735168 0.92541724443435669
vn -0.15236584842205048 0.34696915745735168 0.92541724443435669
vn -0.15236584842205048 0.34696915745735168 0.92541724443435669
vn -0.15236584842205048 0.34696915745735168 0.92541724443435669
vn -0.15236584842205048 0.34696915745735168 0.92541724443435669
vn 0.51661801338195801 -0.77028095722198486 0.37386238574981689
vn 0.51661801338195801 -0.77028095722198486 0.37386238574981689
vn 0.51661801338195801 -0.77028095722198486 0.37386238574981689
vn 0.51661801338195801 -0.77028095722198486 0.37386238574981689
vn 0.51661801338195801 -0.77028095722198486 0.37386238574981689
vn 0.51661801338195801 -0.77028095722198486 0.37386238574981689
vn 0.51661801338195801 -0.77028095722198486 0.37386238574981689
vn 0.51661801338195801 -0.77028095722198486 0.37386238574981689
vn 0.15236584842205048 -0.34696915745735168 -0.92541724443435669
vn 0.15236584842205048 -0.34696915745735168 -0.92541724443435669
vn 0.15236584842205048 -0.34696915745735168 -0.92541724443435669
vn 0.15236584842205048 -0.34696915745735168 -0.92541724443435669
vn 0.15236584842205048 -0.34696915745735168 -0.92541724443435669
vn 0.15236584842205048 -0.34696915745735168 -0.92541724443435669
vn 0.15236584842205048 -0.34696915745735168 -0.92541724443435669
vn 0.15236584842205048 -0.34696915745735168 -0.92541724443435669
vn 0.15236584842205048 -0.34696915745735168 -0.92541724443435669
vn 0.15236584842205048 -0.34696915745735168 -0.92541724443435669
vn 0.15236584842205048 -0.34696915745735168 -0.92541724443435669
vn -0.51661801338195801 0.77028095722198486 -0.37386238574981689
vn -0.51661801338195801 0.77028095722198486 -0.37386238574981689
vn -0.51661801338195801 0.77028095722198486 -0.37386238574981689
vn -0.51661801338195801 0.77028095722198486 -0.37386238574981689
vn -0.51661801338195801 0.77028095722198486 -0.37386238574981689
vn -0.51661801338195801 0.77028095722198486 -0.37386238574981689
vn -0.51661801338195801 0.77028095722198486 -0.37386238574981689
vn -0.51661801338195801 0.77028095722198486 -0.37386238574981689
f 5/5/5 1/1/1 2/2/2 6/6/6 4/4/4 3/3/3
f 7/7/7 11/11/11 12/12/12 9/9/9 10/10/10 13/13/13 14/14/14 8/8/8
f 24/24/24 25/25/25 15/15/15 19/19/19 17/17/17 22/22/22 23/23/23 18/18/18 20/20/20 21/21/21 16/16/16
f 31/31/31 26/26/26 28/28/28 32/32/32 33/33/33 29/29/29 27/27/27 30/30/30
f 39/39/39 40/40/40 35/35/35 41/41/41 42/42/42 34/34/34 36/36/36 37/37/37 43/43/43 44/44/44 38/38/38
f 52/52/52 45/45/45 47/47/47 49/49/49 50/50/50 48/48/48 46/46/46 51/51/51
