# Rhino

mtllib 20.mtl
usemtl diffuse_White
v -2.4681007862091064 3.0578162670135498 6.389183521270752
v -2.6217226982116699 3.1711127758026123 6.2033352851867676
v -2.6990647315979004 2.337155818939209 6.1651210784912109
v -2.8526866436004639 2.4504523277282715 5.9792728424072266
v -2.5835826396942139 2.6974861621856689 6.2771525382995605
v -2.7372045516967773 2.8107824325561523 6.0913043022155762
v 0.12566372752189636 3.6062414646148682 3.4969363212585449
v -0.034172497689723969 3.7182238101959229 3.3180174827575684
v -0.027469567954540253 2.9020373821258545 3.1860866546630859
v -0.18730579316616058 3.0140199661254883 3.0071680545806885
v 0.074619293212890625 3.3715066909790039 3.393319845199585
v 0.023574862629175186 3.1367721557617188 3.289703369140625
v -0.13626135885715485 3.2487545013427734 3.1107845306396484
v -0.085216924548149109 3.4834892749786377 3.2144010066986084
v -2.4681007862091064 3.0578162670135498 6.389183521270752
v 0.12566372752189636 3.6062414646148682 3.4969363212585449
v -1.2672427892684937 2.9758126735687256 4.8093318939208984
v -2.6990647315979004 2.337155818939209 6.1651210784912109
v -0.027469567954540253 2.9020373821258545 3.1860866546630859
v -2.5835826396942139 2.6974861621856689 6.2771525382995605
v -1.9254127740859985 2.8366494178771973 5.5432424545288086
v -1.2192306518554688 3.1539208889007568 4.8761959075927734
v -1.8725361824035645 3.0157859325408936 5.6046819686889648
v -1.3152549266815186 2.7977046966552734 4.7424678802490234
v -1.9782893657684326 2.657512903213501 5.4818024635314941
v 0.023574862629175186 3.1367721557617188 3.289703369140625
v 0.074619293212890625 3.3715066909790039 3.393319845199585
v -0.60907286405563354 3.114976167678833 4.0754218101501465
v -0.65222060680389404 2.9378964900970459 4.0031337738037109
v -0.56592512130737305 3.292055606842041 4.147709846496582
v -2.164745569229126 2.4501321315765381 5.5693144798278809
v -1.6304266452789307 2.5631084442138672 4.9735074043273926
v -1.0961076021194458 2.6760847568511963 4.3777008056640625
v -0.56178861856460571 2.7890610694885254 3.7818937301635742
v -0.24487406015396118 3.5278949737548828 3.9101145267486572
v -0.61541181802749634 3.4495484828948975 4.3232927322387695
v -0.98594963550567627 3.3712019920349121 4.7364706993103027
v -1.3564873933792114 3.2928555011749268 5.1496491432189941
v -1.7270251512527466 3.2145092487335205 5.5628271102905273
v -2.0975630283355713 3.1361627578735352 5.9760055541992188
v -2.6990647315979004 2.337155818939209 6.1651210784912109
v -0.027469567954540253 2.9020373821258545 3.1860866546630859
v -2.8526866436004639 2.4504523277282715 5.9792728424072266
v -0.18730579316616058 3.0140199661254883 3.0071680545806885
v -0.56178861856460571 2.7890610694885254 3.7818937301635742
v -1.0961076021194458 2.6760847568511963 4.3777008056640625
v -1.6304266452789307 2.5631084442138672 4.9735074043273926
v -2.164745569229126 2.4501321315765381 5.5693144798278809
v -2.1863415241241455 2.5913441181182861 5.2362465858459473
v -1.519996166229248 2.7322361469268799 4.493220329284668
v -0.85365098714828491 2.8731279373168945 3.7501943111419678
v -2.8526866436004639 2.4504523277282715 5.9792728424072266
v -1.519996166229248 2.7322361469268799 4.493220329284668
v -0.18730579316616058 3.0140199661254883 3.0071680545806885
v -1.4239718914031982 3.0884521007537842 4.626948356628418
v -2.6217226982116699 3.1711127758026123 6.2033352851867676
v -0.034172497689723969 3.7182238101959229 3.3180174827575684
v -2.7372045516967773 2.8107824325561523 6.0913043022155762
v -2.0805883407592773 2.9496173858642578 5.3591265678405762
v -1.4719840288162231 2.910344123840332 4.560084342956543
v -2.1863415241241455 2.5913441181182861 5.2362465858459473
v -2.1334648132324219 2.7704808712005615 5.2976865768432617
v -1.3759597539901733 3.2665603160858154 4.693812370300293
v -2.0277116298675537 3.1287539005279541 5.4205660820007324
v -0.085216924548149109 3.4834892749786377 3.2144010066986084
v -0.13626135885715485 3.2487545013427734 3.1107845306396484
v -0.76735550165176392 3.2272870540618896 3.894770622253418
v -0.72420775890350342 3.4043664932250977 3.9670588970184326
v -0.85365098714828491 2.8731279373168945 3.7501943111419678
v -0.81050324440002441 3.0502076148986816 3.8224823474884033
v -2.2520725727081299 3.2492713928222656 5.7911472320556641
v -1.8824226856231689 3.327430248260498 5.3789587020874023
v -1.5127725601196289 3.4055888652801514 4.9667706489562988
v -1.1431225538253784 3.4837477207183838 4.5545821189880371
v -0.77347254753112793 3.5619063377380371 4.1423940658569336
v -0.40382251143455505 3.6400651931762695 3.730205774307251
v -2.6217226982116699 3.1711127758026123 6.2033352851867676
v -0.034172497689723969 3.7182238101959229 3.3180174827575684
v -2.4681007862091064 3.0578162670135498 6.389183521270752
v 0.12566372752189636 3.6062414646148682 3.4969363212585449
v -2.0975630283355713 3.1361627578735352 5.9760055541992188
v -1.7270251512527466 3.2145092487335205 5.5628271102905273
v -1.3564873933792114 3.2928555011749268 5.1496491432189941
v -0.98594963550567627 3.3712019920349121 4.7364706993103027
v -0.61541181802749634 3.4495484828948975 4.3232927322387695
v -0.24487406015396118 3.5278949737548828 3.9101145267486572
v -0.40382251143455505 3.6400651931762695 3.730205774307251
v -0.77347254753112793 3.5619063377380371 4.1423940658569336
v -1.1431225538253784 3.4837477207183838 4.5545821189880371
v -1.5127725601196289 3.4055888652801514 4.9667706489562988
v -1.8824226856231689 3.327430248260498 5.3789587020874023
v -2.2520725727081299 3.2492713928222656 5.7911472320556641
v -2.026780366897583 3.2240180969238281 5.7185029983520508
v -0.99051731824874878 3.4431254863739014 4.5629901885986328
v -0.47238585352897644 3.5526790618896484 3.9852335453033447
vt 0.11648954451084137 0.11088124662637711
vt 0.11648954451084137 0.16912601888179779
vt 0.28903847932815552 0.11088124662637711
vt 0.28903847932815552 0.16912601888179779
vt 0.20276400446891785 0.11088124662637711
vt 0.20276400446891785 0.16912601888179779
vt 0.11648954451084137 0
vt 0.11648954451084137 0.057884339243173599
vt 0.28807744383811951 0
vt 0.28807744383811951 0.057884339243173599
vt 0.17368550598621368 0
vt 0.23088148236274719 0
vt 0.23088148236274719 0.057884339243173599
vt 0.17368550598621368 0.057884339243173599
vt 0.99853515625 0.5529816746711731
vt 0.11648954451084137 0.5529816746711731
vt 0.55751234292984009 0.63925617933273315
vt 0.99853515625 0.72553062438964844
vt 0.11648954451084137 0.72553062438964844
vt 0.99853515625 0.63925617933273315
vt 0.77802377939224243 0.63925617933273315
vt 0.55751234292984009 0.59611892700195313
vt 0.77802377939224243 0.59611892700195313
vt 0.55751234292984009 0.68239337205886841
vt 0.77802377939224243 0.68239337205886841
vt 0.11648954451084137 0.6680142879486084
vt 0.11648954451084137 0.61049801111221313
vt 0.33700093626976013 0.63925617933273315
vt 0.33700093626976013 0.68239337205886841
vt 0.33700093626976013 0.59611892700195313
vt 0.82212603092193604 0.72553062438964844
vt 0.64571690559387207 0.72553062438964844
vt 0.46930778026580811 0.72553062438964844
vt 0.29289865493774414 0.72553062438964844
vt 0.242496058344841 0.5529816746711731
vt 0.36850255727767944 0.5529816746711731
vt 0.49450907111167908 0.5529816746711731
vt 0.62051558494567871 0.5529816746711731
vt 0.74652212858200073 0.5529816746711731
vt 0.87252861261367798 0.5529816746711731
vt 0.058244772255420685 0
vt 0.058244772255420685 0.88204562664031982
vt 0.11502470076084137 0
vt 0.11502470076084137 0.88204562664031982
vt 0.058244772255420685 0.70563650131225586
vt 0.058244772255420685 0.52922737598419189
vt 0.058244772255420685 0.35281825065612793
vt 0.058244772255420685 0.17640912532806396
vt 0.11502470076084137 0.22051140666007996
vt 0.11502470076084137 0.44102281332015991
vt 0.11502470076084137 0.66153419017791748
vt 0.99794489145278931 0.22245292365550995
vt 0.55721724033355713 0.22245292365550995
vt 0.11648954451084137 0.22245292365550995
vt 0.55721724033355713 0.30872738361358643
vt 0.99794489145278931 0.3950018584728241
vt 0.11648954451084137 0.3950018584728241
vt 0.99794489145278931 0.30872738361358643
vt 0.77758103609085083 0.30872738361358643
vt 0.55721724033355713 0.26559016108512878
vt 0.77758103609085083 0.22245292365550995
vt 0.77758103609085083 0.26559016108512878
vt 0.55721724033355713 0.35186460614204407
vt 0.77758103609085083 0.35186460614204407
vt 0.11648954451084137 0.33748555183410645
vt 0.11648954451084137 0.27996924519538879
vt 0.33685338497161865 0.30872738361358643
vt 0.33685338497161865 0.35186460614204407
vt 0.33685338497161865 0.22245292365550995
vt 0.33685338497161865 0.26559016108512878
vt 0.87202268838882446 0.3950018584728241
vt 0.74610048532485962 0.3950018584728241
vt 0.62017834186553955 0.3950018584728241
vt 0.49425610899925232 0.3950018584728241
vt 0.36833390593528748 0.3950018584728241
vt 0.24241173267364502 0.3950018584728241
vt 0 0
vt 0 0.85777145624160767
vt 0.056779928505420685 0
vt 0.056779928505420685 0.85777145624160767
vt 0.056779928505420685 0.12253878265619278
vt 0.056779928505420685 0.24507756531238556
vt 0.056779928505420685 0.36761635541915894
vt 0.056779928505420685 0.49015513062477112
vt 0.056779928505420685 0.6126939058303833
vt 0.056779928505420685 0.73523271083831787
vt 0 0.73523271083831787
vt 0 0.6126939058303833
vt 0 0.49015513062477112
vt 0 0.36761635541915894
vt 0 0.24507756531238556
vt 0 0.12253878265619278
vt 0.028389964252710342 0.17155429720878601
vt 0.028389964252710342 0.51466292142868042
vt 0.028389964252710342 0.68621718883514404
vn -0.75788825750350952 0.0404508076608181 0.65112912654876709
vn -0.75788825750350952 0.0404508076608181 0.65112912654876709
vn -0.75788825750350952 0.0404508076608181 0.65112912654876709
vn -0.75788825750350952 0.0404508076608181 0.65112912654876709
vn -0.75788825750350952 0.0404508076608181 0.65112912654876709
vn -0.75788825750350952 0.0404508076608181 0.65112912654876709
vn 0.77386641502380371 0.10725311934947968 -0.62420153617858887
vn 0.77386641502380371 0.10725311934947968 -0.62420153617858887
vn 0.77386641502380371 0.10725311934947968 -0.62420153617858887
vn 0.77386641502380371 0.10725311934947968 -0.62420153617858887
vn 0.77386641502380371 0.10725311934947968 -0.62420153617858887
vn 0.77386641502380371 0.10725311934947968 -0.62420153617858887
vn 0.77386641502380371 0.10725311934947968 -0.62420153617858887
vn 0.77386641502380371 0.10725311934947968 -0.62420153617858887
vn 0.71729582548141479 -0.40595343708992004 0.56629365682601929
vn 0.71729582548141479 -0.40595343708992004 0.56629365682601929
vn 0.71729582548141479 -0.40595343708992004 0.56629365682601929
vn 0.71729582548141479 -0.40595343708992004 0.56629365682601929
vn 0.71729582548141479 -0.40595343708992004 0.56629365682601929
vn 0.71729582548141479 -0.40595343708992004 0.56629365682601929
vn 0.71729582548141479 -0.40595343708992004 0.56629365682601929
vn 0.71729582548141479 -0.40595343708992004 0.56629365682601929
vn 0.71729582548141479 -0.40595343708992004 0.56629365682601929
vn 0.71729582548141479 -0.40595343708992004 0.56629365682601929
vn 0.71729582548141479 -0.40595343708992004 0.56629365682601929
vn 0.71729582548141479 -0.40595343708992004 0.56629365682601929
vn 0.71729582548141479 -0.40595343708992004 0.56629365682601929
vn 0.71729582548141479 -0.40595343708992004 0.56629365682601929
vn 0.71729582548141479 -0.40595343708992004 0.56629365682601929
vn 0.71729582548141479 -0.40595343708992004 0.56629365682601929
vn 0.71729582548141479 -0.40595343708992004 0.56629365682601929
vn 0.71729582548141479 -0.40595343708992004 0.56629365682601929
vn 0.71729582548141479 -0.40595343708992004 0.56629365682601929
vn 0.71729582548141479 -0.40595343708992004 0.56629365682601929
vn 0.71729582548141479 -0.40595343708992004 0.56629365682601929
vn 0.71729582548141479 -0.40595343708992004 0.56629365682601929
vn 0.71729582548141479 -0.40595343708992004 0.56629365682601929
vn 0.71729582548141479 -0.40595343708992004 0.56629365682601929
vn 0.71729582548141479 -0.40595343708992004 0.56629365682601929
vn 0.71729582548141479 -0.40595343708992004 0.56629365682601929
vn -0.22009904682636261 -0.9031406044960022 -0.36863723397254944
vn -0.22009904682636261 -0.9031406044960022 -0.36863723397254944
vn -0.22009904682636261 -0.9031406044960022 -0.36863723397254944
vn -0.22009904682636261 -0.9031406044960022 -0.36863723397254944
vn -0.22009904682636261 -0.9031406044960022 -0.36863723397254944
vn -0.22009904682636261 -0.9031406044960022 -0.36863723397254944
vn -0.22009904682636261 -0.9031406044960022 -0.36863723397254944
vn -0.22009904682636261 -0.9031406044960022 -0.36863723397254944
vn -0.22009904682636261 -0.9031406044960022 -0.36863723397254944
vn -0.22009904682636261 -0.9031406044960022 -0.36863723397254944
vn -0.22009904682636261 -0.9031406044960022 -0.36863723397254944
vn -0.71729582548141479 0.40595343708992004 -0.56629365682601929
vn -0.71729582548141479 0.40595343708992004 -0.56629365682601929
vn -0.71729582548141479 0.40595343708992004 -0.56629365682601929
vn -0.71729582548141479 0.40595343708992004 -0.56629365682601929
vn -0.71729582548141479 0.40595343708992004 -0.56629365682601929
vn -0.71729582548141479 0.40595343708992004 -0.56629365682601929
vn -0.71729582548141479 0.40595343708992004 -0.56629365682601929
vn -0.71729582548141479 0.40595343708992004 -0.56629365682601929
vn -0.71729582548141479 0.40595343708992004 -0.56629365682601929
vn -0.71729582548141479 0.40595343708992004 -0.56629365682601929
vn -0.71729582548141479 0.40595343708992004 -0.56629365682601929
vn -0.71729582548141479 0.40595343708992004 -0.56629365682601929
vn -0.71729582548141479 0.40595343708992004 -0.56629365682601929
vn -0.71729582548141479 0.40595343708992004 -0.56629365682601929
vn -0.71729582548141479 0.40595343708992004 -0.56629365682601929
vn -0.71729582548141479 0.40595343708992004 -0.56629365682601929
vn -0.71729582548141479 0.40595343708992004 -0.56629365682601929
vn -0.71729582548141479 0.40595343708992004 -0.56629365682601929
vn -0.71729582548141479 0.40595343708992004 -0.56629365682601929
vn -0.71729582548141479 0.40595343708992004 -0.56629365682601929
vn -0.71729582548141479 0.40595343708992004 -0.56629365682601929
vn -0.71729582548141479 0.40595343708992004 -0.56629365682601929
vn -0.71729582548141479 0.40595343708992004 -0.56629365682601929
vn -0.71729582548141479 0.40595343708992004 -0.56629365682601929
vn -0.71729582548141479 0.40595343708992004 -0.56629365682601929
vn 0.22009904682636261 0.9031406044960022 0.36863723397254944
vn 0.22009904682636261 0.9031406044960022 0.36863723397254944
vn 0.22009904682636261 0.9031406044960022 0.36863723397254944
vn 0.22009904682636261 0.9031406044960022 0.36863723397254944
vn 0.22009904682636261 0.9031406044960022 0.36863723397254944
vn 0.22009904682636261 0.9031406044960022 0.36863723397254944
vn 0.22009904682636261 0.9031406044960022 0.36863723397254944
vn 0.22009904682636261 0.9031406044960022 0.36863723397254944
vn 0.22009904682636261 0.9031406044960022 0.36863723397254944
vn 0.22009904682636261 0.9031406044960022 0.36863723397254944
vn 0.22009904682636261 0.9031406044960022 0.36863723397254944
vn 0.22009904682636261 0.9031406044960022 0.36863723397254944
vn 0.22009904682636261 0.9031406044960022 0.36863723397254944
vn 0.22009904682636261 0.9031406044960022 0.36863723397254944
vn 0.22009904682636261 0.9031406044960022 0.36863723397254944
vn 0.22009904682636261 0.9031406044960022 0.36863723397254944
vn 0.22009904682636261 0.9031406044960022 0.36863723397254944
vn 0.22009904682636261 0.9031406044960022 0.36863723397254944
vn 0.22009904682636261 0.9031406044960022 0.36863723397254944
f 1/1/1 2/2/2 6/6/6 4/4/4 3/3/3 5/5/5
f 7/7/7 11/11/11 12/12/12 9/9/9 10/10/10 13/13/13 14/14/14 8/8/8
f 38/38/38 39/39/39 40/40/40 15/15/15 20/20/20 18/18/18 31/31/31 32/32/32 33/33/33 34/34/34 19/19/19 26/26/26 27/27/27 16/16/16 35/35/35 36/36/36 37/37/37
f 48/48/48 41/41/41 43/43/43 49/49/49 50/50/50 51/51/51 44/44/44 42/42/42 45/45/45 46/46/46 47/47/47
f 53/53/53 61/61/61 52/52/52 58/58/58 56/56/56 71/71/71 72/72/72 73/73/73 74/74/74 75/75/75 76/76/76 57/57/57 65/65/65 66/66/66 54/54/54 69/69/69
f 92/92/92 77/77/77 79/79/79 81/81/81 82/82/82 83/83/83 84/84/84 85/85/85 86/86/86 80/80/80 78/78/78 87/87/87 88/88/88 89/89/89 90/90/90 91/91/91
