# Rhino

mtllib 32.mtl
usemtl diffuse_White
v -7.2744479179382324 8.0009279251098633 0.79816329479217529
v -7.0764479637145996 7.8858451843261719 0.92432588338851929
v -7.7377805709838867 7.3915863037109375 0.96914851665496826
v -7.5397806167602539 7.2765040397644043 1.0953110456466675
v -7.5061140060424805 7.6962566375732422 0.88365590572357178
v -7.3081140518188477 7.581174373626709 1.009818434715271
v -6.8000807762145996 7.1712284088134766 -0.76685929298400879
v -6.5906381607055664 7.0361323356628418 -0.67844808101654053
v -7.2744541168212891 6.5811982154846191 -0.5594489574432373
v -7.0650115013122559 6.4461021423339844 -0.47103771567344666
v -7.0372672080993652 6.876213550567627 -0.66315412521362305
v -6.827824592590332 6.741117000579834 -0.57474291324615479
v -7.2744479179382324 8.0009279251098633 0.79816329479217529
v -6.8000807762145996 7.1712284088134766 -0.76685929298400879
v -7.7377805709838867 7.3915863037109375 0.96914851665496826
v -7.2744541168212891 6.5811982154846191 -0.5594489574432373
v -7.5061140060424805 7.6962566375732422 0.88365590572357178
v -7.0372672080993652 6.876213550567627 -0.66315412521362305
v -7.6219487190246582 7.1889891624450684 0.58699911832809448
v -7.5061173439025879 6.9863920211791992 0.20484977960586548
v -7.3902854919433594 6.7837953567504883 -0.17729957401752472
v -6.9186725616455078 7.3786535263061523 -0.37560364603996277
v -7.037264347076416 7.5860781669616699 0.015652010217308998
v -7.1558561325073242 7.7935028076171875 0.40690764784812927
v -7.7377805709838867 7.3915863037109375 0.96914851665496826
v -7.2744541168212891 6.5811982154846191 -0.5594489574432373
v -7.5397806167602539 7.2765040397644043 1.0953110456466675
v -7.0650115013122559 6.4461021423339844 -0.47103771567344666
v -7.3902854919433594 6.7837953567504883 -0.17729957401752472
v -7.5061173439025879 6.9863920211791992 0.20484977960586548
v -7.6219487190246582 7.1889891624450684 0.58699911832809448
v -7.4210882186889648 7.0689034461975098 0.70372390747070313
v -7.3023958206176758 6.8613028526306152 0.31213667988777161
v -7.1837034225463867 6.6537022590637207 -0.079450517892837524
v -7.5397806167602539 7.2765040397644043 1.0953110456466675
v -7.3023958206176758 6.8613028526306152 0.31213667988777161
v -7.0650115013122559 6.4461021423339844 -0.47103771567344666
v -7.0764479637145996 7.8858451843261719 0.92432588338851929
v -6.5906381607055664 7.0361323356628418 -0.67844808101654053
v -7.3081140518188477 7.581174373626709 1.009818434715271
v -6.827824592590332 6.741117000579834 -0.57474291324615479
v -7.1837034225463867 6.6537022590637207 -0.079450517892837524
v -7.4210882186889648 7.0689034461975098 0.70372390747070313
v -6.9792861938476563 7.7159028053283691 0.60377109050750732
v -6.8821239471435547 7.5459599494934082 0.28321629762649536
v -6.7849621772766113 7.3760175704956055 -0.037338484078645706
v -6.6877999305725098 7.2060747146606445 -0.35789328813552856
v -7.0764479637145996 7.8858451843261719 0.92432588338851929
v -6.5906381607055664 7.0361323356628418 -0.67844808101654053
v -7.2744479179382324 8.0009279251098633 0.79816329479217529
v -6.8000807762145996 7.1712284088134766 -0.76685929298400879
v -7.1558561325073242 7.7935028076171875 0.40690764784812927
v -7.037264347076416 7.5860781669616699 0.015652010217308998
v -6.9186725616455078 7.3786535263061523 -0.37560364603996277
v -6.6877999305725098 7.2060747146606445 -0.35789328813552856
v -6.7849621772766113 7.3760175704956055 -0.037338484078645706
v -6.8821239471435547 7.5459599494934082 0.28321629762649536
v -6.9792861938476563 7.7159028053283691 0.60377109050750732
vt 0 0
vt 0 0.10730189830064774
vt 0.32628044486045837 0
vt 0.32628044486045837 0.10730189830064774
vt 0.16314022243022919 0
vt 0.16314022243022919 0.10730189830064774
vt 0 0.10876674205064774
vt 0 0.21730954945087433
vt 0.32653892040252686 0.10876674205064774
vt 0.32653892040252686 0.21730954945087433
vt 0.16326946020126343 0.10876674205064774
vt 0.16326946020126343 0.21730954945087433
vt 0 0.21877439320087433
vt 0 0.98159921169281006
vt 0.32507407665252686 0.21877439320087433
vt 0.32507407665252686 0.98159921169281006
vt 0.16253703832626343 0.21877439320087433
vt 0.16253703832626343 0.98159921169281006
vt 0.32507407665252686 0.40948060154914856
vt 0.32507407665252686 0.60018676519393921
vt 0.32507407665252686 0.79089295864105225
vt 0 0.79089295864105225
vt 0 0.60018676519393921
vt 0 0.40948060154914856
vt 0.65307784080505371 0
vt 0.65307784080505371 0.76347124576568604
vt 0.76162064075469971 0
vt 0.76162064075469971 0.76347124576568604
vt 0.65307784080505371 0.57260340452194214
vt 0.65307784080505371 0.38173562288284302
vt 0.65307784080505371 0.19086781144142151
vt 0.76162064075469971 0.19086781144142151
vt 0.76162064075469971 0.38173562288284302
vt 0.76162064075469971 0.57260340452194214
vt 0.32653892040252686 0.21877439320087433
vt 0.32653892040252686 0.60865479707717896
vt 0.32653892040252686 0.99853515625
vt 0.65161299705505371 0.21877439320087433
vt 0.65161299705505371 0.99853515625
vt 0.48907595872879028 0.21877439320087433
vt 0.48907595872879028 0.99853515625
vt 0.32653892040252686 0.80359494686126709
vt 0.32653892040252686 0.41371458768844604
vt 0.65161299705505371 0.37472653388977051
vt 0.65161299705505371 0.53067868947982788
vt 0.65161299705505371 0.68663084506988525
vt 0.65161299705505371 0.84258300065994263
vt 0.76308548450469971 0
vt 0.76308548450469971 0.78122562170028687
vt 0.8716282844543457 0
vt 0.8716282844543457 0.78122562170028687
vt 0.8716282844543457 0.19530640542507172
vt 0.8716282844543457 0.39061281085014343
vt 0.8716282844543457 0.58591920137405396
vt 0.76308548450469971 0.62498050928115845
vt 0.76308548450469971 0.46873539686203003
vt 0.76308548450469971 0.31249025464057922
vt 0.76308548450469971 0.15624512732028961
vn -0.27890604734420776 0.45011329650878906 0.84829795360565186
vn -0.27890604734420776 0.45011329650878906 0.84829795360565186
vn -0.27890604734420776 0.45011329650878906 0.84829795360565186
vn -0.27890604734420776 0.45011329650878906 0.84829795360565186
vn -0.27890604734420776 0.45011329650878906 0.84829795360565186
vn -0.27890604734420776 0.45011329650878906 0.84829795360565186
vn 0.11631502211093903 -0.41130900382995605 -0.90404409170150757
vn 0.11631502211093903 -0.41130900382995605 -0.90404409170150757
vn 0.11631502211093903 -0.41130900382995605 -0.90404409170150757
vn 0.11631502211093903 -0.41130900382995605 -0.90404409170150757
vn 0.11631502211093903 -0.41130900382995605 -0.90404409170150757
vn 0.11631502211093903 -0.41130900382995605 -0.90404409170150757
vn -0.76171022653579712 0.44779005646705627 -0.46827512979507446
vn -0.76171022653579712 0.44779005646705627 -0.46827512979507446
vn -0.76171022653579712 0.44779005646705627 -0.46827512979507446
vn -0.76171022653579712 0.44779005646705627 -0.46827512979507446
vn -0.76171022653579712 0.44779005646705627 -0.46827512979507446
vn -0.76171022653579712 0.44779005646705627 -0.46827512979507446
vn -0.76171022653579712 0.44779005646705627 -0.46827512979507446
vn -0.76171022653579712 0.44779005646705627 -0.46827512979507446
vn -0.76171022653579712 0.44779005646705627 -0.46827512979507446
vn -0.76171022653579712 0.44779005646705627 -0.46827512979507446
vn -0.76171022653579712 0.44779005646705627 -0.46827512979507446
vn -0.76171022653579712 0.44779005646705627 -0.46827512979507446
vn -0.59403723478317261 -0.77121257781982422 0.228803351521492
vn -0.59403723478317261 -0.77121257781982422 0.228803351521492
vn -0.59403723478317261 -0.77121257781982422 0.228803351521492
vn -0.59403723478317261 -0.77121257781982422 0.228803351521492
vn -0.59403723478317261 -0.77121257781982422 0.228803351521492
vn -0.59403723478317261 -0.77121257781982422 0.228803351521492
vn -0.59403723478317261 -0.77121257781982422 0.228803351521492
vn -0.59403723478317261 -0.77121257781982422 0.228803351521492
vn -0.59403723478317261 -0.77121257781982422 0.228803351521492
vn -0.59403723478317261 -0.77121257781982422 0.228803351521492
vn 0.76171022653579712 -0.44779005646705627 0.46827512979507446
vn 0.76171022653579712 -0.44779005646705627 0.46827512979507446
vn 0.76171022653579712 -0.44779005646705627 0.46827512979507446
vn 0.76171022653579712 -0.44779005646705627 0.46827512979507446
vn 0.76171022653579712 -0.44779005646705627 0.46827512979507446
vn 0.76171022653579712 -0.44779005646705627 0.46827512979507446
vn 0.76171022653579712 -0.44779005646705627 0.46827512979507446
vn 0.76171022653579712 -0.44779005646705627 0.46827512979507446
vn 0.76171022653579712 -0.44779005646705627 0.46827512979507446
vn 0.76171022653579712 -0.44779005646705627 0.46827512979507446
vn 0.76171022653579712 -0.44779005646705627 0.46827512979507446
vn 0.76171022653579712 -0.44779005646705627 0.46827512979507446
vn 0.76171022653579712 -0.44779005646705627 0.46827512979507446
vn 0.59403723478317261 0.77121257781982422 -0.228803351521492
vn 0.59403723478317261 0.77121257781982422 -0.228803351521492
vn 0.59403723478317261 0.77121257781982422 -0.228803351521492
vn 0.59403723478317261 0.77121257781982422 -0.228803351521492
vn 0.59403723478317261 0.77121257781982422 -0.228803351521492
vn 0.59403723478317261 0.77121257781982422 -0.228803351521492
vn 0.59403723478317261 0.77121257781982422 -0.228803351521492
vn 0.59403723478317261 0.77121257781982422 -0.228803351521492
vn 0.59403723478317261 0.77121257781982422 -0.228803351521492
vn 0.59403723478317261 0.77121257781982422 -0.228803351521492
vn 0.59403723478317261 0.77121257781982422 -0.228803351521492
f 2/2/2 1/1/1 5/5/5 3/3/3 4/4/4 6/6/6
f 11/11/11 7/7/7 8/8/8 12/12/12 10/10/10 9/9/9
f 17/17/17 13/13/13 24/24/24 23/23/23 22/22/22 14/14/14 18/18/18 16/16/16 21/21/21 20/20/20 19/19/19 15/15/15
f 32/32/32 27/27/27 25/25/25 31/31/31 30/30/30 29/29/29 26/26/26 28/28/28 34/34/34 33/33/33
f 45/45/45 44/44/44 38/38/38 40/40/40 35/35/35 43/43/43 36/36/36 42/42/42 37/37/37 41/41/41 39/39/39 47/47/47 46/46/46
f 52/52/52 50/50/50 48/48/48 58/58/58 57/57/57 56/56/56 55/55/55 49/49/49 51/51/51 54/54/54 53/53/53
