# Rhino

mtllib 35.mtl
usemtl diffuse_White
v 2.6779201030731201 0.27235999703407288 -6.4296746253967285
v 2.8715834617614746 0.10174162685871124 -6.5006208419799805
v 2.5374886989593506 0.41395136713981628 -7.1894855499267578
v 2.7311520576477051 0.24333299696445465 -7.2604317665100098
v 2.6311094760894775 0.31955713033676147 -6.6829447746276855
v 2.5842990875244141 0.36675423383712769 -6.9362149238586426
v 2.7779624462127686 0.19613587856292725 -7.0071616172790527
v 2.824772834777832 0.14893876016139984 -6.7538914680480957
v 4.0283756256103516 1.2973226308822632 -6.5877437591552734
v 4.2074809074401855 1.1156553030014038 -6.6569862365722656
v 3.8014905452728271 1.3732978105545044 -7.337435245513916
v 3.9805960655212402 1.1916303634643555 -7.4066781997680664
v 3.9527473449707031 1.3226476907730103 -6.8376407623291016
v 3.8771188259124756 1.3479727506637573 -7.0875382423400879
v 4.0562243461608887 1.1663053035736084 -7.1567807197570801
v 4.1318526268005371 1.1409803628921509 -6.906883716583252
v 2.6779201030731201 0.27235999703407288 -6.4296746253967285
v 4.0283756256103516 1.2973226308822632 -6.5877437591552734
v 2.5374886989593506 0.41395136713981628 -7.1894855499267578
v 3.8014905452728271 1.3732978105545044 -7.337435245513916
v 2.6311094760894775 0.31955713033676147 -6.6829447746276855
v 2.5842990875244141 0.36675423383712769 -6.9362149238586426
v 3.8771188259124756 1.3479727506637573 -7.0875382423400879
v 3.9527473449707031 1.3226476907730103 -6.8376407623291016
v 2.95882248878479 0.73373353481292725 -7.2388019561767578
v 3.3801565170288086 1.0535156726837158 -7.288118839263916
v 3.578223705291748 0.95566844940185547 -6.5350542068481445
v 3.1280717849731445 0.61401420831680298 -6.4823641777038574
v 2.5374886989593506 0.41395136713981628 -7.1894855499267578
v 3.8014905452728271 1.3732978105545044 -7.337435245513916
v 2.7311520576477051 0.24333299696445465 -7.2604317665100098
v 3.9805960655212402 1.1916303634643555 -7.4066781997680664
v 3.3801565170288086 1.0535156726837158 -7.288118839263916
v 2.95882248878479 0.73373353481292725 -7.2388019561767578
v 3.1476333141326904 0.55943214893341064 -7.309180736541748
v 3.5641145706176758 0.87553125619888306 -7.3579292297363281
v 2.7311520576477051 0.24333299696445465 -7.2604317665100098
v 3.9805960655212402 1.1916303634643555 -7.4066781997680664
v 2.8715834617614746 0.10174162685871124 -6.5006208419799805
v 4.2074809074401855 1.1156553030014038 -6.6569862365722656
v 2.7779624462127686 0.19613587856292725 -7.0071616172790527
v 2.824772834777832 0.14893876016139984 -6.7538914680480957
v 4.1318526268005371 1.1409803628921509 -6.906883716583252
v 4.0562243461608887 1.1663053035736084 -7.1567807197570801
v 3.5641145706176758 0.87553125619888306 -7.3579292297363281
v 3.1476333141326904 0.55943214893341064 -7.309180736541748
v 3.3168826103210449 0.43971285223960876 -6.5527429580688477
v 3.7621819972991943 0.77768403291702271 -6.6048645973205566
v 2.8715834617614746 0.10174162685871124 -6.5006208419799805
v 4.2074809074401855 1.1156553030014038 -6.6569862365722656
v 2.6779201030731201 0.27235999703407288 -6.4296746253967285
v 4.0283756256103516 1.2973226308822632 -6.5877437591552734
v 3.1280717849731445 0.61401420831680298 -6.4823641777038574
v 3.578223705291748 0.95566844940185547 -6.5350542068481445
v 3.7621819972991943 0.77768403291702271 -6.6048645973205566
v 3.3168826103210449 0.43971285223960876 -6.5527429580688477
vt 0 0.11926700919866562
vt 0 0.23857295513153076
vt 0.35359454154968262 0.11926700919866562
vt 0.35359454154968262 0.23857295513153076
vt 0.11786485463380814 0.11926700919866562
vt 0.23572970926761627 0.11926700919866562
vt 0.23572970926761627 0.23857295513153076
vt 0.11786485463380814 0.23857295513153076
vt 0 0
vt 0 0.11780216544866562
vt 0.35359454154968262 0
vt 0.35359454154968262 0.11780216544866562
vt 0.11786485463380814 0
vt 0.23572970926761627 0
vt 0.23572970926761627 0.11780216544866562
vt 0.11786485463380814 0.11780216544866562
vt 0.35505938529968262 0
vt 0.35505938529968262 0.76824384927749634
vt 0.70865392684936523 0
vt 0.70865392684936523 0.76824384927749634
vt 0.47292423248291016 0
vt 0.5907890796661377 0
vt 0.5907890796661377 0.76824384927749634
vt 0.47292423248291016 0.76824384927749634
vt 0.70865392684936523 0.25608128309249878
vt 0.70865392684936523 0.51216256618499756
vt 0.35505938529968262 0.51216256618499756
vt 0.35505938529968262 0.25608128309249878
vt 0.71011877059936523 0
vt 0.71011877059936523 0.71906226873397827
vt 0.82942473888397217 0
vt 0.82942473888397217 0.71906226873397827
vt 0.71011877059936523 0.47937488555908203
vt 0.71011877059936523 0.23968744277954102
vt 0.82942473888397217 0.23968744277954102
vt 0.82942473888397217 0.47937488555908203
vt 0 0.24003779888153076
vt 0 0.99853515625
vt 0.35359454154968262 0.24003779888153076
vt 0.35359454154968262 0.99853515625
vt 0.11786485463380814 0.24003779888153076
vt 0.23572970926761627 0.24003779888153076
vt 0.23572970926761627 0.99853515625
vt 0.11786485463380814 0.99853515625
vt 0 0.74570274353027344
vt 0 0.49287024140357971
vt 0.35359454154968262 0.49287024140357971
vt 0.35359454154968262 0.74570274353027344
vt 0.83088958263397217 0
vt 0.83088958263397217 0.76824384927749634
vt 0.95019549131393433 0
vt 0.95019549131393433 0.76824384927749634
vt 0.95019549131393433 0.25608128309249878
vt 0.95019549131393433 0.51216256618499756
vt 0.83088958263397217 0.51216256618499756
vt 0.83088958263397217 0.25608128309249878
vn -0.66435134410858154 -0.74723917245864868 -0.016460433602333069
vn -0.66435134410858154 -0.74723917245864868 -0.016460433602333069
vn -0.66435134410858154 -0.74723917245864868 -0.016460433602333069
vn -0.66435134410858154 -0.74723917245864868 -0.016460433602333069
vn -0.66435134410858154 -0.74723917245864868 -0.016460433602333069
vn -0.66435134410858154 -0.74723917245864868 -0.016460433602333069
vn -0.66435134410858154 -0.74723917245864868 -0.016460433602333069
vn -0.66435134410858154 -0.74723917245864868 -0.016460433602333069
vn 0.68004894256591797 0.72105109691619873 -0.13273590803146362
vn 0.68004894256591797 0.72105109691619873 -0.13273590803146362
vn 0.68004894256591797 0.72105109691619873 -0.13273590803146362
vn 0.68004894256591797 0.72105109691619873 -0.13273590803146362
vn 0.68004894256591797 0.72105109691619873 -0.13273590803146362
vn 0.68004894256591797 0.72105109691619873 -0.13273590803146362
vn 0.68004894256591797 0.72105109691619873 -0.13273590803146362
vn 0.68004894256591797 0.72105109691619873 -0.13273590803146362
vn -0.56640720367431641 0.78498280048370361 0.25096789002418518
vn -0.56640720367431641 0.78498280048370361 0.25096789002418518
vn -0.56640720367431641 0.78498280048370361 0.25096789002418518
vn -0.56640720367431641 0.78498280048370361 0.25096789002418518
vn -0.56640720367431641 0.78498280048370361 0.25096789002418518
vn -0.56640720367431641 0.78498280048370361 0.25096789002418518
vn -0.56640720367431641 0.78498280048370361 0.25096789002418518
vn -0.56640720367431641 0.78498280048370361 0.25096789002418518
vn -0.56640720367431641 0.78498280048370361 0.25096789002418518
vn -0.56640720367431641 0.78498280048370361 0.25096789002418518
vn -0.56640720367431641 0.78498280048370361 0.25096789002418518
vn -0.56640720367431641 0.78498280048370361 0.25096789002418518
vn -0.22394396364688873 0.14646504819393158 -0.96353363990783691
vn -0.22394396364688873 0.14646504819393158 -0.96353363990783691
vn -0.22394396364688873 0.14646504819393158 -0.96353363990783691
vn -0.22394396364688873 0.14646504819393158 -0.96353363990783691
vn -0.22394396364688873 0.14646504819393158 -0.96353363990783691
vn -0.22394396364688873 0.14646504819393158 -0.96353363990783691
vn -0.22394396364688873 0.14646504819393158 -0.96353363990783691
vn -0.22394396364688873 0.14646504819393158 -0.96353363990783691
vn 0.56640720367431641 -0.78498280048370361 -0.25096789002418518
vn 0.56640720367431641 -0.78498280048370361 -0.25096789002418518
vn 0.56640720367431641 -0.78498280048370361 -0.25096789002418518
vn 0.56640720367431641 -0.78498280048370361 -0.25096789002418518
vn 0.56640720367431641 -0.78498280048370361 -0.25096789002418518
vn 0.56640720367431641 -0.78498280048370361 -0.25096789002418518
vn 0.56640720367431641 -0.78498280048370361 -0.25096789002418518
vn 0.56640720367431641 -0.78498280048370361 -0.25096789002418518
vn 0.56640720367431641 -0.78498280048370361 -0.25096789002418518
vn 0.56640720367431641 -0.78498280048370361 -0.25096789002418518
vn 0.56640720367431641 -0.78498280048370361 -0.25096789002418518
vn 0.56640720367431641 -0.78498280048370361 -0.25096789002418518
vn 0.22394396364688873 -0.14646504819393158 0.96353363990783691
vn 0.22394396364688873 -0.14646504819393158 0.96353363990783691
vn 0.22394396364688873 -0.14646504819393158 0.96353363990783691
vn 0.22394396364688873 -0.14646504819393158 0.96353363990783691
vn 0.22394396364688873 -0.14646504819393158 0.96353363990783691
vn 0.22394396364688873 -0.14646504819393158 0.96353363990783691
vn 0.22394396364688873 -0.14646504819393158 0.96353363990783691
vn 0.22394396364688873 -0.14646504819393158 0.96353363990783691
f 1/1/1 5/5/5 6/6/6 3/3/3 4/4/4 7/7/7 8/8/8 2/2/2
f 13/13/13 9/9/9 10/10/10 16/16/16 15/15/15 12/12/12 11/11/11 14/14/14
f 21/21/21 17/17/17 28/28/28 27/27/27 18/18/18 24/24/24 23/23/23 20/20/20 26/26/26 25/25/25 19/19/19 22/22/22
f 35/35/35 31/31/31 29/29/29 34/34/34 33/33/33 30/30/30 32/32/32 36/36/36
f 41/41/41 37/37/37 46/46/46 45/45/45 38/38/38 44/44/44 43/43/43 40/40/40 48/48/48 47/47/47 39/39/39 42/42/42
f 53/53/53 51/51/51 49/49/49 56/56/56 55/55/55 50/50/50 52/52/52 54/54/54
