# Rhino

mtllib 39.mtl
usemtl diffuse_White
v -4.4581513404846191 5.6711020469665527 0.95964819192886353
v -4.2567472457885742 5.6150975227355957 1.119015097618103
v -4.7276134490966797 4.9392695426940918 1.048253059387207
v -4.5262093544006348 4.8832650184631348 1.2076200246810913
v -4.5928821563720703 5.3051857948303223 1.0039505958557129
v -4.3914780616760254 5.2491812705993652 1.1633175611495972
v -2.5411374568939209 4.7159109115600586 -2.4987728595733643
v -2.3444132804870605 4.662238597869873 -2.3309628963470459
v -2.7727699279785156 3.965228796005249 -2.4784150123596191
v -2.5760459899902344 3.9115562438964844 -2.3106050491333008
v -2.6183481216430664 4.4656834602355957 -2.4919869899749756
v -2.695559024810791 4.2154560089111328 -2.4852011203765869
v -2.4988350868225098 4.1617836952209473 -2.3173909187316895
v -2.4216241836547852 4.4120111465454102 -2.3241770267486572
v -4.4581513404846191 5.6711020469665527 0.95964819192886353
v -3.4996442794799805 5.1935067176818848 -0.76956242322921753
v -2.5411374568939209 4.7159109115600586 -2.4987728595733643
v -3.6249179840087891 4.8228778839111328 -0.74232172966003418
v -4.7276134490966797 4.9392695426940918 1.048253059387207
v -3.7501916885375977 4.4522490501403809 -0.71508103609085083
v -2.7727699279785156 3.965228796005249 -2.4784150123596191
v -4.5928821563720703 5.3051857948303223 1.0039505958557129
v -4.1089000701904297 5.0640316009521484 0.13081444799900055
v -3.5622811317443848 5.0081920623779297 -0.75594204664230347
v -3.9788978099822998 5.4323043823242188 0.095042884349822998
v -4.0438990592956543 5.2481679916381836 0.11292866617441177
v -4.2389025688171387 4.6957592964172363 0.1665860116481781
v -3.6875548362731934 4.6375632286071777 -0.72870135307312012
v -4.1739015579223633 4.8798956871032715 0.14870022237300873
v -2.695559024810791 4.2154560089111328 -2.4852011203765869
v -2.6183481216430664 4.4656834602355957 -2.4919869899749756
v -3.2614808082580566 4.2087388038635254 -1.5967481136322021
v -3.1409358978271484 4.581723690032959 -1.6154578924179077
v -3.2012083530426025 4.3952312469482422 -1.6061029434204102
v -3.0203907489776611 4.9547085762023926 -1.6341676712036133
v -3.0806634426116943 4.7682161331176758 -1.6248127222061157
v -4.7276134490966797 4.9392695426940918 1.048253059387207
v -2.7727699279785156 3.965228796005249 -2.4784150123596191
v -4.5262093544006348 4.8832650184631348 1.2076200246810913
v -2.5760459899902344 3.9115562438964844 -2.3106050491333008
v -3.2614808082580566 4.2087388038635254 -1.5967481136322021
v -3.7501916885375977 4.4522490501403809 -0.71508103609085083
v -4.2389025688171387 4.6957592964172363 0.1665860116481781
v -4.0386686325073242 4.6403379440307617 0.3280637264251709
v -3.5511276721954346 4.3974108695983887 -0.55149251222610474
v -3.0635867118835449 4.1544833183288574 -1.4310487508773804
v -4.5262093544006348 4.8832650184631348 1.2076200246810913
v -3.5511276721954346 4.3974108695983887 -0.55149251222610474
v -2.5760459899902344 3.9115562438964844 -2.3106050491333008
v -4.2567472457885742 5.6150975227355957 1.119015097618103
v -3.3005802631378174 5.1386680603027344 -0.60597389936447144
v -2.3444132804870605 4.662238597869873 -2.3309628963470459
v -4.3914780616760254 5.2491812705993652 1.1633175611495972
v -3.7786636352539063 5.3768830299377441 0.2565205991268158
v -4.0386686325073242 4.6403379440307617 0.3280637264251709
v -2.4216241836547852 4.4120111465454102 -2.3241770267486572
v -2.4988350868225098 4.1617836952209473 -2.3173909187316895
v -2.8224966526031494 4.9004530906677246 -1.4684684276580811
v -3.0635867118835449 4.1544833183288574 -1.4310487508773804
v -4.2567472457885742 5.6150975227355957 1.119015097618103
v -2.3444132804870605 4.662238597869873 -2.3309628963470459
v -4.4581513404846191 5.6711020469665527 0.95964819192886353
v -2.5411374568939209 4.7159109115600586 -2.4987728595733643
v -3.9788978099822998 5.4323043823242188 0.095042884349822998
v -3.4996442794799805 5.1935067176818848 -0.76956242322921753
v -3.0203907489776611 4.9547085762023926 -1.6341676712036133
v -2.8224966526031494 4.9004530906677246 -1.4684684276580811
v -3.3005802631378174 5.1386680603027344 -0.60597389936447144
v -3.7786636352539063 5.3768830299377441 0.2565205991268158
vt 0.11294475197792053 0
vt 0.11294475197792053 0.056211289018392563
vt 0.28078475594520569 0
vt 0.28078475594520569 0.056211289018392563
vt 0.19686475396156311 0
vt 0.19686475396156311 0.056211289018392563
vt 0.11294475197792053 0.11110528558492661
vt 0.11294475197792053 0.16757765412330627
vt 0.28099602460861206 0.11110528558492661
vt 0.28099602460861206 0.16757765412330627
vt 0.16896185278892517 0.11110528558492661
vt 0.22497893869876862 0.11110528558492661
vt 0.22497893869876862 0.16757765412330627
vt 0.16896185278892517 0.16757765412330627
vt 0.99853515625 0.55489093065261841
vt 0.55573993921279907 0.55489093065261841
vt 0.11294475197792053 0.55489093065261841
vt 0.55573993921279907 0.63891655206680298
vt 0.99853515625 0.72294223308563232
vt 0.55573993921279907 0.72294223308563232
vt 0.11294475197792053 0.72294223308563232
vt 0.99853515625 0.63891655206680298
vt 0.77713757753372192 0.63891655206680298
vt 0.55573993921279907 0.59690374135971069
vt 0.77713757753372192 0.55489093065261841
vt 0.77713757753372192 0.59690374135971069
vt 0.77713757753372192 0.72294223308563232
vt 0.55573993921279907 0.68092936277389526
vt 0.77713757753372192 0.68092936277389526
vt 0.11294475197792053 0.66692513227462769
vt 0.11294475197792053 0.61090803146362305
vt 0.334342360496521 0.72294223308563232
vt 0.334342360496521 0.63891655206680298
vt 0.334342360496521 0.68092936277389526
vt 0.334342360496521 0.55489093065261841
vt 0.334342360496521 0.59690374135971069
vt 0.056472375988960266 0
vt 0.056472375988960266 0.88559037446975708
vt 0.11147990822792053 0
vt 0.11147990822792053 0.88559037446975708
vt 0.056472375988960266 0.664192795753479
vt 0.056472375988960266 0.44279518723487854
vt 0.056472375988960266 0.22139759361743927
vt 0.11147990822792053 0.22139759361743927
vt 0.11147990822792053 0.44279518723487854
vt 0.11147990822792053 0.664192795753479
vt 0.99787634611129761 0.22272662818431854
vt 0.55541056394577026 0.22272662818431854
vt 0.11294475197792053 0.22272662818431854
vt 0.99787634611129761 0.39077788591384888
vt 0.55541056394577026 0.39077788591384888
vt 0.11294475197792053 0.39077788591384888
vt 0.99787634611129761 0.30675226449966431
vt 0.77664345502853394 0.39077788591384888
vt 0.77664345502853394 0.22272662818431854
vt 0.11294475197792053 0.33476081490516663
vt 0.11294475197792053 0.27874371409416199
vt 0.3341776430606842 0.39077788591384888
vt 0.3341776430606842 0.22272662818431854
vt 0 0
vt 0 0.86988919973373413
vt 0.055007532238960266 0
vt 0.055007532238960266 0.86988919973373413
vt 0.055007532238960266 0.21747229993343353
vt 0.055007532238960266 0.43494459986686707
vt 0.055007532238960266 0.6524168848991394
vt 0 0.6524168848991394
vt 0 0.43494459986686707
vt 0 0.21747229993343353
vn -0.54124528169631958 0.29463875293731689 0.78755414485931396
vn -0.54124528169631958 0.29463875293731689 0.78755414485931396
vn -0.54124528169631958 0.29463875293731689 0.78755414485931396
vn -0.54124528169631958 0.29463875293731689 0.78755414485931396
vn -0.54124528169631958 0.29463875293731689 0.78755414485931396
vn -0.54124528169631958 0.29463875293731689 0.78755414485931396
vn 0.60174477100372314 -0.2065986841917038 -0.77150517702102661
vn 0.60174477100372314 -0.2065986841917038 -0.77150517702102661
vn 0.60174477100372314 -0.2065986841917038 -0.77150517702102661
vn 0.60174477100372314 -0.2065986841917038 -0.77150517702102661
vn 0.60174477100372314 -0.2065986841917038 -0.77150517702102661
vn 0.60174477100372314 -0.2065986841917038 -0.77150517702102661
vn 0.60174477100372314 -0.2065986841917038 -0.77150517702102661
vn 0.60174477100372314 -0.2065986841917038 -0.77150517702102661
vn -0.8198322057723999 0.23885683715343475 -0.52040618658065796
vn -0.8198322057723999 0.23885683715343475 -0.52040618658065796
vn -0.8198322057723999 0.23885683715343475 -0.52040618658065796
vn -0.8198322057723999 0.23885683715343475 -0.52040618658065796
vn -0.8198322057723999 0.23885683715343475 -0.52040618658065796
vn -0.8198322057723999 0.23885683715343475 -0.52040618658065796
vn -0.8198322057723999 0.23885683715343475 -0.52040618658065796
vn -0.8198322057723999 0.23885683715343475 -0.52040618658065796
vn -0.8198322057723999 0.23885683715343475 -0.52040618658065796
vn -0.8198322057723999 0.23885683715343475 -0.52040618658065796
vn -0.8198322057723999 0.23885683715343475 -0.52040618658065796
vn -0.8198322057723999 0.23885683715343475 -0.52040618658065796
vn -0.8198322057723999 0.23885683715343475 -0.52040618658065796
vn -0.8198322057723999 0.23885683715343475 -0.52040618658065796
vn -0.8198322057723999 0.23885683715343475 -0.52040618658065796
vn -0.8198322057723999 0.23885683715343475 -0.52040618658065796
vn -0.8198322057723999 0.23885683715343475 -0.52040618658065796
vn -0.8198322057723999 0.23885683715343475 -0.52040618658065796
vn -0.8198322057723999 0.23885683715343475 -0.52040618658065796
vn -0.8198322057723999 0.23885683715343475 -0.52040618658065796
vn -0.8198322057723999 0.23885683715343475 -0.52040618658065796
vn -0.8198322057723999 0.23885683715343475 -0.52040618658065796
vn -0.32526537775993347 -0.9422374963760376 0.079943634569644928
vn -0.32526537775993347 -0.9422374963760376 0.079943634569644928
vn -0.32526537775993347 -0.9422374963760376 0.079943634569644928
vn -0.32526537775993347 -0.9422374963760376 0.079943634569644928
vn -0.32526537775993347 -0.9422374963760376 0.079943634569644928
vn -0.32526537775993347 -0.9422374963760376 0.079943634569644928
vn -0.32526537775993347 -0.9422374963760376 0.079943634569644928
vn -0.32526537775993347 -0.9422374963760376 0.079943634569644928
vn -0.32526537775993347 -0.9422374963760376 0.079943634569644928
vn -0.32526537775993347 -0.9422374963760376 0.079943634569644928
vn 0.8198322057723999 -0.23885683715343475 0.52040618658065796
vn 0.8198322057723999 -0.23885683715343475 0.52040618658065796
vn 0.8198322057723999 -0.23885683715343475 0.52040618658065796
vn 0.8198322057723999 -0.23885683715343475 0.52040618658065796
vn 0.8198322057723999 -0.23885683715343475 0.52040618658065796
vn 0.8198322057723999 -0.23885683715343475 0.52040618658065796
vn 0.8198322057723999 -0.23885683715343475 0.52040618658065796
vn 0.8198322057723999 -0.23885683715343475 0.52040618658065796
vn 0.8198322057723999 -0.23885683715343475 0.52040618658065796
vn 0.8198322057723999 -0.23885683715343475 0.52040618658065796
vn 0.8198322057723999 -0.23885683715343475 0.52040618658065796
vn 0.8198322057723999 -0.23885683715343475 0.52040618658065796
vn 0.8198322057723999 -0.23885683715343475 0.52040618658065796
vn 0.32526537775993347 0.9422374963760376 -0.079943634569644928
vn 0.32526537775993347 0.9422374963760376 -0.079943634569644928
vn 0.32526537775993347 0.9422374963760376 -0.079943634569644928
vn 0.32526537775993347 0.9422374963760376 -0.079943634569644928
vn 0.32526537775993347 0.9422374963760376 -0.079943634569644928
vn 0.32526537775993347 0.9422374963760376 -0.079943634569644928
vn 0.32526537775993347 0.9422374963760376 -0.079943634569644928
vn 0.32526537775993347 0.9422374963760376 -0.079943634569644928
vn 0.32526537775993347 0.9422374963760376 -0.079943634569644928
vn 0.32526537775993347 0.9422374963760376 -0.079943634569644928
f 2/2/2 1/1/1 5/5/5 3/3/3 4/4/4 6/6/6
f 7/7/7 8/8/8 14/14/14 13/13/13 10/10/10 9/9/9 12/12/12 11/11/11
f 25/25/25 16/16/16 35/35/35 17/17/17 31/31/31 30/30/30 21/21/21 32/32/32 20/20/20 27/27/27 19/19/19 22/22/22 15/15/15
f 44/44/44 39/39/39 37/37/37 43/43/43 42/42/42 41/41/41 38/38/38 40/40/40 46/46/46 45/45/45
f 51/51/51 54/54/54 50/50/50 53/53/53 47/47/47 55/55/55 48/48/48 59/59/59 49/49/49 57/57/57 56/56/56 52/52/52 58/58/58
f 64/64/64 62/62/62 60/60/60 69/69/69 68/68/68 67/67/67 61/61/61 63/63/63 66/66/66 65/65/65
