# Rhino

mtllib 4.mtl
usemtl diffuse_White
v 5.8458585739135742 7.0545463562011719 3.981574535369873
v 5.9198112487792969 7.2036395072937012 4.1835780143737793
v 6.5376291275024414 6.670316219329834 4.0188469886779785
v 6.6115818023681641 6.8194098472595215 4.2208504676818848
v 6.076448917388916 6.9264693260192871 3.9939985275268555
v 6.3070387840270996 6.7983927726745605 4.0064225196838379
v 6.3809914588928223 6.947486400604248 4.2084264755249023
v 6.1504015922546387 7.0755629539489746 4.1960024833679199
v 6.6759042739868164 8.008030891418457 3.0707943439483643
v 6.7377820014953613 8.1432533264160156 3.2860472202301025
v 7.2647237777709961 7.5055398941040039 3.2210309505462646
v 7.326601505279541 7.6407628059387207 3.4362838268280029
v 6.8721771240234375 7.8405337333679199 3.1208732128143311
v 7.0684504508972168 7.6730365753173828 3.1709520816802979
v 7.1303281784057617 7.8082594871520996 3.3862049579620361
v 6.9340553283691406 7.9757566452026367 3.3361260890960693
v 5.8458585739135742 7.0545463562011719 3.981574535369873
v 6.6759042739868164 8.008030891418457 3.0707943439483643
v 6.5376291275024414 6.670316219329834 4.0188469886779785
v 7.2647237777709961 7.5055398941040039 3.2210309505462646
v 6.076448917388916 6.9264693260192871 3.9939985275268555
v 6.3070387840270996 6.7983927726745605 4.0064225196838379
v 6.9011764526367188 7.0879278182983398 3.619938850402832
v 6.2608814239501953 7.5312881469726563 3.5261843204498291
v 7.0684504508972168 7.6730365753173828 3.1709520816802979
v 6.8721771240234375 7.8405337333679199 3.1208732128143311
v 6.5376291275024414 6.670316219329834 4.0188469886779785
v 7.2647237777709961 7.5055398941040039 3.2210309505462646
v 6.6115818023681641 6.8194098472595215 4.2208504676818848
v 7.326601505279541 7.6407628059387207 3.4362838268280029
v 6.9690918922424316 7.2300863265991211 3.8285672664642334
v 6.9011764526367188 7.0879278182983398 3.619938850402832
v 6.6115818023681641 6.8194098472595215 4.2208504676818848
v 7.326601505279541 7.6407628059387207 3.4362838268280029
v 5.9198112487792969 7.2036395072937012 4.1835780143737793
v 6.7377820014953613 8.1432533264160156 3.2860472202301025
v 6.3809914588928223 6.947486400604248 4.2084264755249023
v 6.1504015922546387 7.0755629539489746 4.1960024833679199
v 6.9690918922424316 7.2300863265991211 3.8285672664642334
v 6.3287968635559082 7.6734466552734375 3.7348127365112305
v 6.9340553283691406 7.9757566452026367 3.3361260890960693
v 7.1303281784057617 7.8082594871520996 3.3862049579620361
v 5.9198112487792969 7.2036395072937012 4.1835780143737793
v 6.7377820014953613 8.1432533264160156 3.2860472202301025
v 5.8458585739135742 7.0545463562011719 3.981574535369873
v 6.6759042739868164 8.008030891418457 3.0707943439483643
v 6.2608814239501953 7.5312881469726563 3.5261843204498291
v 6.3287968635559082 7.6734466552734375 3.7348127365112305
vt 0.24835255742073059 0.12412606179714203
vt 0.24835255742073059 0.24683749675750732
vt 0.62420141696929932 0.12412606179714203
vt 0.62420141696929932 0.24683749675750732
vt 0.37363550066947937 0.12412606179714203
vt 0.49891844391822815 0.12412606179714203
vt 0.49891844391822815 0.24683749675750732
vt 0.37363550066947937 0.24683749675750732
vt 0.24835255742073059 0
vt 0.24835255742073059 0.12266121804714203
vt 0.62246310710906982 0
vt 0.62246310710906982 0.12266121804714203
vt 0.3730560839176178 0
vt 0.497759610414505 0
vt 0.497759610414505 0.12266121804714203
vt 0.3730560839176178 0.12266121804714203
vt 0.98610806465148926 0.62415117025375366
vt 0.24835255742073059 0.62415117025375366
vt 0.98610806465148926 0.99853515625
vt 0.24835255742073059 0.99853515625
vt 0.98610806465148926 0.74894583225250244
vt 0.98610806465148926 0.87374049425125122
vt 0.61723029613494873 0.99853515625
vt 0.61723029613494873 0.62415117025375366
vt 0.24835255742073059 0.87374049425125122
vt 0.24835255742073059 0.74894583225250244
vt 0 0
vt 0 0.64753448963165283
vt 0.1227114349603653 0
vt 0.1227114349603653 0.64753448963165283
vt 0.1227114349603653 0.32376724481582642
vt 0 0.32376724481582642
vt 0.97681939601898193 0.24830234050750732
vt 0.24835255742073059 0.24830234050750732
vt 0.97681939601898193 0.62268632650375366
vt 0.24835255742073059 0.62268632650375366
vt 0.97681939601898193 0.3730970025062561
vt 0.97681939601898193 0.49789166450500488
vt 0.61258596181869507 0.24830234050750732
vt 0.61258596181869507 0.62268632650375366
vt 0.24835255742073059 0.49789166450500488
vt 0.24835255742073059 0.3730970025062561
vt 0.1241762787103653 0
vt 0.1241762787103653 0.73922038078308105
vt 0.24688771367073059 0
vt 0.24688771367073059 0.73922038078308105
vt 0.24688771367073059 0.36961019039154053
vt 0.1241762787103653 0.36961019039154053
vn -0.40114855766296387 -0.66068238019943237 0.63449084758758545
vn -0.40114855766296387 -0.66068238019943237 0.63449084758758545
vn -0.40114855766296387 -0.66068238019943237 0.63449084758758545
vn -0.40114855766296387 -0.66068238019943237 0.63449084758758545
vn -0.40114855766296387 -0.66068238019943237 0.63449084758758545
vn -0.40114855766296387 -0.66068238019943237 0.63449084758758545
vn -0.40114855766296387 -0.66068238019943237 0.63449084758758545
vn -0.40114855766296387 -0.66068238019943237 0.63449084758758545
vn 0.62278068065643311 0.5693175196647644 -0.53667658567428589
vn 0.62278068065643311 0.5693175196647644 -0.53667658567428589
vn 0.62278068065643311 0.5693175196647644 -0.53667658567428589
vn 0.62278068065643311 0.5693175196647644 -0.53667658567428589
vn 0.62278068065643311 0.5693175196647644 -0.53667658567428589
vn 0.62278068065643311 0.5693175196647644 -0.53667658567428589
vn 0.62278068065643311 0.5693175196647644 -0.53667658567428589
vn 0.62278068065643311 0.5693175196647644 -0.53667658567428589
vn -0.25729352235794067 -0.54091107845306396 -0.80075919628143311
vn -0.25729352235794067 -0.54091107845306396 -0.80075919628143311
vn -0.25729352235794067 -0.54091107845306396 -0.80075919628143311
vn -0.25729352235794067 -0.54091107845306396 -0.80075919628143311
vn -0.25729352235794067 -0.54091107845306396 -0.80075919628143311
vn -0.25729352235794067 -0.54091107845306396 -0.80075919628143311
vn -0.25729352235794067 -0.54091107845306396 -0.80075919628143311
vn -0.25729352235794067 -0.54091107845306396 -0.80075919628143311
vn -0.25729352235794067 -0.54091107845306396 -0.80075919628143311
vn -0.25729352235794067 -0.54091107845306396 -0.80075919628143311
vn 0.80622214078903198 -0.57699316740036011 0.13070876896381378
vn 0.80622214078903198 -0.57699316740036011 0.13070876896381378
vn 0.80622214078903198 -0.57699316740036011 0.13070876896381378
vn 0.80622214078903198 -0.57699316740036011 0.13070876896381378
vn 0.80622214078903198 -0.57699316740036011 0.13070876896381378
vn 0.80622214078903198 -0.57699316740036011 0.13070876896381378
vn 0.25729352235794067 0.54091107845306396 0.80075919628143311
vn 0.25729352235794067 0.54091107845306396 0.80075919628143311
vn 0.25729352235794067 0.54091107845306396 0.80075919628143311
vn 0.25729352235794067 0.54091107845306396 0.80075919628143311
vn 0.25729352235794067 0.54091107845306396 0.80075919628143311
vn 0.25729352235794067 0.54091107845306396 0.80075919628143311
vn 0.25729352235794067 0.54091107845306396 0.80075919628143311
vn 0.25729352235794067 0.54091107845306396 0.80075919628143311
vn 0.25729352235794067 0.54091107845306396 0.80075919628143311
vn 0.25729352235794067 0.54091107845306396 0.80075919628143311
vn -0.80622214078903198 0.57699316740036011 -0.13070876896381378
vn -0.80622214078903198 0.57699316740036011 -0.13070876896381378
vn -0.80622214078903198 0.57699316740036011 -0.13070876896381378
vn -0.80622214078903198 0.57699316740036011 -0.13070876896381378
vn -0.80622214078903198 0.57699316740036011 -0.13070876896381378
vn -0.80622214078903198 0.57699316740036011 -0.13070876896381378
f 1/1/1 5/5/5 6/6/6 3/3/3 4/4/4 7/7/7 8/8/8 2/2/2
f 9/9/9 10/10/10 16/16/16 15/15/15 12/12/12 11/11/11 14/14/14 13/13/13
f 21/21/21 17/17/17 24/24/24 18/18/18 26/26/26 25/25/25 20/20/20 23/23/23 19/19/19 22/22/22
f 31/31/31 29/29/29 27/27/27 32/32/32 28/28/28 30/30/30
f 37/37/37 33/33/33 39/39/39 34/34/34 42/42/42 41/41/41 36/36/36 40/40/40 35/35/35 38/38/38
f 47/47/47 45/45/45 43/43/43 48/48/48 44/44/44 46/46/46
