# Rhino

mtllib 45.mtl
usemtl diffuse_White
v -4.184633731842041 5.2850394248962402 3.5128805637359619
v -4.0158638954162598 5.1926965713500977 3.6949727535247803
v -4.5400371551513672 4.5841350555419922 3.4989326000213623
v -4.3712673187255859 4.4917922019958496 3.6810247898101807
v -4.3623356819152832 4.9345874786376953 3.5059065818786621
v -4.1935653686523438 4.8422446250915527 3.6879987716674805
v -2.4103145599365234 4.682988166809082 0.78774768114089966
v -2.2428054809570313 4.5910730361938477 0.97177648544311523
v -2.6946179866790771 3.9579586982727051 0.66459888219833374
v -2.527108907699585 3.8660435676574707 0.84862768650054932
v -2.5524663925170898 4.3204731941223145 0.7261732816696167
v -2.3849573135375977 4.2285580635070801 0.91020208597183228
v -4.184633731842041 5.2850394248962402 3.5128805637359619
v -2.4103145599365234 4.682988166809082 0.78774768114089966
v -4.5400371551513672 4.5841350555419922 3.4989326000213623
v -2.6946179866790771 3.9579586982727051 0.66459888219833374
v -4.3623356819152832 4.9345874786376953 3.5059065818786621
v -2.5524663925170898 4.3204731941223145 0.7261732816696167
v -4.1709532737731934 4.458899974822998 2.9320657253265381
v -3.8018696308135986 4.3336644172668457 2.365199089050293
v -3.4327857494354248 4.2084293365478516 1.7983323335647583
v -3.063701868057251 4.0831937789916992 1.2314655780792236
v -2.6637887954711914 4.7689952850341797 1.17705237865448
v -2.9172627925872803 4.8550024032592773 1.5663571357727051
v -3.1707370281219482 4.9410099983215332 1.9556617736816406
v -3.4242112636566162 5.0270171165466309 2.3449664115905762
v -3.6776852607727051 5.1130247116088867 2.7342712879180908
v -3.931159496307373 5.1990318298339844 3.1235759258270264
v -4.5400371551513672 4.5841350555419922 3.4989326000213623
v -2.6946179866790771 3.9579586982727051 0.66459888219833374
v -4.3712673187255859 4.4917922019958496 3.6810247898101807
v -2.527108907699585 3.8660435676574707 0.84862768650054932
v -3.063701868057251 4.0831937789916992 1.2314655780792236
v -3.4327857494354248 4.2084293365478516 1.7983323335647583
v -3.8018696308135986 4.3336644172668457 2.365199089050293
v -4.1709532737731934 4.458899974822998 2.9320657253265381
v -3.9102277755737305 4.335355281829834 2.9729254245758057
v -3.449188232421875 4.1789178848266602 2.2648262977600098
v -2.9881484508514404 4.0224809646606445 1.5567269325256348
v -4.3712673187255859 4.4917922019958496 3.6810247898101807
v -3.449188232421875 4.1789178848266602 2.2648262977600098
v -2.527108907699585 3.8660435676574707 0.84862768650054932
v -3.2892613410949707 4.5354013442993164 2.299100399017334
v -2.3849573135375977 4.2285580635070801 0.91020208597183228
v -4.0158638954162598 5.1926965713500977 3.6949727535247803
v -2.2428054809570313 4.5910730361938477 0.97177648544311523
v -4.1935653686523438 4.8422446250915527 3.6879987716674805
v -3.7414133548736572 4.6888227462768555 2.9935495853424072
v -3.3692247867584229 4.3571596145629883 2.2819633483886719
v -3.8258206844329834 4.5120887756347656 2.9832375049591064
v -3.2092978954315186 4.7136430740356445 2.3162374496459961
v -3.6570062637329102 4.8655567169189453 3.003861665725708
v -2.8371093273162842 4.3819799423217773 1.6046512126922607
v -2.7615897655487061 4.5617294311523438 1.6286134719848633
v -2.9881484508514404 4.0224809646606445 1.5567269325256348
v -2.9126288890838623 4.2022304534912109 1.5806890726089478
v -3.9102277755737305 4.335355281829834 2.9729254245758057
v -3.7625696659088135 5.1067500114440918 3.3059446811676025
v -3.5092756748199463 5.0208039283752441 2.9169168472290039
v -3.2559816837310791 4.9348578453063965 2.5278887748718262
v -3.0026876926422119 4.8489112854003906 2.1388607025146484
v -2.7493934631347656 4.762965202331543 1.7498326301574707
v -2.4960994720458984 4.6770191192626953 1.360804557800293
v -4.0158638954162598 5.1926965713500977 3.6949727535247803
v -2.2428054809570313 4.5910730361938477 0.97177648544311523
v -4.184633731842041 5.2850394248962402 3.5128805637359619
v -2.4103145599365234 4.682988166809082 0.78774768114089966
v -3.931159496307373 5.1990318298339844 3.1235759258270264
v -3.6776852607727051 5.1130247116088867 2.7342712879180908
v -3.4242112636566162 5.0270171165466309 2.3449664115905762
v -3.1707370281219482 4.9410099983215332 1.9556617736816406
v -2.9172627925872803 4.8550024032592773 1.5663571357727051
v -2.6637887954711914 4.7689952850341797 1.17705237865448
v -2.4960994720458984 4.6770191192626953 1.360804557800293
v -2.7493934631347656 4.762965202331543 1.7498326301574707
v -3.0026876926422119 4.8489112854003906 2.1388607025146484
v -3.2559816837310791 4.9348578453063965 2.5278887748718262
v -3.5092756748199463 5.0208039283752441 2.9169168472290039
v -3.7625696659088135 5.1067500114440918 3.3059446811676025
v -3.7455110549926758 5.1185002326965332 3.059093713760376
v -3.0360355377197266 4.8777651786804199 1.9694279432296753
v -2.681297779083252 4.7573976516723633 1.4245949983596802
vt 0.13363626599311829 0
vt 0.13363626599311829 0.066720187664031982
vt 0.33160734176635742 0
vt 0.33160734176635742 0.066720187664031982
vt 0.23262180387973785 0
vt 0.23262180387973785 0.066720187664031982
vt 0.13363626599311829 0.10891511291265488
vt 0.13363626599311829 0.17573323845863342
vt 0.33222949504852295 0.10891511291265488
vt 0.33222949504852295 0.17573323845863342
vt 0.23293288052082062 0.10891511291265488
vt 0.23293288052082062 0.17573323845863342
vt 0.99853515625 0.54217690229415894
vt 0.13363626599311829 0.54217690229415894
vt 0.99853515625 0.74077016115188599
vt 0.13363626599311829 0.74077016115188599
vt 0.99853515625 0.64147353172302246
vt 0.13363626599311829 0.64147353172302246
vt 0.82555538415908813 0.74077016115188599
vt 0.65257561206817627 0.74077016115188599
vt 0.47959581017494202 0.74077016115188599
vt 0.30661603808403015 0.74077016115188599
vt 0.25719323754310608 0.54217690229415894
vt 0.38075020909309387 0.54217690229415894
vt 0.50430721044540405 0.54217690229415894
vt 0.62786418199539185 0.54217690229415894
vt 0.75142115354537964 0.54217690229415894
vt 0.87497818470001221 0.54217690229415894
vt 0.066818132996559143 0
vt 0.066818132996559143 0.8648989200592041
vt 0.13217142224311829 0
vt 0.13217142224311829 0.8648989200592041
vt 0.066818132996559143 0.69191914796829224
vt 0.066818132996559143 0.51893937587738037
vt 0.066818132996559143 0.34595957398414612
vt 0.066818132996559143 0.17297978699207306
vt 0.13217142224311829 0.21622473001480103
vt 0.13217142224311829 0.43244946002960205
vt 0.13217142224311829 0.64867419004440308
vt 0.99853515625 0.21799011528491974
vt 0.56608569622039795 0.21799011528491974
vt 0.13363626599311829 0.21799011528491974
vt 0.56608569622039795 0.31728672981262207
vt 0.13363626599311829 0.31728672981262207
vt 0.99853515625 0.41658332943916321
vt 0.13363626599311829 0.41658332943916321
vt 0.99853515625 0.31728672981262207
vt 0.78231042623519897 0.31728672981262207
vt 0.56608569622039795 0.26763841509819031
vt 0.78231042623519897 0.26763841509819031
vt 0.56608569622039795 0.36693504452705383
vt 0.78231042623519897 0.36693504452705383
vt 0.34986099600791931 0.31728672981262207
vt 0.34986099600791931 0.36693504452705383
vt 0.34986099600791931 0.21799011528491974
vt 0.34986099600791931 0.26763841509819031
vt 0.78231042623519897 0.21799011528491974
vt 0.87497818470001221 0.41658332943916321
vt 0.75142115354537964 0.41658332943916321
vt 0.62786418199539185 0.41658332943916321
vt 0.50430721044540405 0.41658332943916321
vt 0.38075020909309387 0.41658332943916321
vt 0.25719323754310608 0.41658332943916321
vt 0 0
vt 0 0.83298462629318237
vt 0.065353289246559143 0
vt 0.065353289246559143 0.83298462629318237
vt 0.065353289246559143 0.11899781227111816
vt 0.065353289246559143 0.23799562454223633
vt 0.065353289246559143 0.3569934070110321
vt 0.065353289246559143 0.47599124908447266
vt 0.065353289246559143 0.59498906135559082
vt 0.065353289246559143 0.71398681402206421
vt 0 0.71398681402206421
vt 0 0.59498906135559082
vt 0 0.47599124908447266
vt 0 0.3569934070110321
vt 0 0.23799562454223633
vt 0 0.11899781227111816
vt 0.032676644623279572 0.16659693419933319
vt 0.032676644623279572 0.49979078769683838
vt 0.032676644623279572 0.66638773679733276
vn -0.61922860145568848 0.29954466223716736 0.7258298397064209
vn -0.61922860145568848 0.29954466223716736 0.7258298397064209
vn -0.61922860145568848 0.29954466223716736 0.7258298397064209
vn -0.61922860145568848 0.29954466223716736 0.7258298397064209
vn -0.61922860145568848 0.29954466223716736 0.7258298397064209
vn -0.61922860145568848 0.29954466223716736 0.7258298397064209
vn 0.69212901592254639 -0.15153908729553223 -0.70568639039993286
vn 0.69212901592254639 -0.15153908729553223 -0.70568639039993286
vn 0.69212901592254639 -0.15153908729553223 -0.70568639039993286
vn 0.69212901592254639 -0.15153908729553223 -0.70568639039993286
vn 0.69212901592254639 -0.15153908729553223 -0.70568639039993286
vn 0.69212901592254639 -0.15153908729553223 -0.70568639039993286
vn -0.73317265510559082 0.38294899463653564 -0.56196790933609009
vn -0.73317265510559082 0.38294899463653564 -0.56196790933609009
vn -0.73317265510559082 0.38294899463653564 -0.56196790933609009
vn -0.73317265510559082 0.38294899463653564 -0.56196790933609009
vn -0.73317265510559082 0.38294899463653564 -0.56196790933609009
vn -0.73317265510559082 0.38294899463653564 -0.56196790933609009
vn -0.73317265510559082 0.38294899463653564 -0.56196790933609009
vn -0.73317265510559082 0.38294899463653564 -0.56196790933609009
vn -0.73317265510559082 0.38294899463653564 -0.56196790933609009
vn -0.73317265510559082 0.38294899463653564 -0.56196790933609009
vn -0.73317265510559082 0.38294899463653564 -0.56196790933609009
vn -0.73317265510559082 0.38294899463653564 -0.56196790933609009
vn -0.73317265510559082 0.38294899463653564 -0.56196790933609009
vn -0.73317265510559082 0.38294899463653564 -0.56196790933609009
vn -0.73317265510559082 0.38294899463653564 -0.56196790933609009
vn -0.73317265510559082 0.38294899463653564 -0.56196790933609009
vn -0.41786256432533264 -0.90565383434295654 -0.071985982358455658
vn -0.41786256432533264 -0.90565383434295654 -0.071985982358455658
vn -0.41786256432533264 -0.90565383434295654 -0.071985982358455658
vn -0.41786256432533264 -0.90565383434295654 -0.071985982358455658
vn -0.41786256432533264 -0.90565383434295654 -0.071985982358455658
vn -0.41786256432533264 -0.90565383434295654 -0.071985982358455658
vn -0.41786256432533264 -0.90565383434295654 -0.071985982358455658
vn -0.41786256432533264 -0.90565383434295654 -0.071985982358455658
vn -0.41786256432533264 -0.90565383434295654 -0.071985982358455658
vn -0.41786256432533264 -0.90565383434295654 -0.071985982358455658
vn -0.41786256432533264 -0.90565383434295654 -0.071985982358455658
vn 0.73317265510559082 -0.38294899463653564 0.56196790933609009
vn 0.73317265510559082 -0.38294899463653564 0.56196790933609009
vn 0.73317265510559082 -0.38294899463653564 0.56196790933609009
vn 0.73317265510559082 -0.38294899463653564 0.56196790933609009
vn 0.73317265510559082 -0.38294899463653564 0.56196790933609009
vn 0.73317265510559082 -0.38294899463653564 0.56196790933609009
vn 0.73317265510559082 -0.38294899463653564 0.56196790933609009
vn 0.73317265510559082 -0.38294899463653564 0.56196790933609009
vn 0.73317265510559082 -0.38294899463653564 0.56196790933609009
vn 0.73317265510559082 -0.38294899463653564 0.56196790933609009
vn 0.73317265510559082 -0.38294899463653564 0.56196790933609009
vn 0.73317265510559082 -0.38294899463653564 0.56196790933609009
vn 0.73317265510559082 -0.38294899463653564 0.56196790933609009
vn 0.73317265510559082 -0.38294899463653564 0.56196790933609009
vn 0.73317265510559082 -0.38294899463653564 0.56196790933609009
vn 0.73317265510559082 -0.38294899463653564 0.56196790933609009
vn 0.73317265510559082 -0.38294899463653564 0.56196790933609009
vn 0.73317265510559082 -0.38294899463653564 0.56196790933609009
vn 0.73317265510559082 -0.38294899463653564 0.56196790933609009
vn 0.73317265510559082 -0.38294899463653564 0.56196790933609009
vn 0.73317265510559082 -0.38294899463653564 0.56196790933609009
vn 0.73317265510559082 -0.38294899463653564 0.56196790933609009
vn 0.73317265510559082 -0.38294899463653564 0.56196790933609009
vn 0.73317265510559082 -0.38294899463653564 0.56196790933609009
vn 0.41786256432533264 0.90565383434295654 0.071985982358455658
vn 0.41786256432533264 0.90565383434295654 0.071985982358455658
vn 0.41786256432533264 0.90565383434295654 0.071985982358455658
vn 0.41786256432533264 0.90565383434295654 0.071985982358455658
vn 0.41786256432533264 0.90565383434295654 0.071985982358455658
vn 0.41786256432533264 0.90565383434295654 0.071985982358455658
vn 0.41786256432533264 0.90565383434295654 0.071985982358455658
vn 0.41786256432533264 0.90565383434295654 0.071985982358455658
vn 0.41786256432533264 0.90565383434295654 0.071985982358455658
vn 0.41786256432533264 0.90565383434295654 0.071985982358455658
vn 0.41786256432533264 0.90565383434295654 0.071985982358455658
vn 0.41786256432533264 0.90565383434295654 0.071985982358455658
vn 0.41786256432533264 0.90565383434295654 0.071985982358455658
vn 0.41786256432533264 0.90565383434295654 0.071985982358455658
vn 0.41786256432533264 0.90565383434295654 0.071985982358455658
vn 0.41786256432533264 0.90565383434295654 0.071985982358455658
vn 0.41786256432533264 0.90565383434295654 0.071985982358455658
vn 0.41786256432533264 0.90565383434295654 0.071985982358455658
vn 0.41786256432533264 0.90565383434295654 0.071985982358455658
f 6/6/6 2/2/2 1/1/1 5/5/5 3/3/3 4/4/4
f 8/8/8 12/12/12 10/10/10 9/9/9 11/11/11 7/7/7
f 17/17/17 13/13/13 28/28/28 27/27/27 26/26/26 25/25/25 24/24/24 23/23/23 14/14/14 18/18/18 16/16/16 22/22/22 21/21/21 20/20/20 19/19/19 15/15/15
f 37/37/37 31/31/31 29/29/29 36/36/36 35/35/35 34/34/34 33/33/33 30/30/30 32/32/32 39/39/39 38/38/38
f 57/57/57 41/41/41 55/55/55 42/42/42 44/44/44 46/46/46 63/63/63 62/62/62 61/61/61 60/60/60 59/59/59 58/58/58 45/45/45 47/47/47 40/40/40
f 64/64/64 79/79/79 78/78/78 77/77/77 76/76/76 75/75/75 74/74/74 65/65/65 67/67/67 73/73/73 72/72/72 71/71/71 70/70/70 69/69/69 68/68/68 66/66/66
