# Rhino

mtllib 46.mtl
usemtl diffuse_White
v -5.9260711669921875 6.9508872032165527 6.5680356025695801
v -6.0329523086547852 7.1174015998840332 6.397153377532959
v -6.5701041221618652 6.4999651908874512 6.5323748588562012
v -6.6769857406616211 6.6664795875549316 6.3614926338195801
v -6.1407485008239746 6.8005800247192383 6.5561490058898926
v -6.3554263114929199 6.6502723693847656 6.5442619323730469
v -6.4623079299926758 6.8167867660522461 6.3733797073364258
v -6.2476301193237305 6.9670939445495605 6.3852667808532715
v -4.2362737655639648 5.2790975570678711 3.8314580917358398
v -4.3469662666320801 5.4493818283081055 3.6667475700378418
v -4.7665600776672363 4.7156410217285156 3.6115880012512207
v -4.8772525787353516 4.8859257698059082 3.4468774795532227
v -4.4130358695983887 5.0912785530090332 3.7581682205200195
v -4.5897979736328125 4.9034600257873535 3.6848781108856201
v -4.7004904747009277 5.0737442970275879 3.5201675891876221
v -4.5237283706665039 5.2615633010864258 3.5934576988220215
v -5.9260711669921875 6.9508872032165527 6.5680356025695801
v -5.0811724662780762 6.1149921417236328 5.1997470855712891
v -4.2362737655639648 5.2790975570678711 3.8314580917358398
v -5.3747520446777344 5.8613977432250977 5.1358642578125
v -6.5701041221618652 6.4999651908874512 6.5323748588562012
v -4.7665600776672363 4.7156410217285156 3.6115880012512207
v -6.1407485008239746 6.8005800247192383 6.5561490058898926
v -6.3554263114929199 6.6502723693847656 6.5442619323730469
v -5.8114199638366699 6.2934122085571289 5.8430347442626953
v -5.2279620170593262 5.9881949424743652 5.1678056716918945
v -5.5036215782165527 6.5329399108886719 5.8838915824890137
v -5.6575207710266113 6.4131760597229004 5.8634629249572754
v -5.5215420722961426 5.7346005439758301 5.1039228439331055
v -5.9653191566467285 6.1736483573913574 5.8226065635681152
v -4.5897979736328125 4.9034600257873535 3.6848781108856201
v -4.4130358695983887 5.0912785530090332 3.7581682205200195
v -4.938084602355957 5.4293832778930664 4.4286937713623047
v -5.0777654647827148 5.2955527305603027 4.3852391242980957
v -4.6587228775024414 5.697044849395752 4.5156025886535645
v -4.7984037399291992 5.5632143020629883 4.4721479415893555
v -6.3124551773071289 6.2450618743896484 6.1151199340820313
v -6.0548057556152344 5.9901585578918457 5.6978645324707031
v -5.797156810760498 5.7352547645568848 5.280609130859375
v -5.5395073890686035 5.480351448059082 4.8633537292480469
v -5.2818584442138672 5.2254481315612793 4.446098804473877
v -5.0242094993591309 4.9705448150634766 4.0288434028625488
v -6.5701041221618652 6.4999651908874512 6.5323748588562012
v -4.7665600776672363 4.7156410217285156 3.6115880012512207
v -6.6769857406616211 6.6664795875549316 6.3614926338195801
v -4.8772525787353516 4.8859257698059082 3.4468774795532227
v -5.0242094993591309 4.9705448150634766 4.0288434028625488
v -5.2818584442138672 5.2254481315612793 4.446098804473877
v -5.5395073890686035 5.480351448059082 4.8633537292480469
v -5.797156810760498 5.7352547645568848 5.280609130859375
v -6.0548057556152344 5.9901585578918457 5.6978645324707031
v -6.3124551773071289 6.2450618743896484 6.1151199340820313
v -6.4198808670043945 6.4121146202087402 5.9451193809509277
v -6.1627764701843262 6.157750129699707 5.5287456512451172
v -5.9056715965270996 5.9033851623535156 5.1123719215393066
v -5.648566722869873 5.6490201950073242 4.6959981918334961
v -5.3914618492126465 5.3946552276611328 4.2796249389648438
v -5.1343574523925781 5.1402907371520996 3.8632512092590332
v -6.2632169723510742 6.2267346382141113 5.8633937835693359
v -5.5425620079040527 5.5137591361999512 4.6963133811950684
v -5.1822342872619629 5.1572713851928711 4.1127729415893555
v -6.6769857406616211 6.6664795875549316 6.3614926338195801
v -4.8772525787353516 4.8859257698059082 3.4468774795532227
v -6.0329523086547852 7.1174015998840332 6.397153377532959
v -5.1899595260620117 6.2833919525146484 5.0319504737854004
v -4.3469662666320801 5.4493818283081055 3.6667475700378418
v -6.4623079299926758 6.8167867660522461 6.3733797073364258
v -6.2476301193237305 6.9670939445495605 6.3852667808532715
v -5.6114559173583984 6.7003965377807617 5.7145519256591797
v -4.5237283706665039 5.2615633010864258 3.5934576988220215
v -4.7004904747009277 5.0737442970275879 3.5201675891876221
v -5.1343574523925781 5.1402907371520996 3.8632512092590332
v -5.3914618492126465 5.3946552276611328 4.2796249389648438
v -5.648566722869873 5.6490201950073242 4.6959981918334961
v -5.9056715965270996 5.9033851623535156 5.1123719215393066
v -6.1627764701843262 6.157750129699707 5.5287456512451172
v -6.4198808670043945 6.4121146202087402 5.9451193809509277
v -4.7684626579284668 5.866386890411377 4.3493490219116211
v -6.0329523086547852 7.1174015998840332 6.397153377532959
v -4.3469662666320801 5.4493818283081055 3.6667475700378418
v -5.9260711669921875 6.9508872032165527 6.5680356025695801
v -4.2362737655639648 5.2790975570678711 3.8314580917358398
v -5.5036215782165527 6.5329399108886719 5.8838915824890137
v -5.0811724662780762 6.1149921417236328 5.1997470855712891
v -4.6587228775024414 5.697044849395752 4.5156025886535645
v -4.7684626579284668 5.866386890411377 4.3493490219116211
v -5.1899595260620117 6.2833919525146484 5.0319504737854004
v -5.6114559173583984 6.7003965377807617 5.7145519256591797
vt 0.11908336728811264 0
vt 0.11908336728811264 0.059529569000005722
vt 0.29828333854675293 0
vt 0.29828333854675293 0.059529569000005722
vt 0.17881669104099274 0
vt 0.23855002224445343 0
vt 0.23855002224445343 0.059529569000005722
vt 0.17881669104099274 0.059529569000005722
vt 0.11908336728811264 0.10803955048322678
vt 0.11908336728811264 0.1675812304019928
vt 0.30223935842514038 0.10803955048322678
vt 0.30223935842514038 0.1675812304019928
vt 0.18013536930084229 0.10803955048322678
vt 0.24118736386299133 0.10803955048322678
vt 0.24118736386299133 0.1675812304019928
vt 0.18013536930084229 0.1675812304019928
vt 0.99853515625 0.54850888252258301
vt 0.55880928039550781 0.54850888252258301
vt 0.11908336728811264 0.54850888252258301
vt 0.55880928039550781 0.640086829662323
vt 0.99853515625 0.73166483640670776
vt 0.11908336728811264 0.73166483640670776
vt 0.99853515625 0.60956084728240967
vt 0.99853515625 0.6706128716468811
vt 0.77867221832275391 0.640086829662323
vt 0.55880928039550781 0.59429788589477539
vt 0.77867221832275391 0.54850888252258301
vt 0.77867221832275391 0.59429788589477539
vt 0.55880928039550781 0.68587583303451538
vt 0.77867221832275391 0.68587583303451538
vt 0.11908336728811264 0.6706128716468811
vt 0.11908336728811264 0.60956084728240967
vt 0.33894631266593933 0.640086829662323
vt 0.33894631266593933 0.68587583303451538
vt 0.33894631266593933 0.54850888252258301
vt 0.33894631266593933 0.59429788589477539
vt 0.87289917469024658 0.73166483640670776
vt 0.74726319313049316 0.73166483640670776
vt 0.62162727117538452 0.73166483640670776
vt 0.49599125981330872 0.73166483640670776
vt 0.3703552782535553 0.73166483640670776
vt 0.24471932649612427 0.73166483640670776
vt 0.05954168364405632 0
vt 0.05954168364405632 0.87945181131362915
vt 0.11761852353811264 0
vt 0.11761852353811264 0.87945181131362915
vt 0.05954168364405632 0.75381582975387573
vt 0.05954168364405632 0.62817984819412231
vt 0.05954168364405632 0.50254392623901367
vt 0.05954168364405632 0.37690791487693787
vt 0.05954168364405632 0.25127196311950684
vt 0.05954168364405632 0.12563598155975342
vt 0.11761852353811264 0.12563598155975342
vt 0.11761852353811264 0.25127196311950684
vt 0.11761852353811264 0.37690791487693787
vt 0.11761852353811264 0.50254392623901367
vt 0.11761852353811264 0.62817984819412231
vt 0.11761852353811264 0.75381582975387573
vt 0.088580101728439331 0.17589035630226135
vt 0.088580101728439331 0.52767109870910645
vt 0.088580101728439331 0.70356142520904541
vt 0.99813860654830933 0.21610109508037567
vt 0.11908336728811264 0.21610109508037567
vt 0.99813860654830933 0.39925709366798401
vt 0.55861097574234009 0.39925709366798401
vt 0.11908336728811264 0.39925709366798401
vt 0.99813860654830933 0.27715307474136353
vt 0.99813860654830933 0.33820509910583496
vt 0.77837479114532471 0.39925709366798401
vt 0.11908336728811264 0.33820509910583496
vt 0.11908336728811264 0.27715307474136353
vt 0.24466267228126526 0.21610109508037567
vt 0.37024199962615967 0.21610109508037567
vt 0.49582129716873169 0.21610109508037567
vt 0.62140065431594849 0.21610109508037567
vt 0.74697995185852051 0.21610109508037567
vt 0.8725593090057373 0.21610109508037567
vt 0.33884719014167786 0.39925709366798401
vt 0 0
vt 0 0.82535862922668457
vt 0.05807683989405632 0
vt 0.05807683989405632 0.82535862922668457
vt 0.05807683989405632 0.20633965730667114
vt 0.05807683989405632 0.41267931461334229
vt 0.05807683989405632 0.61901897192001343
vt 0 0.61901897192001343
vt 0 0.41267931461334229
vt 0 0.20633965730667114
vn -0.40335410833358765 0.51635092496871948 0.75543838739395142
vn -0.40335410833358765 0.51635092496871948 0.75543838739395142
vn -0.40335410833358765 0.51635092496871948 0.75543838739395142
vn -0.40335410833358765 0.51635092496871948 0.75543838739395142
vn -0.40335410833358765 0.51635092496871948 0.75543838739395142
vn -0.40335410833358765 0.51635092496871948 0.75543838739395142
vn -0.40335410833358765 0.51635092496871948 0.75543838739395142
vn -0.40335410833358765 0.51635092496871948 0.75543838739395142
vn 0.61922860145568848 -0.29954466223716736 -0.7258298397064209
vn 0.61922860145568848 -0.29954466223716736 -0.7258298397064209
vn 0.61922860145568848 -0.29954466223716736 -0.7258298397064209
vn 0.61922860145568848 -0.29954466223716736 -0.7258298397064209
vn 0.61922860145568848 -0.29954466223716736 -0.7258298397064209
vn 0.61922860145568848 -0.29954466223716736 -0.7258298397064209
vn 0.61922860145568848 -0.29954466223716736 -0.7258298397064209
vn 0.61922860145568848 -0.29954466223716736 -0.7258298397064209
vn 0.41308805346488953 -0.64114481210708618 0.6467546820640564
vn 0.41308805346488953 -0.64114481210708618 0.6467546820640564
vn 0.41308805346488953 -0.64114481210708618 0.6467546820640564
vn 0.41308805346488953 -0.64114481210708618 0.6467546820640564
vn 0.41308805346488953 -0.64114481210708618 0.6467546820640564
vn 0.41308805346488953 -0.64114481210708618 0.6467546820640564
vn 0.41308805346488953 -0.64114481210708618 0.6467546820640564
vn 0.41308805346488953 -0.64114481210708618 0.6467546820640564
vn 0.41308805346488953 -0.64114481210708618 0.6467546820640564
vn 0.41308805346488953 -0.64114481210708618 0.6467546820640564
vn 0.41308805346488953 -0.64114481210708618 0.6467546820640564
vn 0.41308805346488953 -0.64114481210708618 0.6467546820640564
vn 0.41308805346488953 -0.64114481210708618 0.6467546820640564
vn 0.41308805346488953 -0.64114481210708618 0.6467546820640564
vn 0.41308805346488953 -0.64114481210708618 0.6467546820640564
vn 0.41308805346488953 -0.64114481210708618 0.6467546820640564
vn 0.41308805346488953 -0.64114481210708618 0.6467546820640564
vn 0.41308805346488953 -0.64114481210708618 0.6467546820640564
vn 0.41308805346488953 -0.64114481210708618 0.6467546820640564
vn 0.41308805346488953 -0.64114481210708618 0.6467546820640564
vn 0.41308805346488953 -0.64114481210708618 0.6467546820640564
vn 0.41308805346488953 -0.64114481210708618 0.6467546820640564
vn 0.41308805346488953 -0.64114481210708618 0.6467546820640564
vn 0.41308805346488953 -0.64114481210708618 0.6467546820640564
vn 0.41308805346488953 -0.64114481210708618 0.6467546820640564
vn 0.41308805346488953 -0.64114481210708618 0.6467546820640564
vn -0.78232806921005249 -0.61336725950241089 -0.10836701840162277
vn -0.78232806921005249 -0.61336725950241089 -0.10836701840162277
vn -0.78232806921005249 -0.61336725950241089 -0.10836701840162277
vn -0.78232806921005249 -0.61336725950241089 -0.10836701840162277
vn -0.78232806921005249 -0.61336725950241089 -0.10836701840162277
vn -0.78232806921005249 -0.61336725950241089 -0.10836701840162277
vn -0.78232806921005249 -0.61336725950241089 -0.10836701840162277
vn -0.78232806921005249 -0.61336725950241089 -0.10836701840162277
vn -0.78232806921005249 -0.61336725950241089 -0.10836701840162277
vn -0.78232806921005249 -0.61336725950241089 -0.10836701840162277
vn -0.78232806921005249 -0.61336725950241089 -0.10836701840162277
vn -0.78232806921005249 -0.61336725950241089 -0.10836701840162277
vn -0.78232806921005249 -0.61336725950241089 -0.10836701840162277
vn -0.78232806921005249 -0.61336725950241089 -0.10836701840162277
vn -0.78232806921005249 -0.61336725950241089 -0.10836701840162277
vn -0.78232806921005249 -0.61336725950241089 -0.10836701840162277
vn -0.78232806921005249 -0.61336725950241089 -0.10836701840162277
vn -0.78232806921005249 -0.61336725950241089 -0.10836701840162277
vn -0.78232806921005249 -0.61336725950241089 -0.10836701840162277
vn -0.41308805346488953 0.64114481210708618 -0.6467546820640564
vn -0.41308805346488953 0.64114481210708618 -0.6467546820640564
vn -0.41308805346488953 0.64114481210708618 -0.6467546820640564
vn -0.41308805346488953 0.64114481210708618 -0.6467546820640564
vn -0.41308805346488953 0.64114481210708618 -0.6467546820640564
vn -0.41308805346488953 0.64114481210708618 -0.6467546820640564
vn -0.41308805346488953 0.64114481210708618 -0.6467546820640564
vn -0.41308805346488953 0.64114481210708618 -0.6467546820640564
vn -0.41308805346488953 0.64114481210708618 -0.6467546820640564
vn -0.41308805346488953 0.64114481210708618 -0.6467546820640564
vn -0.41308805346488953 0.64114481210708618 -0.6467546820640564
vn -0.41308805346488953 0.64114481210708618 -0.6467546820640564
vn -0.41308805346488953 0.64114481210708618 -0.6467546820640564
vn -0.41308805346488953 0.64114481210708618 -0.6467546820640564
vn -0.41308805346488953 0.64114481210708618 -0.6467546820640564
vn -0.41308805346488953 0.64114481210708618 -0.6467546820640564
vn -0.41308805346488953 0.64114481210708618 -0.6467546820640564
vn 0.78232806921005249 0.61336725950241089 0.10836701840162277
vn 0.78232806921005249 0.61336725950241089 0.10836701840162277
vn 0.78232806921005249 0.61336725950241089 0.10836701840162277
vn 0.78232806921005249 0.61336725950241089 0.10836701840162277
vn 0.78232806921005249 0.61336725950241089 0.10836701840162277
vn 0.78232806921005249 0.61336725950241089 0.10836701840162277
vn 0.78232806921005249 0.61336725950241089 0.10836701840162277
vn 0.78232806921005249 0.61336725950241089 0.10836701840162277
vn 0.78232806921005249 0.61336725950241089 0.10836701840162277
vn 0.78232806921005249 0.61336725950241089 0.10836701840162277
f 1/1/1 2/2/2 8/8/8 7/7/7 4/4/4 3/3/3 6/6/6 5/5/5
f 9/9/9 13/13/13 14/14/14 11/11/11 12/12/12 15/15/15 16/16/16 10/10/10
f 18/18/18 27/27/27 17/17/17 23/23/23 24/24/24 21/21/21 37/37/37 38/38/38 39/39/39 40/40/40 41/41/41 42/42/42 22/22/22 31/31/31 32/32/32 19/19/19 35/35/35
f 52/52/52 43/43/43 45/45/45 53/53/53 54/54/54 55/55/55 56/56/56 57/57/57 58/58/58 46/46/46 44/44/44 47/47/47 48/48/48 49/49/49 50/50/50 51/51/51
f 77/77/77 62/62/62 67/67/67 68/68/68 64/64/64 69/69/69 65/65/65 78/78/78 66/66/66 70/70/70 71/71/71 63/63/63 72/72/72 73/73/73 74/74/74 75/75/75 76/76/76
f 88/88/88 79/79/79 81/81/81 83/83/83 84/84/84 85/85/85 82/82/82 80/80/80 86/86/86 87/87/87
