# Rhino

mtllib 47.mtl
usemtl diffuse_White
v -6.4618439674377441 8.0770845413208008 7.6736340522766113
v -6.4140505790710449 7.8711223602294922 7.8384585380554199
v -7.2027769088745117 7.8365659713745117 7.5800356864929199
v -7.1549839973449707 7.6306042671203613 7.7448601722717285
v -6.8323101997375488 7.9568252563476563 7.6268348693847656
v -6.7845172882080078 7.7508630752563477 7.7916593551635742
v -5.9848442077636719 7.0779714584350586 6.7958555221557617
v -5.9374375343322754 6.8728189468383789 6.9613914489746094
v -6.6896185874938965 6.7617154121398926 6.6357169151306152
v -6.6422119140625 6.5565629005432129 6.8012533187866211
v -6.3372316360473633 6.9198431968688965 6.7157859802246094
v -6.2898249626159668 6.714691162109375 6.8813223838806152
v -6.4618439674377441 8.0770845413208008 7.6736340522766113
v -5.9848442077636719 7.0779714584350586 6.7958555221557617
v -7.2027769088745117 7.8365659713745117 7.5800356864929199
v -6.6896185874938965 6.7617154121398926 6.6357169151306152
v -6.8323101997375488 7.9568252563476563 7.6268348693847656
v -6.3372316360473633 6.9198431968688965 6.7157859802246094
v -6.9461979866027832 7.2991409301757813 7.1078763008117676
v -6.2233443260192871 7.5775279998779297 7.2347445487976074
v -7.2027769088745117 7.8365659713745117 7.5800356864929199
v -6.6896185874938965 6.7617154121398926 6.6357169151306152
v -7.1549839973449707 7.6306042671203613 7.7448601722717285
v -6.6422119140625 6.5565629005432129 6.8012533187866211
v -6.9461979866027832 7.2991409301757813 7.1078763008117676
v -6.8985977172851563 7.0935835838317871 7.2730565071105957
v -7.1549839973449707 7.6306042671203613 7.7448601722717285
v -6.6422119140625 6.5565629005432129 6.8012533187866211
v -6.4140505790710449 7.8711223602294922 7.8384585380554199
v -5.9374375343322754 6.8728189468383789 6.9613914489746094
v -6.7845172882080078 7.7508630752563477 7.7916593551635742
v -6.2898249626159668 6.714691162109375 6.8813223838806152
v -6.8985977172851563 7.0935835838317871 7.2730565071105957
v -6.1757440567016602 7.3719706535339355 7.3999247550964355
v -6.4140505790710449 7.8711223602294922 7.8384585380554199
v -5.9374375343322754 6.8728189468383789 6.9613914489746094
v -6.4618439674377441 8.0770845413208008 7.6736340522766113
v -5.9848442077636719 7.0779714584350586 6.7958555221557617
v -6.2233443260192871 7.5775279998779297 7.2347445487976074
v -6.1757440567016602 7.3719706535339355 7.3999247550964355
vt 0.25366389751434326 0
vt 0.25366389751434326 0.12536710500717163
vt 0.62485373020172119 0
vt 0.62485373020172119 0.12536710500717163
vt 0.43925881385803223 0
vt 0.43925881385803223 0.12536710500717163
vt 0.25366389751434326 0.12683194875717163
vt 0.25366389751434326 0.25208017230033875
vt 0.6268913745880127 0.12683194875717163
vt 0.6268913745880127 0.25208017230033875
vt 0.44027763605117798 0.12683194875717163
vt 0.44027763605117798 0.25208017230033875
vt 0.9713016152381897 0.62677252292633057
vt 0.25366389751434326 0.62677252292633057
vt 0.9713016152381897 0.99853515625
vt 0.25366389751434326 0.99853515625
vt 0.9713016152381897 0.81265383958816528
vt 0.25366389751434326 0.81265383958816528
vt 0.61248272657394409 0.99853515625
vt 0.61248272657394409 0.62677252292633057
vt 0.12683194875717163 0
vt 0.12683194875717163 0.71910256147384644
vt 0.25219905376434326 0
vt 0.25219905376434326 0.71910256147384644
vt 0.12683194875717163 0.35955128073692322
vt 0.25219905376434326 0.35955128073692322
vt 0.9713016152381897 0.25354501605033875
vt 0.25366389751434326 0.25354501605033875
vt 0.9713016152381897 0.62530767917633057
vt 0.25366389751434326 0.62530767917633057
vt 0.9713016152381897 0.43942633271217346
vt 0.25366389751434326 0.43942633271217346
vt 0.61248272657394409 0.25354501605033875
vt 0.61248272657394409 0.62530767917633057
vt 0 0
vt 0 0.66843205690383911
vt 0.12536710500717163 0
vt 0.12536710500717163 0.66843205690383911
vt 0.12536710500717163 0.33421602845191956
vt 0 0.33421602845191956
vn -0.28012573719024658 0.55934196710586548 0.78017061948776245
vn -0.28012573719024658 0.55934196710586548 0.78017061948776245
vn -0.28012573719024658 0.55934196710586548 0.78017061948776245
vn -0.28012573719024658 0.55934196710586548 0.78017061948776245
vn -0.28012573719024658 0.55934196710586548 0.78017061948776245
vn -0.28012573719024658 0.55934196710586548 0.78017061948776245
vn 0.40335410833358765 -0.51635092496871948 -0.75543838739395142
vn 0.40335410833358765 -0.51635092496871948 -0.75543838739395142
vn 0.40335410833358765 -0.51635092496871948 -0.75543838739395142
vn 0.40335410833358765 -0.51635092496871948 -0.75543838739395142
vn 0.40335410833358765 -0.51635092496871948 -0.75543838739395142
vn 0.40335410833358765 -0.51635092496871948 -0.75543838739395142
vn -0.10613221675157547 0.62721121311187744 -0.77158409357070923
vn -0.10613221675157547 0.62721121311187744 -0.77158409357070923
vn -0.10613221675157547 0.62721121311187744 -0.77158409357070923
vn -0.10613221675157547 0.62721121311187744 -0.77158409357070923
vn -0.10613221675157547 0.62721121311187744 -0.77158409357070923
vn -0.10613221675157547 0.62721121311187744 -0.77158409357070923
vn -0.10613221675157547 0.62721121311187744 -0.77158409357070923
vn -0.10613221675157547 0.62721121311187744 -0.77158409357070923
vn -0.93528497219085693 -0.3264278769493103 -0.13669975101947784
vn -0.93528497219085693 -0.3264278769493103 -0.13669975101947784
vn -0.93528497219085693 -0.3264278769493103 -0.13669975101947784
vn -0.93528497219085693 -0.3264278769493103 -0.13669975101947784
vn -0.93528497219085693 -0.3264278769493103 -0.13669975101947784
vn -0.93528497219085693 -0.3264278769493103 -0.13669975101947784
vn 0.10613221675157547 -0.62721121311187744 0.77158409357070923
vn 0.10613221675157547 -0.62721121311187744 0.77158409357070923
vn 0.10613221675157547 -0.62721121311187744 0.77158409357070923
vn 0.10613221675157547 -0.62721121311187744 0.77158409357070923
vn 0.10613221675157547 -0.62721121311187744 0.77158409357070923
vn 0.10613221675157547 -0.62721121311187744 0.77158409357070923
vn 0.10613221675157547 -0.62721121311187744 0.77158409357070923
vn 0.10613221675157547 -0.62721121311187744 0.77158409357070923
vn 0.93528497219085693 0.3264278769493103 0.13669975101947784
vn 0.93528497219085693 0.3264278769493103 0.13669975101947784
vn 0.93528497219085693 0.3264278769493103 0.13669975101947784
vn 0.93528497219085693 0.3264278769493103 0.13669975101947784
vn 0.93528497219085693 0.3264278769493103 0.13669975101947784
vn 0.93528497219085693 0.3264278769493103 0.13669975101947784
f 6/6/6 2/2/2 1/1/1 5/5/5 3/3/3 4/4/4
f 7/7/7 8/8/8 12/12/12 10/10/10 9/9/9 11/11/11
f 20/20/20 14/14/14 18/18/18 16/16/16 19/19/19 15/15/15 17/17/17 13/13/13
f 26/26/26 23/23/23 21/21/21 25/25/25 22/22/22 24/24/24
f 32/32/32 30/30/30 34/34/34 29/29/29 31/31/31 27/27/27 33/33/33 28/28/28
f 39/39/39 37/37/37 35/35/35 40/40/40 36/36/36 38/38/38
