# Rhino

mtllib 49.mtl
usemtl diffuse_White
v -6.370147705078125 6.720059871673584 9.0145673751831055
v -6.2942743301391602 6.551276683807373 8.8277263641357422
v -7.1197638511657715 6.5331864356994629 8.8793916702270508
v -7.0438904762268066 6.364403247833252 8.6925497055053711
v -6.6200199127197266 6.657768726348877 8.9695091247558594
v -6.8698916435241699 6.5954775810241699 8.9244499206542969
v -6.7940187454223633 6.426694393157959 8.7376079559326172
v -6.5441465377807617 6.488985538482666 8.7826671600341797
v -6.5262532234191895 8.0537385940551758 8.0023384094238281
v -6.4474902153015137 7.860267162322998 7.8342342376708984
v -7.2695026397705078 7.8124685287475586 7.9084477424621582
v -7.190739631652832 7.6189970970153809 7.7403435707092285
v -6.8978776931762695 7.9331035614013672 7.9553933143615723
v -6.8191146850585938 7.7396321296691895 7.7872886657714844
v -6.370147705078125 6.720059871673584 9.0145673751831055
v -6.5262532234191895 8.0537385940551758 8.0023384094238281
v -6.8978776931762695 7.9331035614013672 7.9553933143615723
v -7.1197638511657715 6.5331864356994629 8.8793916702270508
v -7.2695026397705078 7.8124685287475586 7.9084477424621582
v -6.6200199127197266 6.657768726348877 8.9695091247558594
v -6.8698916435241699 6.5954775810241699 8.9244499206542969
v -7.1696767807006836 6.9596138000488281 8.5557432174682617
v -7.2195897102355957 7.3860411643981934 8.2320957183837891
v -6.4742178916931152 7.6091790199279785 8.3397483825683594
v -6.4221830368041992 7.1646194458007813 8.6771583557128906
v -7.1197638511657715 6.5331864356994629 8.8793916702270508
v -7.2695026397705078 7.8124685287475586 7.9084477424621582
v -7.0438904762268066 6.364403247833252 8.6925497055053711
v -7.190739631652832 7.6189970970153809 7.7403435707092285
v -7.2195897102355957 7.3860411643981934 8.2320957183837891
v -7.1696767807006836 6.9596138000488281 8.5557432174682617
v -7.0928401947021484 6.7826013565063477 8.375147819519043
v -7.1417899131774902 7.2007994651794434 8.0577449798583984
v -7.0438904762268066 6.364403247833252 8.6925497055053711
v -7.190739631652832 7.6189970970153809 7.7403435707092285
v -6.2942743301391602 6.551276683807373 8.8277263641357422
v -6.4474902153015137 7.860267162322998 7.8342342376708984
v -6.7940187454223633 6.426694393157959 8.7376079559326172
v -6.5441465377807617 6.488985538482666 8.7826671600341797
v -6.8191146850585938 7.7396321296691895 7.7872886657714844
v -7.1417899131774902 7.2007994651794434 8.0577449798583984
v -7.0928401947021484 6.7826013565063477 8.375147819519043
v -6.3453464508056641 6.9876070022583008 8.4965620040893555
v -6.3964180946350098 7.4239373207092285 8.1653976440429688
v -6.2942743301391602 6.551276683807373 8.8277263641357422
v -6.4474902153015137 7.860267162322998 7.8342342376708984
v -6.370147705078125 6.720059871673584 9.0145673751831055
v -6.5262532234191895 8.0537385940551758 8.0023384094238281
v -6.4221830368041992 7.1646194458007813 8.6771583557128906
v -6.4742178916931152 7.6091790199279785 8.3397483825683594
v -6.3964180946350098 7.4239373207092285 8.1653976440429688
v -6.3453464508056641 6.9876070022583008 8.4965620040893555
vt 0 0
vt 0 0.11907926201820374
vt 0.35931128263473511 0
vt 0.35931128263473511 0.11907926201820374
vt 0.11977043002843857 0
vt 0.23954086005687714 0
vt 0.23954086005687714 0.11907926201820374
vt 0.11977043002843857 0.11907926201820374
vt 0 0.12054410576820374
vt 0 0.2419876903295517
vt 0.35931128263473511 0.12054410576820374
vt 0.35931128263473511 0.2419876903295517
vt 0.17965564131736755 0.12054410576820374
vt 0.17965564131736755 0.2419876903295517
vt 0.36077612638473511 0
vt 0.36077612638473511 0.7708161473274231
vt 0.54043173789978027 0.7708161473274231
vt 0.72008740901947021 0
vt 0.72008740901947021 0.7708161473274231
vt 0.48054656386375427 0
vt 0.60031700134277344 0
vt 0.72008740901947021 0.25693872570991516
vt 0.72008740901947021 0.51387745141983032
vt 0.36077612638473511 0.51387745141983032
vt 0.36077612638473511 0.25693872570991516
vt 0.72155225276947021 0
vt 0.72155225276947021 0.73937696218490601
vt 0.84299582242965698 0
vt 0.84299582242965698 0.73937696218490601
vt 0.72155225276947021 0.4929179847240448
vt 0.72155225276947021 0.2464589923620224
vt 0.84299582242965698 0.2464589923620224
vt 0.84299582242965698 0.4929179847240448
vt 0 0.2434525340795517
vt 0 0.99853515625
vt 0.35931128263473511 0.2434525340795517
vt 0.35931128263473511 0.99853515625
vt 0.11977043002843857 0.2434525340795517
vt 0.23954086005687714 0.2434525340795517
vt 0.17965564131736755 0.99853515625
vt 0 0.7468409538269043
vt 0 0.49514675140380859
vt 0.35931128263473511 0.49514675140380859
vt 0.35931128263473511 0.7468409538269043
vt 0.84446066617965698 0
vt 0.84446066617965698 0.7708161473274231
vt 0.96590423583984375 0
vt 0.96590423583984375 0.7708161473274231
vt 0.96590423583984375 0.25693872570991516
vt 0.96590423583984375 0.51387745141983032
vt 0.84446066617965698 0.51387745141983032
vt 0.84446066617965698 0.25693872570991516
vn 0.058668427169322968 -0.72881221771240234 0.68219554424285889
vn 0.058668427169322968 -0.72881221771240234 0.68219554424285889
vn 0.058668427169322968 -0.72881221771240234 0.68219554424285889
vn 0.058668427169322968 -0.72881221771240234 0.68219554424285889
vn 0.058668427169322968 -0.72881221771240234 0.68219554424285889
vn 0.058668427169322968 -0.72881221771240234 0.68219554424285889
vn 0.058668427169322968 -0.72881221771240234 0.68219554424285889
vn 0.058668427169322968 -0.72881221771240234 0.68219554424285889
vn -0.10613221675157547 0.62721121311187744 -0.77158409357070923
vn -0.10613221675157547 0.62721121311187744 -0.77158409357070923
vn -0.10613221675157547 0.62721121311187744 -0.77158409357070923
vn -0.10613221675157547 0.62721121311187744 -0.77158409357070923
vn -0.10613221675157547 0.62721121311187744 -0.77158409357070923
vn -0.10613221675157547 0.62721121311187744 -0.77158409357070923
vn -0.28012573719024658 0.55934196710586548 0.78017061948776245
vn -0.28012573719024658 0.55934196710586548 0.78017061948776245
vn -0.28012573719024658 0.55934196710586548 0.78017061948776245
vn -0.28012573719024658 0.55934196710586548 0.78017061948776245
vn -0.28012573719024658 0.55934196710586548 0.78017061948776245
vn -0.28012573719024658 0.55934196710586548 0.78017061948776245
vn -0.28012573719024658 0.55934196710586548 0.78017061948776245
vn -0.28012573719024658 0.55934196710586548 0.78017061948776245
vn -0.28012573719024658 0.55934196710586548 0.78017061948776245
vn -0.28012573719024658 0.55934196710586548 0.78017061948776245
vn -0.28012573719024658 0.55934196710586548 0.78017061948776245
vn -0.95546406507492065 -0.24104893207550049 -0.17024648189544678
vn -0.95546406507492065 -0.24104893207550049 -0.17024648189544678
vn -0.95546406507492065 -0.24104893207550049 -0.17024648189544678
vn -0.95546406507492065 -0.24104893207550049 -0.17024648189544678
vn -0.95546406507492065 -0.24104893207550049 -0.17024648189544678
vn -0.95546406507492065 -0.24104893207550049 -0.17024648189544678
vn -0.95546406507492065 -0.24104893207550049 -0.17024648189544678
vn -0.95546406507492065 -0.24104893207550049 -0.17024648189544678
vn 0.28012573719024658 -0.55934196710586548 -0.78017061948776245
vn 0.28012573719024658 -0.55934196710586548 -0.78017061948776245
vn 0.28012573719024658 -0.55934196710586548 -0.78017061948776245
vn 0.28012573719024658 -0.55934196710586548 -0.78017061948776245
vn 0.28012573719024658 -0.55934196710586548 -0.78017061948776245
vn 0.28012573719024658 -0.55934196710586548 -0.78017061948776245
vn 0.28012573719024658 -0.55934196710586548 -0.78017061948776245
vn 0.28012573719024658 -0.55934196710586548 -0.78017061948776245
vn 0.28012573719024658 -0.55934196710586548 -0.78017061948776245
vn 0.28012573719024658 -0.55934196710586548 -0.78017061948776245
vn 0.28012573719024658 -0.55934196710586548 -0.78017061948776245
vn 0.95546406507492065 0.24104893207550049 0.17024648189544678
vn 0.95546406507492065 0.24104893207550049 0.17024648189544678
vn 0.95546406507492065 0.24104893207550049 0.17024648189544678
vn 0.95546406507492065 0.24104893207550049 0.17024648189544678
vn 0.95546406507492065 0.24104893207550049 0.17024648189544678
vn 0.95546406507492065 0.24104893207550049 0.17024648189544678
vn 0.95546406507492065 0.24104893207550049 0.17024648189544678
vn 0.95546406507492065 0.24104893207550049 0.17024648189544678
f 1/1/1 5/5/5 6/6/6 3/3/3 4/4/4 7/7/7 8/8/8 2/2/2
f 9/9/9 10/10/10 14/14/14 12/12/12 11/11/11 13/13/13
f 20/20/20 15/15/15 25/25/25 24/24/24 16/16/16 17/17/17 19/19/19 23/23/23 22/22/22 18/18/18 21/21/21
f 32/32/32 28/28/28 26/26/26 31/31/31 30/30/30 27/27/27 29/29/29 33/33/33
f 38/38/38 34/34/34 42/42/42 41/41/41 35/35/35 40/40/40 37/37/37 44/44/44 43/43/43 36/36/36 39/39/39
f 49/49/49 47/47/47 45/45/45 52/52/52 51/51/51 46/46/46 48/48/48 50/50/50
