# Rhino

mtllib 5.mtl
usemtl diffuse_White
v -1.1490705013275146 1.4828313589096069 -3.9284176826477051
v -1.2866979837417603 1.3060015439987183 -3.7919862270355225
v -1.8119357824325562 1.7031395435333252 -4.2967748641967773
v -1.9495632648468018 1.526309609413147 -4.1603436470031738
v -1.3700255155563354 1.5562673807144165 -4.0512032508850098
v -1.5909806489944458 1.6297035217285156 -4.1739892959594727
v -1.7286081314086914 1.4528735876083374 -4.0375576019287109
v -1.5076531171798706 1.3794375658035278 -3.9147720336914063
v -1.253858208656311 4.1757354736328125 -1.1626499891281128
v -1.391838550567627 4.007972240447998 -1.0169062614440918
v -1.9225814342498779 4.5465841293334961 -1.3763936758041382
v -2.0605616569519043 4.3788208961486816 -1.2306500673294067
v -1.4767659902572632 4.299351692199707 -1.2338979244232178
v -1.6996736526489258 4.4229679107666016 -1.3051458597183228
v -1.8376539945602417 4.2552046775817871 -1.1594021320343018
v -1.6147462129592896 4.1315884590148926 -1.0881541967391968
v -1.1490705013275146 1.4828313589096069 -3.9284176826477051
v -1.2014644145965576 2.8292834758758545 -2.5455338954925537
v -1.253858208656311 4.1757354736328125 -1.1626499891281128
v -1.5343614816665649 2.9770724773406982 -2.6910591125488281
v -1.8119357824325562 1.7031395435333252 -4.2967748641967773
v -1.8672585487365723 3.1248617172241211 -2.8365843296051025
v -1.9225814342498779 4.5465841293334961 -1.3763936758041382
v -1.3700255155563354 1.5562673807144165 -4.0512032508850098
v -1.5909806489944458 1.6297035217285156 -4.1739892959594727
v -1.5074323415756226 2.2850289344787598 -3.4018278121948242
v -1.3679128885269165 2.9031779766082764 -2.6182963848114014
v -1.1752674579620361 2.1560573577880859 -3.2369756698608398
v -1.3413498401641846 2.2205431461334229 -3.319401741027832
v -1.8395971059799194 2.4140005111694336 -3.5666797161102295
v -1.7008099555969238 3.0509672164916992 -2.7638218402862549
v -1.673514723777771 2.3495147228240967 -3.4842536449432373
v -1.6996736526489258 4.4229679107666016 -1.3051458597183228
v -1.4767659902572632 4.299351692199707 -1.2338979244232178
v -1.8949199914932251 3.8357229232788086 -2.1064889430999756
v -1.5612906217575073 3.6691160202026367 -1.9802905321121216
v -1.7281053066253662 3.7524194717407227 -2.0433897972106934
v -1.3944759368896484 3.5858128070831299 -1.9171911478042603
v -1.8257664442062378 2.0585701465606689 -3.931727409362793
v -1.8534278869628906 2.7694311141967773 -3.201632022857666
v -1.8810892105102539 3.4802923202514648 -2.4715366363525391
v -1.9087506532669067 4.1911535263061523 -1.7414413690567017
v -1.2276612520217896 3.5025093555450439 -1.8540918827056885
v -1.8119357824325562 1.7031395435333252 -4.2967748641967773
v -1.8672585487365723 3.1248617172241211 -2.8365843296051025
v -1.9225814342498779 4.5465841293334961 -1.3763936758041382
v -1.9495632648468018 1.526309609413147 -4.1603436470031738
v -2.0605616569519043 4.3788208961486816 -1.2306500673294067
v -1.9087506532669067 4.1911535263061523 -1.7414413690567017
v -1.8949199914932251 3.8357229232788086 -2.1064889430999756
v -1.8810892105102539 3.4802923202514648 -2.4715366363525391
v -1.8534278869628906 2.7694311141967773 -3.201632022857666
v -1.8395971059799194 2.4140005111694336 -3.5666797161102295
v -1.8257664442062378 2.0585701465606689 -3.931727409362793
v -1.9634380340576172 1.88287353515625 -3.7941317558288574
v -1.9773128032684326 2.2394373416900635 -3.4279201030731201
v -1.9911876916885376 2.5960013866424561 -3.0617084503173828
v -2.0050625801086426 2.9525651931762695 -2.6954967975616455
v -2.018937349319458 3.3091292381286621 -2.3292851448059082
v -2.0328121185302734 3.6656930446624756 -1.9630733728408813
v -2.0466868877410889 4.0222568511962891 -1.596861720085144
v -1.8992198705673218 2.0893876552581787 -3.7410531044006348
v -1.9361605644226074 3.0387134552001953 -2.766040563583374
v -1.9546308517456055 3.5133764743804932 -2.2785344123840332
v -1.9731011390686035 3.988039493560791 -1.7910281419754028
v -1.9495632648468018 1.526309609413147 -4.1603436470031738
v -2.0050625801086426 2.9525651931762695 -2.6954967975616455
v -2.0605616569519043 4.3788208961486816 -1.2306500673294067
v -1.6721653938293457 2.8047761917114258 -2.5499715805053711
v -1.2866979837417603 1.3060015439987183 -3.7919862270355225
v -1.391838550567627 4.007972240447998 -1.0169062614440918
v -1.7286081314086914 1.4528735876083374 -4.0375576019287109
v -1.5076531171798706 1.3794375658035278 -3.9147720336914063
v -1.6451480388641357 2.1104657649993896 -3.2630681991577148
v -1.8386138677597046 2.8786706924438477 -2.6227340698242188
v -1.8112304210662842 2.1749515533447266 -3.345494270324707
v -1.5057168006896973 2.7308814525604248 -2.4772088527679443
v -1.4790655374526978 2.0459799766540527 -3.1806421279907227
v -1.6147462129592896 4.1315884590148926 -1.0881541967391968
v -1.8376539945602417 4.2552046775817871 -1.1594021320343018
v -1.3655533790588379 3.33247971534729 -1.7106763124465942
v -1.6991827487945557 3.4990863800048828 -1.8368748426437378
v -1.5323680639266968 3.4157829284667969 -1.773775577545166
v -2.0328121185302734 3.6656930446624756 -1.9630733728408813
v -1.8659974336624146 3.5823898315429688 -1.8999741077423096
v -2.0466868877410889 4.0222568511962891 -1.596861720085144
v -2.018937349319458 3.3091292381286621 -2.3292851448059082
v -1.9911876916885376 2.5960013866424561 -3.0617084503173828
v -1.9773128032684326 2.2394373416900635 -3.4279201030731201
v -1.9634380340576172 1.88287353515625 -3.7941317558288574
v -1.3129831552505493 1.9814941883087158 -3.0982162952423096
v -1.3392682075500488 2.6569869518280029 -2.4044461250305176
v -1.2866979837417603 1.3060015439987183 -3.7919862270355225
v -1.391838550567627 4.007972240447998 -1.0169062614440918
v -1.1490705013275146 1.4828313589096069 -3.9284176826477051
v -1.253858208656311 4.1757354736328125 -1.1626499891281128
v -1.1752674579620361 2.1560573577880859 -3.2369756698608398
v -1.2014644145965576 2.8292834758758545 -2.5455338954925537
v -1.2276612520217896 3.5025093555450439 -1.8540918827056885
v -1.3655533790588379 3.33247971534729 -1.7106763124465942
v -1.3392682075500488 2.6569869518280029 -2.4044461250305176
v -1.3129831552505493 1.9814941883087158 -3.0982162952423096
vt 0.11368657648563385 0
vt 0.11368657648563385 0.056843288242816925
vt 0.28479361534118652 0
vt 0.28479361534118652 0.056843288242816925
vt 0.17072226107120514 0
vt 0.22775793075561523 0
vt 0.22775793075561523 0.056843288242816925
vt 0.17072226107120514 0.056843288242816925
vt 0.11368657648563385 0.11009969562292099
vt 0.11368657648563385 0.16677777469158173
vt 0.28572294116020203 0.11009969562292099
vt 0.28572294116020203 0.16677777469158173
vt 0.17103204131126404 0.11009969562292099
vt 0.22837749123573303 0.11009969562292099
vt 0.22837749123573303 0.16677777469158173
vt 0.17103204131126404 0.16677777469158173
vt 0.99718278646469116 0.2198794037103653
vt 0.5554347038269043 0.2198794037103653
vt 0.11368657648563385 0.2198794037103653
vt 0.5554347038269043 0.30589759349822998
vt 0.99718278646469116 0.39191576838493347
vt 0.5554347038269043 0.39191576838493347
vt 0.11368657648563385 0.39191576838493347
vt 0.99718278646469116 0.27722486853599548
vt 0.99718278646469116 0.33457031846046448
vt 0.77630877494812012 0.30589759349822998
vt 0.5554347038269043 0.26288849115371704
vt 0.77630877494812012 0.2198794037103653
vt 0.77630877494812012 0.26288849115371704
vt 0.77630877494812012 0.39191576838493347
vt 0.5554347038269043 0.34890666604042053
vt 0.77630877494812012 0.34890666604042053
vt 0.11368657648563385 0.33457031846046448
vt 0.11368657648563385 0.27722486853599548
vt 0.33456063270568848 0.39191576838493347
vt 0.33456063270568848 0.30589759349822998
vt 0.33456063270568848 0.34890666604042053
vt 0.33456063270568848 0.26288849115371704
vt 0.88674575090408325 0.39191576838493347
vt 0.66587173938751221 0.39191576838493347
vt 0.44499766826629639 0.39191576838493347
vt 0.22412361204624176 0.39191576838493347
vt 0.33456063270568848 0.2198794037103653
vt 0.056843288242816925 0
vt 0.056843288242816925 0.44242429733276367
vt 0.056843288242816925 0.88484859466552734
vt 0.11222173273563385 0
vt 0.11222173273563385 0.88484859466552734
vt 0.056843288242816925 0.77424252033233643
vt 0.056843288242816925 0.66363644599914551
vt 0.056843288242816925 0.55303037166595459
vt 0.056843288242816925 0.33181822299957275
vt 0.056843288242816925 0.22121214866638184
vt 0.056843288242816925 0.11060607433319092
vt 0.11222173273563385 0.11060607433319092
vt 0.11222173273563385 0.22121214866638184
vt 0.11222173273563385 0.33181822299957275
vt 0.11222173273563385 0.44242429733276367
vt 0.11222173273563385 0.55303037166595459
vt 0.11222173273563385 0.66363644599914551
vt 0.11222173273563385 0.77424252033233643
vt 0.084532514214515686 0.14747476577758789
vt 0.084532514214515686 0.44242429733276367
vt 0.084532514214515686 0.58989906311035156
vt 0.084532514214515686 0.73737376928329468
vt 0.99853515625 0.55309641361236572
vt 0.55611085891723633 0.55309641361236572
vt 0.11368657648563385 0.55309641361236572
vt 0.55611085891723633 0.6391146183013916
vt 0.99853515625 0.72513276338577271
vt 0.11368657648563385 0.72513276338577271
vt 0.99853515625 0.61044186353683472
vt 0.99853515625 0.66778731346130371
vt 0.77732300758361816 0.6391146183013916
vt 0.55611085891723633 0.59610551595687866
vt 0.77732300758361816 0.59610551595687866
vt 0.55611085891723633 0.68212366104125977
vt 0.77732300758361816 0.68212366104125977
vt 0.11368657648563385 0.66778731346130371
vt 0.11368657648563385 0.61044186353683472
vt 0.33489871025085449 0.72513276338577271
vt 0.33489871025085449 0.6391146183013916
vt 0.33489871025085449 0.68212366104125977
vt 0.33489871025085449 0.55309641361236572
vt 0.33489871025085449 0.59610551595687866
vt 0.22429265081882477 0.55309641361236572
vt 0.44550478458404541 0.55309641361236572
vt 0.66671693325042725 0.55309641361236572
vt 0.77732300758361816 0.55309641361236572
vt 0.88792908191680908 0.55309641361236572
vt 0.77732300758361816 0.72513276338577271
vt 0.55611085891723633 0.72513276338577271
vt 0 0
vt 0 0.83953851461410522
vt 0.055378444492816925 0
vt 0.055378444492816925 0.83953851461410522
vt 0.055378444492816925 0.20988462865352631
vt 0.055378444492816925 0.41976925730705261
vt 0.055378444492816925 0.62965387105941772
vt 0 0.62965387105941772
vt 0 0.41976925730705261
vt 0 0.20988462865352631
vn 0.16933579742908478 -0.68126934766769409 -0.71217799186706543
vn 0.16933579742908478 -0.68126934766769409 -0.71217799186706543
vn 0.16933579742908478 -0.68126934766769409 -0.71217799186706543
vn 0.16933579742908478 -0.68126934766769409 -0.71217799186706543
vn 0.16933579742908478 -0.68126934766769409 -0.71217799186706543
vn 0.16933579742908478 -0.68126934766769409 -0.71217799186706543
vn 0.16933579742908478 -0.68126934766769409 -0.71217799186706543
vn 0.16933579742908478 -0.68126934766769409 -0.71217799186706543
vn 0.087586432695388794 0.61127912998199463 0.78655350208282471
vn 0.087586432695388794 0.61127912998199463 0.78655350208282471
vn 0.087586432695388794 0.61127912998199463 0.78655350208282471
vn 0.087586432695388794 0.61127912998199463 0.78655350208282471
vn 0.087586432695388794 0.61127912998199463 0.78655350208282471
vn 0.087586432695388794 0.61127912998199463 0.78655350208282471
vn 0.087586432695388794 0.61127912998199463 0.78655350208282471
vn 0.087586432695388794 0.61127912998199463 0.78655350208282471
vn 0.52871018648147583 0.61807650327682495 -0.58176195621490479
vn 0.52871018648147583 0.61807650327682495 -0.58176195621490479
vn 0.52871018648147583 0.61807650327682495 -0.58176195621490479
vn 0.52871018648147583 0.61807650327682495 -0.58176195621490479
vn 0.52871018648147583 0.61807650327682495 -0.58176195621490479
vn 0.52871018648147583 0.61807650327682495 -0.58176195621490479
vn 0.52871018648147583 0.61807650327682495 -0.58176195621490479
vn 0.52871018648147583 0.61807650327682495 -0.58176195621490479
vn 0.52871018648147583 0.61807650327682495 -0.58176195621490479
vn 0.52871018648147583 0.61807650327682495 -0.58176195621490479
vn 0.52871018648147583 0.61807650327682495 -0.58176195621490479
vn 0.52871018648147583 0.61807650327682495 -0.58176195621490479
vn 0.52871018648147583 0.61807650327682495 -0.58176195621490479
vn 0.52871018648147583 0.61807650327682495 -0.58176195621490479
vn 0.52871018648147583 0.61807650327682495 -0.58176195621490479
vn 0.52871018648147583 0.61807650327682495 -0.58176195621490479
vn 0.52871018648147583 0.61807650327682495 -0.58176195621490479
vn 0.52871018648147583 0.61807650327682495 -0.58176195621490479
vn 0.52871018648147583 0.61807650327682495 -0.58176195621490479
vn 0.52871018648147583 0.61807650327682495 -0.58176195621490479
vn 0.52871018648147583 0.61807650327682495 -0.58176195621490479
vn 0.52871018648147583 0.61807650327682495 -0.58176195621490479
vn 0.52871018648147583 0.61807650327682495 -0.58176195621490479
vn 0.52871018648147583 0.61807650327682495 -0.58176195621490479
vn 0.52871018648147583 0.61807650327682495 -0.58176195621490479
vn 0.52871018648147583 0.61807650327682495 -0.58176195621490479
vn 0.52871018648147583 0.61807650327682495 -0.58176195621490479
vn -0.84836858510971069 0.36288511753082275 -0.38546746969223022
vn -0.84836858510971069 0.36288511753082275 -0.38546746969223022
vn -0.84836858510971069 0.36288511753082275 -0.38546746969223022
vn -0.84836858510971069 0.36288511753082275 -0.38546746969223022
vn -0.84836858510971069 0.36288511753082275 -0.38546746969223022
vn -0.84836858510971069 0.36288511753082275 -0.38546746969223022
vn -0.84836858510971069 0.36288511753082275 -0.38546746969223022
vn -0.84836858510971069 0.36288511753082275 -0.38546746969223022
vn -0.84836858510971069 0.36288511753082275 -0.38546746969223022
vn -0.84836858510971069 0.36288511753082275 -0.38546746969223022
vn -0.84836858510971069 0.36288511753082275 -0.38546746969223022
vn -0.84836858510971069 0.36288511753082275 -0.38546746969223022
vn -0.84836858510971069 0.36288511753082275 -0.38546746969223022
vn -0.84836858510971069 0.36288511753082275 -0.38546746969223022
vn -0.84836858510971069 0.36288511753082275 -0.38546746969223022
vn -0.84836858510971069 0.36288511753082275 -0.38546746969223022
vn -0.84836858510971069 0.36288511753082275 -0.38546746969223022
vn -0.84836858510971069 0.36288511753082275 -0.38546746969223022
vn -0.84836858510971069 0.36288511753082275 -0.38546746969223022
vn -0.84836858510971069 0.36288511753082275 -0.38546746969223022
vn -0.84836858510971069 0.36288511753082275 -0.38546746969223022
vn -0.84836858510971069 0.36288511753082275 -0.38546746969223022
vn -0.52871018648147583 -0.61807650327682495 0.58176195621490479
vn -0.52871018648147583 -0.61807650327682495 0.58176195621490479
vn -0.52871018648147583 -0.61807650327682495 0.58176195621490479
vn -0.52871018648147583 -0.61807650327682495 0.58176195621490479
vn -0.52871018648147583 -0.61807650327682495 0.58176195621490479
vn -0.52871018648147583 -0.61807650327682495 0.58176195621490479
vn -0.52871018648147583 -0.61807650327682495 0.58176195621490479
vn -0.52871018648147583 -0.61807650327682495 0.58176195621490479
vn -0.52871018648147583 -0.61807650327682495 0.58176195621490479
vn -0.52871018648147583 -0.61807650327682495 0.58176195621490479
vn -0.52871018648147583 -0.61807650327682495 0.58176195621490479
vn -0.52871018648147583 -0.61807650327682495 0.58176195621490479
vn -0.52871018648147583 -0.61807650327682495 0.58176195621490479
vn -0.52871018648147583 -0.61807650327682495 0.58176195621490479
vn -0.52871018648147583 -0.61807650327682495 0.58176195621490479
vn -0.52871018648147583 -0.61807650327682495 0.58176195621490479
vn -0.52871018648147583 -0.61807650327682495 0.58176195621490479
vn -0.52871018648147583 -0.61807650327682495 0.58176195621490479
vn -0.52871018648147583 -0.61807650327682495 0.58176195621490479
vn -0.52871018648147583 -0.61807650327682495 0.58176195621490479
vn -0.52871018648147583 -0.61807650327682495 0.58176195621490479
vn -0.52871018648147583 -0.61807650327682495 0.58176195621490479
vn -0.52871018648147583 -0.61807650327682495 0.58176195621490479
vn -0.52871018648147583 -0.61807650327682495 0.58176195621490479
vn -0.52871018648147583 -0.61807650327682495 0.58176195621490479
vn -0.52871018648147583 -0.61807650327682495 0.58176195621490479
vn -0.52871018648147583 -0.61807650327682495 0.58176195621490479
vn 0.84836858510971069 -0.36288511753082275 0.38546746969223022
vn 0.84836858510971069 -0.36288511753082275 0.38546746969223022
vn 0.84836858510971069 -0.36288511753082275 0.38546746969223022
vn 0.84836858510971069 -0.36288511753082275 0.38546746969223022
vn 0.84836858510971069 -0.36288511753082275 0.38546746969223022
vn 0.84836858510971069 -0.36288511753082275 0.38546746969223022
vn 0.84836858510971069 -0.36288511753082275 0.38546746969223022
vn 0.84836858510971069 -0.36288511753082275 0.38546746969223022
vn 0.84836858510971069 -0.36288511753082275 0.38546746969223022
vn 0.84836858510971069 -0.36288511753082275 0.38546746969223022
f 1/1/1 2/2/2 8/8/8 7/7/7 4/4/4 3/3/3 6/6/6 5/5/5
f 9/9/9 13/13/13 14/14/14 11/11/11 12/12/12 15/15/15 16/16/16 10/10/10
f 18/18/18 28/28/28 17/17/17 24/24/24 25/25/25 21/21/21 39/39/39 30/30/30 40/40/40 22/22/22 41/41/41 35/35/35 42/42/42 23/23/23 33/33/33 34/34/34 19/19/19 43/43/43
f 54/54/54 44/44/44 47/47/47 55/55/55 56/56/56 57/57/57 58/58/58 59/59/59 60/60/60 61/61/61 48/48/48 46/46/46 49/49/49 50/50/50 51/51/51 45/45/45 52/52/52 53/53/53
f 67/67/67 88/88/88 89/89/89 90/90/90 66/66/66 72/72/72 73/73/73 70/70/70 91/91/91 92/92/92 81/81/81 71/71/71 79/79/79 80/80/80 68/68/68 86/86/86 84/84/84 87/87/87
f 102/102/102 93/93/93 95/95/95 97/97/97 98/98/98 99/99/99 96/96/96 94/94/94 100/100/100 101/101/101
