# Rhino

mtllib 54.mtl
usemtl diffuse_White
v 3.8049139976501465 3.6619877815246582 -8.3374052047729492
v 3.5895850658416748 3.6670506000518799 -8.1891994476318359
v 3.9130980968475342 2.9056494235992432 -8.1553468704223633
v 3.6977691650390625 2.9107122421264648 -8.00714111328125
v 3.8590059280395508 3.2838184833526611 -8.2463760375976563
v 3.6436769962310791 3.2888815402984619 -8.098170280456543
v 4.977384090423584 4.3692264556884766 -6.6079487800598145
v 4.7190842628479004 4.3483691215515137 -6.5231270790100098
v 5.1331157684326172 3.6415691375732422 -6.3557548522949219
v 4.8748164176940918 3.6207118034362793 -6.2709336280822754
v 5.0552496910095215 4.0053977966308594 -6.4818520545959473
v 4.7969503402709961 3.9845404624938965 -6.3970303535461426
v 3.8049139976501465 3.6619877815246582 -8.3374052047729492
v 4.977384090423584 4.3692264556884766 -6.6079487800598145
v 3.9130980968475342 2.9056494235992432 -8.1553468704223633
v 5.1331157684326172 3.6415691375732422 -6.3557548522949219
v 3.8590059280395508 3.2838184833526611 -8.2463760375976563
v 5.0552496910095215 4.0053977966308594 -6.4818520545959473
v 4.3197708129882813 3.1509559154510498 -7.5554828643798828
v 4.7264432907104492 3.3962626457214355 -6.9556188583374023
v 4.5865607261657715 4.1334800720214844 -7.1844344139099121
v 4.195737361907959 3.8977339267730713 -7.7609195709228516
v 3.9130980968475342 2.9056494235992432 -8.1553468704223633
v 5.1331157684326172 3.6415691375732422 -6.3557548522949219
v 3.6977691650390625 2.9107122421264648 -8.00714111328125
v 4.8748164176940918 3.6207118034362793 -6.2709336280822754
v 4.7264432907104492 3.3962626457214355 -6.9556188583374023
v 4.3197708129882813 3.1509559154510498 -7.5554828643798828
v 4.090118408203125 3.14737868309021 -7.4284052848815918
v 4.4824671745300293 3.3840453624725342 -6.8496694564819336
v 3.6977691650390625 2.9107122421264648 -8.00714111328125
v 4.8748164176940918 3.6207118034362793 -6.2709336280822754
v 3.5895850658416748 3.6670506000518799 -8.1891994476318359
v 4.7190842628479004 4.3483691215515137 -6.5231270790100098
v 3.6436769962310791 3.2888815402984619 -8.098170280456543
v 4.7969503402709961 3.9845404624938965 -6.3970303535461426
v 4.4824671745300293 3.3840453624725342 -6.8496694564819336
v 4.090118408203125 3.14737868309021 -7.4284052848815918
v 3.9660849571228027 3.8941569328308105 -7.6338419914245605
v 4.3425846099853516 4.1212630271911621 -7.0784845352172852
v 3.5895850658416748 3.6670506000518799 -8.1891994476318359
v 4.7190842628479004 4.3483691215515137 -6.5231270790100098
v 3.8049139976501465 3.6619877815246582 -8.3374052047729492
v 4.977384090423584 4.3692264556884766 -6.6079487800598145
v 4.195737361907959 3.8977339267730713 -7.7609195709228516
v 4.5865607261657715 4.1334800720214844 -7.1844344139099121
v 4.3425846099853516 4.1212630271911621 -7.0784845352172852
v 3.9660849571228027 3.8941569328308105 -7.6338419914245605
vt 0.097163550555706024 0
vt 0 0
vt 0.097163550555706024 0.29628971219062805
vt 0 0.29628971219062805
vt 0.097163550555706024 0.14814485609531403
vt 0 0.14814485609531403
vt 0.20002342760562897 0
vt 0.098628394305706024 0
vt 0.20002342760562897 0.29639598727226257
vt 0.098628394305706024 0.29639598727226257
vt 0.20002342760562897 0.14819799363613129
vt 0.098628394305706024 0.14819799363613129
vt 0.70360404253005981 0
vt 0.70360404253005981 0.86441171169281006
vt 0.99853515625 0
vt 0.99853515625 0.86441171169281006
vt 0.85106956958770752 0
vt 0.85106956958770752 0.86441171169281006
vt 0.99853515625 0.28813722729682922
vt 0.99853515625 0.57627445459365845
vt 0.70360404253005981 0.57627445459365845
vt 0.70360404253005981 0.28813722729682922
vt 0.3043481707572937 0
vt 0.3043481707572937 0.86441171169281006
vt 0.40574318170547485 0
vt 0.40574318170547485 0.86441171169281006
vt 0.3043481707572937 0.57627445459365845
vt 0.3043481707572937 0.28813722729682922
vt 0.40574318170547485 0.28813722729682922
vt 0.40574318170547485 0.57627445459365845
vt 0.40720802545547485 0
vt 0.40720802545547485 0.83537918329238892
vt 0.70213919878005981 0
vt 0.70213919878005981 0.83537918329238892
vt 0.55467361211776733 0
vt 0.55467361211776733 0.83537918329238892
vt 0.40720802545547485 0.55691945552825928
vt 0.40720802545547485 0.27845972776412964
vt 0.70213919878005981 0.27845972776412964
vt 0.70213919878005981 0.55691945552825928
vt 0.20148827135562897 0
vt 0.20148827135562897 0.8321307897567749
vt 0.3028833270072937 0
vt 0.3028833270072937 0.8321307897567749
vt 0.3028833270072937 0.27737694978713989
vt 0.3028833270072937 0.55475389957427979
vt 0.20148827135562897 0.55475389957427979
vt 0.20148827135562897 0.27737694978713989
vn -0.5503508448600769 -0.26898226141929626 -0.79041916131973267
vn -0.5503508448600769 -0.26898226141929626 -0.79041916131973267
vn -0.5503508448600769 -0.26898226141929626 -0.79041916131973267
vn -0.5503508448600769 -0.26898226141929626 -0.79041916131973267
vn -0.5503508448600769 -0.26898226141929626 -0.79041916131973267
vn -0.5503508448600769 -0.26898226141929626 -0.79041916131973267
vn 0.26358100771903992 0.36577138304710388 0.8926008939743042
vn 0.26358100771903992 0.36577138304710388 0.8926008939743042
vn 0.26358100771903992 0.36577138304710388 0.8926008939743042
vn 0.26358100771903992 0.36577138304710388 0.8926008939743042
vn 0.26358100771903992 0.36577138304710388 0.8926008939743042
vn 0.26358100771903992 0.36577138304710388 0.8926008939743042
vn 0.83050477504730225 -0.015235540457069874 -0.55680310726165771
vn 0.83050477504730225 -0.015235540457069874 -0.55680310726165771
vn 0.83050477504730225 -0.015235540457069874 -0.55680310726165771
vn 0.83050477504730225 -0.015235540457069874 -0.55680310726165771
vn 0.83050477504730225 -0.015235540457069874 -0.55680310726165771
vn 0.83050477504730225 -0.015235540457069874 -0.55680310726165771
vn 0.83050477504730225 -0.015235540457069874 -0.55680310726165771
vn 0.83050477504730225 -0.015235540457069874 -0.55680310726165771
vn 0.83050477504730225 -0.015235540457069874 -0.55680310726165771
vn 0.83050477504730225 -0.015235540457069874 -0.55680310726165771
vn 0.16657480597496033 -0.94708681106567383 0.27437087893486023
vn 0.16657480597496033 -0.94708681106567383 0.27437087893486023
vn 0.16657480597496033 -0.94708681106567383 0.27437087893486023
vn 0.16657480597496033 -0.94708681106567383 0.27437087893486023
vn 0.16657480597496033 -0.94708681106567383 0.27437087893486023
vn 0.16657480597496033 -0.94708681106567383 0.27437087893486023
vn 0.16657480597496033 -0.94708681106567383 0.27437087893486023
vn 0.16657480597496033 -0.94708681106567383 0.27437087893486023
vn -0.83050477504730225 0.015235540457069874 0.55680310726165771
vn -0.83050477504730225 0.015235540457069874 0.55680310726165771
vn -0.83050477504730225 0.015235540457069874 0.55680310726165771
vn -0.83050477504730225 0.015235540457069874 0.55680310726165771
vn -0.83050477504730225 0.015235540457069874 0.55680310726165771
vn -0.83050477504730225 0.015235540457069874 0.55680310726165771
vn -0.83050477504730225 0.015235540457069874 0.55680310726165771
vn -0.83050477504730225 0.015235540457069874 0.55680310726165771
vn -0.83050477504730225 0.015235540457069874 0.55680310726165771
vn -0.83050477504730225 0.015235540457069874 0.55680310726165771
vn -0.16657480597496033 0.94708681106567383 -0.27437087893486023
vn -0.16657480597496033 0.94708681106567383 -0.27437087893486023
vn -0.16657480597496033 0.94708681106567383 -0.27437087893486023
vn -0.16657480597496033 0.94708681106567383 -0.27437087893486023
vn -0.16657480597496033 0.94708681106567383 -0.27437087893486023
vn -0.16657480597496033 0.94708681106567383 -0.27437087893486023
vn -0.16657480597496033 0.94708681106567383 -0.27437087893486023
vn -0.16657480597496033 0.94708681106567383 -0.27437087893486023
f 6/6/6 2/2/2 1/1/1 5/5/5 3/3/3 4/4/4
f 8/8/8 12/12/12 10/10/10 9/9/9 11/11/11 7/7/7
f 17/17/17 13/13/13 22/22/22 21/21/21 14/14/14 18/18/18 16/16/16 20/20/20 19/19/19 15/15/15
f 29/29/29 25/25/25 23/23/23 28/28/28 27/27/27 24/24/24 26/26/26 30/30/30
f 35/35/35 31/31/31 38/38/38 37/37/37 32/32/32 36/36/36 34/34/34 40/40/40 39/39/39 33/33/33
f 45/45/45 43/43/43 41/41/41 48/48/48 47/47/47 42/42/42 44/44/44 46/46/46
