# Rhino

mtllib 61.mtl
usemtl diffuse_White
v 1.6575965881347656 4.2465672492980957 -4.0326380729675293
v 1.4653531312942505 4.2119660377502441 -3.8542861938476563
v 1.8292546272277832 3.4805283546447754 -4.006004810333252
v 1.6370110511779785 3.4459273815155029 -3.8276529312133789
v 1.7434256076812744 3.8635478019714355 -4.0193214416503906
v 1.5511821508407593 3.8289468288421631 -3.8409695625305176
v 3.5739545822143555 4.9891233444213867 -0.99583739042282104
v 3.3717634677886963 4.9506678581237793 -0.83324927091598511
v 3.7897617816925049 4.2401914596557617 -0.89924216270446777
v 3.5875706672668457 4.2017359733581543 -0.73665410280227661
v 3.6818580627441406 4.6146574020385742 -0.9475398063659668
v 3.4796669483184814 4.5762019157409668 -0.78495168685913086
v 1.6575965881347656 4.2465672492980957 -4.0326380729675293
v 2.6157755851745605 4.6178450584411621 -2.514237642288208
v 3.5739545822143555 4.9891233444213867 -0.99583739042282104
v 1.8292546272277832 3.4805283546447754 -4.006004810333252
v 2.8095080852508545 3.8603599071502686 -2.4526233673095703
v 3.7897617816925049 4.2401914596557617 -0.89924216270446777
v 1.7434256076812744 3.8635478019714355 -4.0193214416503906
v 2.1366860866546631 4.4322061538696289 -3.2734377384185791
v 3.6818580627441406 4.6146574020385742 -0.9475398063659668
v 3.2996349334716797 4.0502758026123047 -1.675932765007019
v 3.094865083694458 4.8034844398498535 -1.7550374269485474
v 2.3193814754486084 3.6704442501068115 -3.2293140888214111
v 1.8292546272277832 3.4805283546447754 -4.006004810333252
v 3.7897617816925049 4.2401914596557617 -0.89924216270446777
v 1.6370110511779785 3.4459273815155029 -3.8276529312133789
v 3.5875706672668457 4.2017359733581543 -0.73665410280227661
v 3.2996349334716797 4.0502758026123047 -1.675932765007019
v 2.8095080852508545 3.8603599071502686 -2.4526233673095703
v 2.3193814754486084 3.6704442501068115 -3.2293140888214111
v 2.1246509552001953 3.6348795890808105 -3.0549032688140869
v 2.6122908592224121 3.8238315582275391 -2.2821533679962158
v 3.0999307632446289 4.0127840042114258 -1.5094038248062134
v 1.6370110511779785 3.4459273815155029 -3.8276529312133789
v 2.6122908592224121 3.8238315582275391 -2.2821533679962158
v 3.5875706672668457 4.2017359733581543 -0.73665410280227661
v 2.5154244899749756 4.2025742530822754 -2.3129606246948242
v 1.4653531312942505 4.2119660377502441 -3.8542861938476563
v 2.4185583591461182 4.5813169479370117 -2.3437676429748535
v 3.3717634677886963 4.9506678581237793 -0.83324927091598511
v 1.5511821508407593 3.8289468288421631 -3.8409695625305176
v 2.0333032608032227 4.0157604217529297 -3.0769650936126709
v 2.5638577938079834 4.0132031440734863 -2.2975571155548096
v 2.078977108001709 3.8253200054168701 -3.0659341812133789
v 1.9419556856155396 4.396641731262207 -3.0990269184112549
v 2.4669914245605469 4.3919458389282227 -2.3283641338348389
v 1.9876295328140259 4.2062010765075684 -3.0879960060119629
v 3.4796669483184814 4.5762019157409668 -0.78495168685913086
v 2.8951609134674072 4.7659921646118164 -1.5885084867477417
v 2.9975457191467285 4.3893880844116211 -1.5489561557769775
v 2.9463534355163574 4.5776901245117188 -1.5687322616577148
v 3.0999307632446289 4.0127840042114258 -1.5094038248062134
v 3.0487382411956787 4.2010860443115234 -1.5291799306869507
v 2.1246509552001953 3.6348795890808105 -3.0549032688140869
v 1.4653531312942505 4.2119660377502441 -3.8542861938476563
v 3.3717634677886963 4.9506678581237793 -0.83324927091598511
v 1.6575965881347656 4.2465672492980957 -4.0326380729675293
v 3.5739545822143555 4.9891233444213867 -0.99583739042282104
v 2.1366860866546631 4.4322061538696289 -3.2734377384185791
v 2.6157755851745605 4.6178450584411621 -2.514237642288208
v 3.094865083694458 4.8034844398498535 -1.7550374269485474
v 2.8951609134674072 4.7659921646118164 -1.5885084867477417
v 2.4185583591461182 4.5813169479370117 -2.3437676429748535
v 1.9419556856155396 4.396641731262207 -3.0990269184112549
vt 0.12359096109867096 0.1095789298415184
vt 0.12359096109867096 0.17137441039085388
vt 0.30710041522979736 0.1095789298415184
vt 0.30710041522979736 0.17137441039085388
vt 0.21534569561481476 0.1095789298415184
vt 0.21534569561481476 0.17137441039085388
vt 0.12359096109867096 0
vt 0.12359096109867096 0.061276964843273163
vt 0.30707228183746338 0
vt 0.30707228183746338 0.061276964843273163
vt 0.21533162891864777 0
vt 0.21533162891864777 0.061276964843273163
vt 0.99853515625 0.54824703931808472
vt 0.56106305122375488 0.54824703931808472
vt 0.12359096109867096 0.54824703931808472
vt 0.99853515625 0.73175650835037231
vt 0.56106305122375488 0.73175650835037231
vt 0.12359096109867096 0.73175650835037231
vt 0.99853515625 0.64000177383422852
vt 0.77979910373687744 0.54824703931808472
vt 0.12359096109867096 0.64000177383422852
vt 0.34232699871063232 0.73175650835037231
vt 0.34232699871063232 0.54824703931808472
vt 0.77979910373687744 0.73175650835037231
vt 0.06179548054933548 0
vt 0.06179548054933548 0.87494421005249023
vt 0.12212611734867096 0
vt 0.12212611734867096 0.87494421005249023
vt 0.06179548054933548 0.65620815753936768
vt 0.06179548054933548 0.43747210502624512
vt 0.06179548054933548 0.21873605251312256
vt 0.12212611734867096 0.21873605251312256
vt 0.12212611734867096 0.43747210502624512
vt 0.12212611734867096 0.65620815753936768
vt 0.99555313587188721 0.22008509933948517
vt 0.55957204103469849 0.22008509933948517
vt 0.12359096109867096 0.22008509933948517
vt 0.55957204103469849 0.31183981895446777
vt 0.99555313587188721 0.40359455347061157
vt 0.55957204103469849 0.40359455347061157
vt 0.12359096109867096 0.40359455347061157
vt 0.99555313587188721 0.31183981895446777
vt 0.77756255865097046 0.31183981895446777
vt 0.55957204103469849 0.26596245169639587
vt 0.77756255865097046 0.26596245169639587
vt 0.77756255865097046 0.40359455347061157
vt 0.55957204103469849 0.35771718621253967
vt 0.77756255865097046 0.35771718621253967
vt 0.12359096109867096 0.31183981895446777
vt 0.34158149361610413 0.40359455347061157
vt 0.34158149361610413 0.31183981895446777
vt 0.34158149361610413 0.35771718621253967
vt 0.34158149361610413 0.22008509933948517
vt 0.34158149361610413 0.26596245169639587
vt 0.77756255865097046 0.22008509933948517
vt 0 0
vt 0 0.85667294263839722
vt 0.06033063679933548 0
vt 0.06033063679933548 0.85667294263839722
vt 0.06033063679933548 0.2141682356595993
vt 0.06033063679933548 0.42833647131919861
vt 0.06033063679933548 0.64250475168228149
vt 0 0.64250475168228149
vt 0 0.42833647131919861
vt 0 0.2141682356595993
vn -0.65317100286483765 -0.17200405895709991 -0.73741596937179565
vn -0.65317100286483765 -0.17200405895709991 -0.73741596937179565
vn -0.65317100286483765 -0.17200405895709991 -0.73741596937179565
vn -0.65317100286483765 -0.17200405895709991 -0.73741596937179565
vn -0.65317100286483765 -0.17200405895709991 -0.73741596937179565
vn -0.65317100286483765 -0.17200405895709991 -0.73741596937179565
vn 0.57309788465499878 0.26514974236488342 0.77540600299835205
vn 0.57309788465499878 0.26514974236488342 0.77540600299835205
vn 0.57309788465499878 0.26514974236488342 0.77540600299835205
vn 0.57309788465499878 0.26514974236488342 0.77540600299835205
vn 0.57309788465499878 0.26514974236488342 0.77540600299835205
vn 0.57309788465499878 0.26514974236488342 0.77540600299835205
vn 0.81577521562576294 0.1635151207447052 -0.55477350950241089
vn 0.81577521562576294 0.1635151207447052 -0.55477350950241089
vn 0.81577521562576294 0.1635151207447052 -0.55477350950241089
vn 0.81577521562576294 0.1635151207447052 -0.55477350950241089
vn 0.81577521562576294 0.1635151207447052 -0.55477350950241089
vn 0.81577521562576294 0.1635151207447052 -0.55477350950241089
vn 0.81577521562576294 0.1635151207447052 -0.55477350950241089
vn 0.81577521562576294 0.1635151207447052 -0.55477350950241089
vn 0.81577521562576294 0.1635151207447052 -0.55477350950241089
vn 0.81577521562576294 0.1635151207447052 -0.55477350950241089
vn 0.81577521562576294 0.1635151207447052 -0.55477350950241089
vn 0.81577521562576294 0.1635151207447052 -0.55477350950241089
vn 0.24776223301887512 -0.9655335545539856 0.079742372035980225
vn 0.24776223301887512 -0.9655335545539856 0.079742372035980225
vn 0.24776223301887512 -0.9655335545539856 0.079742372035980225
vn 0.24776223301887512 -0.9655335545539856 0.079742372035980225
vn 0.24776223301887512 -0.9655335545539856 0.079742372035980225
vn 0.24776223301887512 -0.9655335545539856 0.079742372035980225
vn 0.24776223301887512 -0.9655335545539856 0.079742372035980225
vn 0.24776223301887512 -0.9655335545539856 0.079742372035980225
vn 0.24776223301887512 -0.9655335545539856 0.079742372035980225
vn 0.24776223301887512 -0.9655335545539856 0.079742372035980225
vn -0.81577521562576294 -0.1635151207447052 0.55477350950241089
vn -0.81577521562576294 -0.1635151207447052 0.55477350950241089
vn -0.81577521562576294 -0.1635151207447052 0.55477350950241089
vn -0.81577521562576294 -0.1635151207447052 0.55477350950241089
vn -0.81577521562576294 -0.1635151207447052 0.55477350950241089
vn -0.81577521562576294 -0.1635151207447052 0.55477350950241089
vn -0.81577521562576294 -0.1635151207447052 0.55477350950241089
vn -0.81577521562576294 -0.1635151207447052 0.55477350950241089
vn -0.81577521562576294 -0.1635151207447052 0.55477350950241089
vn -0.81577521562576294 -0.1635151207447052 0.55477350950241089
vn -0.81577521562576294 -0.1635151207447052 0.55477350950241089
vn -0.81577521562576294 -0.1635151207447052 0.55477350950241089
vn -0.81577521562576294 -0.1635151207447052 0.55477350950241089
vn -0.81577521562576294 -0.1635151207447052 0.55477350950241089
vn -0.81577521562576294 -0.1635151207447052 0.55477350950241089
vn -0.81577521562576294 -0.1635151207447052 0.55477350950241089
vn -0.81577521562576294 -0.1635151207447052 0.55477350950241089
vn -0.81577521562576294 -0.1635151207447052 0.55477350950241089
vn -0.81577521562576294 -0.1635151207447052 0.55477350950241089
vn -0.81577521562576294 -0.1635151207447052 0.55477350950241089
vn -0.81577521562576294 -0.1635151207447052 0.55477350950241089
vn -0.24776223301887512 0.9655335545539856 -0.079742372035980225
vn -0.24776223301887512 0.9655335545539856 -0.079742372035980225
vn -0.24776223301887512 0.9655335545539856 -0.079742372035980225
vn -0.24776223301887512 0.9655335545539856 -0.079742372035980225
vn -0.24776223301887512 0.9655335545539856 -0.079742372035980225
vn -0.24776223301887512 0.9655335545539856 -0.079742372035980225
vn -0.24776223301887512 0.9655335545539856 -0.079742372035980225
vn -0.24776223301887512 0.9655335545539856 -0.079742372035980225
vn -0.24776223301887512 0.9655335545539856 -0.079742372035980225
vn -0.24776223301887512 0.9655335545539856 -0.079742372035980225
f 1/1/1 5/5/5 3/3/3 4/4/4 6/6/6 2/2/2
f 7/7/7 8/8/8 12/12/12 10/10/10 9/9/9 11/11/11
f 19/19/19 13/13/13 20/20/20 14/14/14 23/23/23 15/15/15 21/21/21 18/18/18 22/22/22 17/17/17 24/24/24 16/16/16
f 32/32/32 27/27/27 25/25/25 31/31/31 30/30/30 29/29/29 26/26/26 28/28/28 34/34/34 33/33/33
f 55/55/55 36/36/36 53/53/53 37/37/37 49/49/49 41/41/41 50/50/50 40/40/40 46/46/46 39/39/39 42/42/42 35/35/35
f 60/60/60 58/58/58 56/56/56 65/65/65 64/64/64 63/63/63 57/57/57 59/59/59 62/62/62 61/61/61
