# Rhino

mtllib 7.mtl
usemtl diffuse_White
v 6.3260583877563477 7.2569141387939453 1.3808921575546265
v 6.2596616744995117 7.1250057220458984 1.1639112234115601
v 6.9120688438415527 6.7474575042724609 1.5204794406890869
v 6.8456716537475586 6.6155490875244141 1.3034985065460205
v 6.6190638542175293 7.0021858215332031 1.4506857395172119
v 6.5526666641235352 6.8702774047851563 1.2337048053741455
v 7.115941047668457 7.848456859588623 0.89762401580810547
v 7.0594420433044434 7.7239608764648438 0.6745871901512146
v 7.5986213684082031 7.2616167068481445 1.1004308462142944
v 7.5421223640441895 7.1371207237243652 0.87739402055740356
v 7.3572812080383301 7.5550365447998047 0.99902743101119995
v 7.3007822036743164 7.4305410385131836 0.77599060535430908
v 6.3260583877563477 7.2569141387939453 1.3808921575546265
v 7.115941047668457 7.848456859588623 0.89762401580810547
v 6.9120688438415527 6.7474575042724609 1.5204794406890869
v 7.5986213684082031 7.2616167068481445 1.1004308462142944
v 6.6190638542175293 7.0021858215332031 1.4506857395172119
v 7.3572812080383301 7.5550365447998047 0.99902743101119995
v 7.1409196853637695 6.9188442230224609 1.3804632425308228
v 7.3697705268859863 7.0902304649353027 1.2404470443725586
v 6.7209997177124023 7.5526852607727051 1.1392581462860107
v 6.9120688438415527 6.7474575042724609 1.5204794406890869
v 7.5986213684082031 7.2616167068481445 1.1004308462142944
v 6.8456716537475586 6.6155490875244141 1.3034985065460205
v 7.5421223640441895 7.1371207237243652 0.87739402055740356
v 7.3697705268859863 7.0902304649353027 1.2404470443725586
v 7.1409196853637695 6.9188442230224609 1.3804632425308228
v 7.0778217315673828 6.7894062995910645 1.1614636182785034
v 7.3099722862243652 6.9632635116577148 1.0194288492202759
v 6.8456716537475586 6.6155490875244141 1.3034985065460205
v 7.5421223640441895 7.1371207237243652 0.87739402055740356
v 6.5526666641235352 6.8702774047851563 1.2337048053741455
v 7.3007822036743164 7.4305410385131836 0.77599060535430908
v 6.2596616744995117 7.1250057220458984 1.1639112234115601
v 7.0594420433044434 7.7239608764648438 0.6745871901512146
v 7.3099722862243652 6.9632635116577148 1.0194288492202759
v 7.0778217315673828 6.7894062995910645 1.1614636182785034
v 6.6595516204833984 7.4244832992553711 0.91924917697906494
v 6.2596616744995117 7.1250057220458984 1.1639112234115601
v 7.0594420433044434 7.7239608764648438 0.6745871901512146
v 6.3260583877563477 7.2569141387939453 1.3808921575546265
v 7.115941047668457 7.848456859588623 0.89762401580810547
v 6.7209997177124023 7.5526852607727051 1.1392581462860107
v 6.6595516204833984 7.4244832992553711 0.91924917697906494
vt 0.27615103125572205 0.4179283082485199
vt 0.13857930898666382 0.4179283082485199
vt 0.27615103125572205 0.83585661649703979
vt 0.13857930898666382 0.83585661649703979
vt 0.27615103125572205 0.62689250707626343
vt 0.13857930898666382 0.62689250707626343
vt 0.13711446523666382 0.4179283082485199
vt 0 0.4179283082485199
vt 0.13711446523666382 0.83452975749969482
vt 0 0.83452975749969482
vt 0.13711446523666382 0.62622904777526855
vt 0 0.62622904777526855
vt 0.27761587500572205 0.4179283082485199
vt 0.27761587500572205 0.99853515625
vt 0.69407933950424194 0.4179283082485199
vt 0.69407933950424194 0.99853515625
vt 0.48584762215614319 0.4179283082485199
vt 0.48584762215614319 0.99853515625
vt 0.69407933950424194 0.61146396398544312
vt 0.69407933950424194 0.80499953031539917
vt 0.27761587500572205 0.70823174715042114
vt 0.69554418325424194 0
vt 0.69554418325424194 0.51322102546691895
vt 0.83311593532562256 0
vt 0.83311593532562256 0.51322102546691895
vt 0.69554418325424194 0.3421473503112793
vt 0.69554418325424194 0.17107367515563965
vt 0.83311593532562256 0.17107367515563965
vt 0.83311593532562256 0.3421473503112793
vt 0.58936566114425659 0
vt 0 0
vt 0.58936566114425659 0.20823173224925995
vt 0 0.20823173224925995
vt 0.58936566114425659 0.4164634644985199
vt 0 0.4164634644985199
vt 0.1964552104473114 0
vt 0.39291045069694519 0
vt 0.2946828305721283 0.4164634644985199
vt 0.83458077907562256 0
vt 0.83458077907562256 0.58936566114425659
vt 0.9721524715423584 0
vt 0.9721524715423584 0.58936566114425659
vt 0.9721524715423584 0.2946828305721283
vt 0.83458077907562256 0.2946828305721283
vn -0.62278068065643311 -0.5693175196647644 0.53667658567428589
vn -0.62278068065643311 -0.5693175196647644 0.53667658567428589
vn -0.62278068065643311 -0.5693175196647644 0.53667658567428589
vn -0.62278068065643311 -0.5693175196647644 0.53667658567428589
vn -0.62278068065643311 -0.5693175196647644 0.53667658567428589
vn -0.62278068065643311 -0.5693175196647644 0.53667658567428589
vn 0.75891220569610596 0.46757557988166809 -0.45323869585990906
vn 0.75891220569610596 0.46757557988166809 -0.45323869585990906
vn 0.75891220569610596 0.46757557988166809 -0.45323869585990906
vn 0.75891220569610596 0.46757557988166809 -0.45323869585990906
vn 0.75891220569610596 0.46757557988166809 -0.45323869585990906
vn 0.75891220569610596 0.46757557988166809 -0.45323869585990906
vn 0.18987561762332916 0.45656025409698486 0.86919504404067993
vn 0.18987561762332916 0.45656025409698486 0.86919504404067993
vn 0.18987561762332916 0.45656025409698486 0.86919504404067993
vn 0.18987561762332916 0.45656025409698486 0.86919504404067993
vn 0.18987561762332916 0.45656025409698486 0.86919504404067993
vn 0.18987561762332916 0.45656025409698486 0.86919504404067993
vn 0.18987561762332916 0.45656025409698486 0.86919504404067993
vn 0.18987561762332916 0.45656025409698486 0.86919504404067993
vn 0.18987561762332916 0.45656025409698486 0.86919504404067993
vn 0.66872930526733398 -0.7083318829536438 0.22598013281822205
vn 0.66872930526733398 -0.7083318829536438 0.22598013281822205
vn 0.66872930526733398 -0.7083318829536438 0.22598013281822205
vn 0.66872930526733398 -0.7083318829536438 0.22598013281822205
vn 0.66872930526733398 -0.7083318829536438 0.22598013281822205
vn 0.66872930526733398 -0.7083318829536438 0.22598013281822205
vn 0.66872930526733398 -0.7083318829536438 0.22598013281822205
vn 0.66872930526733398 -0.7083318829536438 0.22598013281822205
vn -0.18987561762332916 -0.45656025409698486 -0.86919504404067993
vn -0.18987561762332916 -0.45656025409698486 -0.86919504404067993
vn -0.18987561762332916 -0.45656025409698486 -0.86919504404067993
vn -0.18987561762332916 -0.45656025409698486 -0.86919504404067993
vn -0.18987561762332916 -0.45656025409698486 -0.86919504404067993
vn -0.18987561762332916 -0.45656025409698486 -0.86919504404067993
vn -0.18987561762332916 -0.45656025409698486 -0.86919504404067993
vn -0.18987561762332916 -0.45656025409698486 -0.86919504404067993
vn -0.18987561762332916 -0.45656025409698486 -0.86919504404067993
vn -0.66872930526733398 0.7083318829536438 -0.22598013281822205
vn -0.66872930526733398 0.7083318829536438 -0.22598013281822205
vn -0.66872930526733398 0.7083318829536438 -0.22598013281822205
vn -0.66872930526733398 0.7083318829536438 -0.22598013281822205
vn -0.66872930526733398 0.7083318829536438 -0.22598013281822205
vn -0.66872930526733398 0.7083318829536438 -0.22598013281822205
f 2/2/2 6/6/6 4/4/4 3/3/3 5/5/5 1/1/1
f 8/8/8 7/7/7 11/11/11 9/9/9 10/10/10 12/12/12
f 21/21/21 13/13/13 17/17/17 15/15/15 19/19/19 20/20/20 16/16/16 18/18/18 14/14/14
f 27/27/27 22/22/22 24/24/24 28/28/28 29/29/29 25/25/25 23/23/23 26/26/26
f 37/37/37 30/30/30 32/32/32 34/34/34 38/38/38 35/35/35 33/33/33 31/31/31 36/36/36
f 44/44/44 39/39/39 41/41/41 43/43/43 42/42/42 40/40/40
