# Rhino

mtllib 70.mtl
usemtl diffuse_White
v 1.380748987197876 11.143261909484863 4.8030638694763184
v 1.3248014450073242 11.021142959594727 4.578423023223877
v 0.66000878810882568 10.984842300415039 5.0704002380371094
v 0.6040613055229187 10.862723350524902 4.845759391784668
v 1.0203788280487061 11.064052581787109 4.9367318153381348
v 0.96443134546279907 10.941932678222656 4.7120914459228516
v 0.11867647618055344 14.62120532989502 2.9941208362579346
v 0.068472996354103088 14.483256340026855 2.7777132987976074
v -0.62567317485809326 14.527847290039063 3.2276175022125244
v -0.6758766770362854 14.389899253845215 3.0112099647521973
v -0.25349834561347961 14.574525833129883 3.1108691692352295
v -0.30370181798934937 14.436577796936035 2.8944616317749023
v 1.380748987197876 11.143261909484863 4.8030638694763184
v 0.11867647618055344 14.62120532989502 2.9941208362579346
v 0.66000878810882568 10.984842300415039 5.0704002380371094
v 0.017167815938591957 12.756344795227051 4.1490087509155273
v -0.62567317485809326 14.527847290039063 3.2276175022125244
v 1.0203788280487061 11.064052581787109 4.9367318153381348
v -0.25349834561347961 14.574525833129883 3.1108691692352295
v -0.30425268411636353 13.642096519470215 3.6883130073547363
v 0.33858832716941833 11.870594024658203 4.6097044944763184
v 0.25890675187110901 14.234766960144043 3.1951146125793457
v 0.39913702011108398 13.848328590393066 3.3961081504821777
v 0.53936731815338135 13.461891174316406 3.5971019268035889
v 0.67959755659103394 13.07545280456543 3.7980954647064209
v 0.8198278546333313 12.689014434814453 3.999089241027832
v 0.96005815267562866 12.302576065063477 4.2000827789306641
v 1.1002883911132813 11.916138648986816 4.4010763168334961
v 1.2405186891555786 11.52970027923584 4.6020698547363281
v 0.66000878810882568 10.984842300415039 5.0704002380371094
v -0.62567317485809326 14.527847290039063 3.2276175022125244
v 0.6040613055229187 10.862723350524902 4.845759391784668
v -0.6758766770362854 14.389899253845215 3.0112099647521973
v -0.30425268411636353 13.642096519470215 3.6883130073547363
v 0.017167815938591957 12.756344795227051 4.1490087509155273
v 0.33858832716941833 11.870594024658203 4.6097044944763184
v 0.28407680988311768 11.74451732635498 4.3871221542358398
v -0.035907682031393051 12.626311302185059 3.9284846782684326
v -0.35589215159416199 13.508105278015137 3.4698472023010254
v 0.6040613055229187 10.862723350524902 4.845759391784668
v -0.6758766770362854 14.389899253845215 3.0112099647521973
v 1.3248014450073242 11.021142959594727 4.578423023223877
v 0.068472996354103088 14.483256340026855 2.7777132987976074
v 0.96443134546279907 10.941932678222656 4.7120914459228516
v 0.69663721323013306 12.752199172973633 3.6780681610107422
v -0.30370181798934937 14.436577796936035 2.8944616317749023
v -0.035907682031393051 12.626311302185059 3.9284846782684326
v 0.33036476373672485 12.689255714416504 3.803276538848877
v 0.64739805459976196 11.815593719482422 4.2576837539672852
v 0.14722853899002075 12.657783508300781 3.8658804893493652
v 0.28407680988311768 11.74451732635498 4.3871221542358398
v 0.46573743224143982 11.780055999755859 4.3224029541015625
v 0.51350098848342896 12.720727920532227 3.7406723499298096
v 0.82905870676040649 11.851132392883301 4.1929645538330078
v 0.38255509734153748 13.617728233337402 3.2278907299041748
v 0.01333147194236517 13.56291675567627 3.3488690853118896
v 0.19794328510761261 13.590322494506836 3.2883799076080322
v -0.35589215159416199 13.508105278015137 3.4698472023010254
v -0.17128033936023712 13.535511016845703 3.4093582630157471
v 1.1677603721618652 11.453907012939453 4.3533344268798828
v 1.0107192993164063 11.88667106628418 4.1282458305358887
v 0.85367828607559204 12.319435119628906 3.9031569957733154
v 0.53959614038467407 13.184964179992676 3.452979564666748
v 0.22551405429840088 14.050492286682129 3.0028021335601807
v 1.3248014450073242 11.021142959594727 4.578423023223877
v 0.69663721323013306 12.752199172973633 3.6780681610107422
v 0.068472996354103088 14.483256340026855 2.7777132987976074
v 1.380748987197876 11.143261909484863 4.8030638694763184
v 0.11867647618055344 14.62120532989502 2.9941208362579346
v 1.2405186891555786 11.52970027923584 4.6020698547363281
v 1.1002883911132813 11.916138648986816 4.4010763168334961
v 0.96005815267562866 12.302576065063477 4.2000827789306641
v 0.8198278546333313 12.689014434814453 3.999089241027832
v 0.67959755659103394 13.07545280456543 3.7980954647064209
v 0.53936731815338135 13.461891174316406 3.5971019268035889
v 0.39913702011108398 13.848328590393066 3.3961081504821777
v 0.25890675187110901 14.234766960144043 3.1951146125793457
v 0.22551405429840088 14.050492286682129 3.0028021335601807
v 0.38255509734153748 13.617728233337402 3.2278907299041748
v 0.53959614038467407 13.184964179992676 3.452979564666748
v 0.85367828607559204 12.319435119628906 3.9031569957733154
v 1.0107192993164063 11.88667106628418 4.1282458305358887
v 1.1677603721618652 11.453907012939453 4.3533344268798828
v 1.1429084539413452 11.660540580749512 4.3899388313293457
v 0.72317498922348022 12.817216873168945 3.7883303165435791
v 0.51330822706222534 13.395554542541504 3.4875259399414063
v 0.30344149470329285 13.973893165588379 3.1867215633392334
vt 0.11093134433031082 0
vt 0.11093134433031082 0.055465672165155411
vt 0.27725708484649658 0
vt 0.27725708484649658 0.055465672165155411
vt 0.1940942108631134 0
vt 0.1940942108631134 0.055465672165155411
vt 0.11093134433031082 0.11109668016433716
vt 0.11093134433031082 0.16651202738285065
vt 0.27742722630500793 0.11109668016433716
vt 0.27742722630500793 0.16651202738285065
vt 0.19417928159236908 0.11109668016433716
vt 0.19417928159236908 0.16651202738285065
vt 0.99853515625 0.55558061599731445
vt 0.11093134433031082 0.55558061599731445
vt 0.99853515625 0.72207647562026978
vt 0.5547332763671875 0.72207647562026978
vt 0.11093134433031082 0.72207647562026978
vt 0.99853515625 0.6388285756111145
vt 0.11093134433031082 0.6388285756111145
vt 0.33283230662345886 0.72207647562026978
vt 0.77663421630859375 0.72207647562026978
vt 0.20955398678779602 0.55558061599731445
vt 0.30817663669586182 0.55558061599731445
vt 0.40679925680160522 0.55558061599731445
vt 0.50542187690734863 0.55558061599731445
vt 0.60404455661773682 0.55558061599731445
vt 0.702667236328125 0.55558061599731445
vt 0.80128985643386841 0.55558061599731445
vt 0.89991253614425659 0.55558061599731445
vt 0.055465672165155411 0
vt 0.055465672165155411 0.88760381937026978
vt 0.10946650058031082 0
vt 0.10946650058031082 0.88760381937026978
vt 0.055465672165155411 0.66570287942886353
vt 0.055465672165155411 0.44380190968513489
vt 0.055465672165155411 0.22190095484256744
vt 0.10946650058031082 0.22190095484256744
vt 0.10946650058031082 0.44380190968513489
vt 0.10946650058031082 0.66570287942886353
vt 0.99602788686752319 0.22209256887435913
vt 0.11093134433031082 0.22209256887435913
vt 0.99602788686752319 0.38858842849731445
vt 0.11093134433031082 0.38858842849731445
vt 0.99602788686752319 0.30534049868583679
vt 0.55347961187362671 0.38858842849731445
vt 0.11093134433031082 0.30534049868583679
vt 0.55347961187362671 0.22209256887435913
vt 0.55347961187362671 0.30534049868583679
vt 0.77475374937057495 0.30534049868583679
vt 0.55347961187362671 0.26371651887893677
vt 0.77475374937057495 0.22209256887435913
vt 0.77475374937057495 0.26371651887893677
vt 0.55347961187362671 0.34696447849273682
vt 0.77475374937057495 0.34696447849273682
vt 0.33220547437667847 0.38858842849731445
vt 0.33220547437667847 0.30534049868583679
vt 0.33220547437667847 0.34696447849273682
vt 0.33220547437667847 0.22209256887435913
vt 0.33220547437667847 0.26371651887893677
vt 0.88539081811904907 0.38858842849731445
vt 0.77475374937057495 0.38858842849731445
vt 0.66411668062210083 0.38858842849731445
vt 0.44284254312515259 0.38858842849731445
vt 0.22156840562820435 0.38858842849731445
vt 0 0
vt 0 0.43637117743492126
vt 0 0.87274235486984253
vt 0.054000828415155411 0
vt 0.054000828415155411 0.87274235486984253
vt 0.054000828415155411 0.096971370279788971
vt 0.054000828415155411 0.19394274055957794
vt 0.054000828415155411 0.29091411828994751
vt 0.054000828415155411 0.38788548111915588
vt 0.054000828415155411 0.48485687375068665
vt 0.054000828415155411 0.58182823657989502
vt 0.054000828415155411 0.67879962921142578
vt 0.054000828415155411 0.77577096223831177
vt 0 0.76364952325820923
vt 0 0.6545567512512207
vt 0 0.54546397924423218
vt 0 0.32727837562561035
vt 0 0.21818558871746063
vt 0 0.10909279435873032
vt 0.027000414207577705 0.14545705914497375
vt 0.027000414207577705 0.43637117743492126
vt 0.027000414207577705 0.58182823657989502
vt 0.027000414207577705 0.72728526592254639
vn 0.33215132355690002 -0.86094015836715698 0.38530182838439941
vn 0.33215132355690002 -0.86094015836715698 0.38530182838439941
vn 0.33215132355690002 -0.86094015836715698 0.38530182838439941
vn 0.33215132355690002 -0.86094015836715698 0.38530182838439941
vn 0.33215132355690002 -0.86094015836715698 0.38530182838439941
vn 0.33215132355690002 -0.86094015836715698 0.38530182838439941
vn -0.25511056184768677 0.84108436107635498 -0.4769650399684906
vn -0.25511056184768677 0.84108436107635498 -0.4769650399684906
vn -0.25511056184768677 0.84108436107635498 -0.4769650399684906
vn -0.25511056184768677 0.84108436107635498 -0.4769650399684906
vn -0.25511056184768677 0.84108436107635498 -0.4769650399684906
vn -0.25511056184768677 0.84108436107635498 -0.4769650399684906
vn 0.19913469254970551 0.50810092687606812 0.83796113729476929
vn 0.19913469254970551 0.50810092687606812 0.83796113729476929
vn 0.19913469254970551 0.50810092687606812 0.83796113729476929
vn 0.19913469254970551 0.50810092687606812 0.83796113729476929
vn 0.19913469254970551 0.50810092687606812 0.83796113729476929
vn 0.19913469254970551 0.50810092687606812 0.83796113729476929
vn 0.19913469254970551 0.50810092687606812 0.83796113729476929
vn 0.19913469254970551 0.50810092687606812 0.83796113729476929
vn 0.19913469254970551 0.50810092687606812 0.83796113729476929
vn 0.19913469254970551 0.50810092687606812 0.83796113729476929
vn 0.19913469254970551 0.50810092687606812 0.83796113729476929
vn 0.19913469254970551 0.50810092687606812 0.83796113729476929
vn 0.19913469254970551 0.50810092687606812 0.83796113729476929
vn 0.19913469254970551 0.50810092687606812 0.83796113729476929
vn 0.19913469254970551 0.50810092687606812 0.83796113729476929
vn 0.19913469254970551 0.50810092687606812 0.83796113729476929
vn 0.19913469254970551 0.50810092687606812 0.83796113729476929
vn -0.93082505464553833 -0.16932424902915955 0.32387346029281616
vn -0.93082505464553833 -0.16932424902915955 0.32387346029281616
vn -0.93082505464553833 -0.16932424902915955 0.32387346029281616
vn -0.93082505464553833 -0.16932424902915955 0.32387346029281616
vn -0.93082505464553833 -0.16932424902915955 0.32387346029281616
vn -0.93082505464553833 -0.16932424902915955 0.32387346029281616
vn -0.93082505464553833 -0.16932424902915955 0.32387346029281616
vn -0.93082505464553833 -0.16932424902915955 0.32387346029281616
vn -0.93082505464553833 -0.16932424902915955 0.32387346029281616
vn -0.93082505464553833 -0.16932424902915955 0.32387346029281616
vn -0.19913469254970551 -0.50810092687606812 -0.83796113729476929
vn -0.19913469254970551 -0.50810092687606812 -0.83796113729476929
vn -0.19913469254970551 -0.50810092687606812 -0.83796113729476929
vn -0.19913469254970551 -0.50810092687606812 -0.83796113729476929
vn -0.19913469254970551 -0.50810092687606812 -0.83796113729476929
vn -0.19913469254970551 -0.50810092687606812 -0.83796113729476929
vn -0.19913469254970551 -0.50810092687606812 -0.83796113729476929
vn -0.19913469254970551 -0.50810092687606812 -0.83796113729476929
vn -0.19913469254970551 -0.50810092687606812 -0.83796113729476929
vn -0.19913469254970551 -0.50810092687606812 -0.83796113729476929
vn -0.19913469254970551 -0.50810092687606812 -0.83796113729476929
vn -0.19913469254970551 -0.50810092687606812 -0.83796113729476929
vn -0.19913469254970551 -0.50810092687606812 -0.83796113729476929
vn -0.19913469254970551 -0.50810092687606812 -0.83796113729476929
vn -0.19913469254970551 -0.50810092687606812 -0.83796113729476929
vn -0.19913469254970551 -0.50810092687606812 -0.83796113729476929
vn -0.19913469254970551 -0.50810092687606812 -0.83796113729476929
vn -0.19913469254970551 -0.50810092687606812 -0.83796113729476929
vn -0.19913469254970551 -0.50810092687606812 -0.83796113729476929
vn -0.19913469254970551 -0.50810092687606812 -0.83796113729476929
vn -0.19913469254970551 -0.50810092687606812 -0.83796113729476929
vn -0.19913469254970551 -0.50810092687606812 -0.83796113729476929
vn -0.19913469254970551 -0.50810092687606812 -0.83796113729476929
vn -0.19913469254970551 -0.50810092687606812 -0.83796113729476929
vn -0.19913469254970551 -0.50810092687606812 -0.83796113729476929
vn 0.93082505464553833 0.16932424902915955 -0.32387346029281616
vn 0.93082505464553833 0.16932424902915955 -0.32387346029281616
vn 0.93082505464553833 0.16932424902915955 -0.32387346029281616
vn 0.93082505464553833 0.16932424902915955 -0.32387346029281616
vn 0.93082505464553833 0.16932424902915955 -0.32387346029281616
vn 0.93082505464553833 0.16932424902915955 -0.32387346029281616
vn 0.93082505464553833 0.16932424902915955 -0.32387346029281616
vn 0.93082505464553833 0.16932424902915955 -0.32387346029281616
vn 0.93082505464553833 0.16932424902915955 -0.32387346029281616
vn 0.93082505464553833 0.16932424902915955 -0.32387346029281616
vn 0.93082505464553833 0.16932424902915955 -0.32387346029281616
vn 0.93082505464553833 0.16932424902915955 -0.32387346029281616
vn 0.93082505464553833 0.16932424902915955 -0.32387346029281616
vn 0.93082505464553833 0.16932424902915955 -0.32387346029281616
vn 0.93082505464553833 0.16932424902915955 -0.32387346029281616
vn 0.93082505464553833 0.16932424902915955 -0.32387346029281616
vn 0.93082505464553833 0.16932424902915955 -0.32387346029281616
vn 0.93082505464553833 0.16932424902915955 -0.32387346029281616
vn 0.93082505464553833 0.16932424902915955 -0.32387346029281616
vn 0.93082505464553833 0.16932424902915955 -0.32387346029281616
vn 0.93082505464553833 0.16932424902915955 -0.32387346029281616
vn 0.93082505464553833 0.16932424902915955 -0.32387346029281616
vn 0.93082505464553833 0.16932424902915955 -0.32387346029281616
f 2/2/2 1/1/1 5/5/5 3/3/3 4/4/4 6/6/6
f 11/11/11 7/7/7 8/8/8 12/12/12 10/10/10 9/9/9
f 18/18/18 13/13/13 29/29/29 28/28/28 27/27/27 26/26/26 25/25/25 24/24/24 23/23/23 22/22/22 14/14/14 19/19/19 17/17/17 20/20/20 16/16/16 21/21/21 15/15/15
f 37/37/37 32/32/32 30/30/30 36/36/36 35/35/35 34/34/34 31/31/31 33/33/33 39/39/39 38/38/38
f 55/55/55 63/63/63 45/45/45 62/62/62 61/61/61 60/60/60 42/42/42 44/44/44 40/40/40 51/51/51 47/47/47 58/58/58 41/41/41 46/46/46 43/43/43 64/64/64
f 65/65/65 83/83/83 82/82/82 81/81/81 66/66/66 80/80/80 79/79/79 78/78/78 67/67/67 69/69/69 77/77/77 76/76/76 75/75/75 74/74/74 73/73/73 72/72/72 71/71/71 70/70/70 68/68/68
