# Rhino

mtllib 71.mtl
usemtl diffuse_White
v -3.9265701770782471 4.7906365394592285 -3.7820372581481934
v -4.0355219841003418 4.8962826728820801 -3.5609490871429443
v -4.2115159034729004 4.0860466957092285 -3.5882468223571777
v -4.320467472076416 4.1916928291320801 -3.3671586513519287
v -4.0215520858764648 4.5557732582092285 -3.7174403667449951
v -4.1165337562561035 4.3209099769592285 -3.652843713760376
v -4.2254858016967773 4.4265561103820801 -3.431755542755127
v -4.1305036544799805 4.6614193916320801 -3.4963521957397461
v -7.425419807434082 5.920936107635498 -5.000185489654541
v -7.5013222694396973 6.0159053802490234 -4.7675909996032715
v -7.686976432800293 5.2087907791137695 -4.7982525825500488
v -7.7628788948059082 5.3037600517272949 -4.5656576156616211
v -7.5126056671142578 5.6835541725158691 -4.9328746795654297
v -7.5997910499572754 5.4461727142333984 -4.8655633926391602
v -7.6756930351257324 5.5411419868469238 -4.6329689025878906
v -7.5885076522827148 5.7785234451293945 -4.7002801895141602
v -3.9265701770782471 4.7906365394592285 -3.7820372581481934
v -7.425419807434082 5.920936107635498 -5.000185489654541
v -5.8126206398010254 5.0016026496887207 -4.2921805381774902
v -4.2115159034729004 4.0860466957092285 -3.5882468223571777
v -5.9492459297180176 4.6474189758300781 -4.1932497024536133
v -7.686976432800293 5.2087907791137695 -4.7982525825500488
v -4.0215520858764648 4.5557732582092285 -3.7174403667449951
v -4.1165337562561035 4.3209099769592285 -3.652843713760376
v -4.9408316612243652 4.7199721336364746 -3.9886612892150879
v -5.7443079948425293 5.1786942481994629 -4.3416461944580078
v -4.8710570335388184 4.8965916633605957 -4.0376176834106445
v -5.080380916595459 4.3667325973510742 -3.8907482624053955
v -5.8809332847595215 4.8245105743408203 -4.2427148818969727
v -5.0106062889099121 4.5433526039123535 -3.9397048950195313
v -7.5997910499572754 5.4461727142333984 -4.8655633926391602
v -7.5126056671142578 5.6835541725158691 -4.9328746795654297
v -6.6844096183776855 5.2832331657409668 -4.5956997871398926
v -6.7512602806091309 5.1056690216064453 -4.5457253456115723
v -6.617558479309082 5.4607973098754883 -4.6456742286682129
v -6.8181114196777344 4.9281048774719238 -4.495750904083252
v -6.9255843162536621 5.7594647407531738 -4.8261642456054688
v -6.4257488250732422 5.5979933738708496 -4.6521434783935547
v -5.9259128570556641 5.4365220069885254 -4.4781222343444824
v -5.4260773658752441 5.2750506401062012 -4.3041009902954102
v -4.926241397857666 5.113579273223877 -4.1300797462463379
v -4.4264059066772461 4.9521079063415527 -3.9560582637786865
v -4.2115159034729004 4.0860466957092285 -3.5882468223571777
v -7.686976432800293 5.2087907791137695 -4.7982525825500488
v -4.320467472076416 4.1916928291320801 -3.3671586513519287
v -7.7628788948059082 5.3037600517272949 -4.5656576156616211
v -6.8181114196777344 4.9281048774719238 -4.495750904083252
v -5.9492459297180176 4.6474189758300781 -4.1932497024536133
v -5.080380916595459 4.3667325973510742 -3.8907482624053955
v -5.1810703277587891 4.4697093963623047 -3.6667835712432861
v -6.0416731834411621 4.7477264404296875 -3.9664082527160645
v -6.9022760391235352 5.0257430076599121 -4.2660331726074219
v -4.320467472076416 4.1916928291320801 -3.3671586513519287
v -6.0416731834411621 4.7477264404296875 -3.9664082527160645
v -7.7628788948059082 5.3037600517272949 -4.5656576156616211
v -5.9050474166870117 5.1019101142883301 -4.0653390884399414
v -4.0355219841003418 4.8962826728820801 -3.5609490871429443
v -7.5013222694396973 6.0159053802490234 -4.7675909996032715
v -4.2254858016967773 4.4265561103820801 -3.431755542755127
v -4.1305036544799805 4.6614193916320801 -3.4963521957397461
v -5.0415210723876953 4.8229489326477051 -3.7646965980529785
v -5.973360538482666 4.9248185157775879 -4.015873908996582
v -5.1810703277587891 4.4697093963623047 -3.6667835712432861
v -5.1112957000732422 4.646329402923584 -3.7157399654388428
v -5.8367347717285156 5.2790021896362305 -4.114804744720459
v -4.9717464447021484 4.9995684623718262 -3.8136529922485352
v -7.5885076522827148 5.7785234451293945 -4.7002801895141602
v -7.6756930351257324 5.5411419868469238 -4.6329689025878906
v -6.7685742378234863 5.3808712959289551 -4.3659820556640625
v -6.7017230987548828 5.5584354400634766 -4.4159560203552246
v -6.8354249000549316 5.2033071517944336 -4.3160076141357422
v -6.9022760391235352 5.0257430076599121 -4.2660331726074219
v -4.5306363105773926 5.0562286376953125 -3.7333264350891113
v -5.0257506370544434 5.2161746025085449 -3.9057037830352783
v -5.5208649635314941 5.3761210441589355 -4.0780811309814453
v -6.0159792900085449 5.536067008972168 -4.2504587173461914
v -6.5110936164855957 5.6960129737854004 -4.4228363037109375
v -7.0062079429626465 5.855959415435791 -4.5952138900756836
v -4.0355219841003418 4.8962826728820801 -3.5609490871429443
v -7.5013222694396973 6.0159053802490234 -4.7675909996032715
v -3.9265701770782471 4.7906365394592285 -3.7820372581481934
v -7.425419807434082 5.920936107635498 -5.000185489654541
v -4.4264059066772461 4.9521079063415527 -3.9560582637786865
v -4.926241397857666 5.113579273223877 -4.1300797462463379
v -5.4260773658752441 5.2750506401062012 -4.3041009902954102
v -5.9259128570556641 5.4365220069885254 -4.4781222343444824
v -6.4257488250732422 5.5979933738708496 -4.6521434783935547
v -6.9255843162536621 5.7594647407531738 -4.8261642456054688
v -7.0062079429626465 5.855959415435791 -4.5952138900756836
v -6.5110936164855957 5.6960129737854004 -4.4228363037109375
v -6.0159792900085449 5.536067008972168 -4.2504587173461914
v -5.5208649635314941 5.3761210441589355 -4.0780811309814453
v -5.0257506370544434 5.2161746025085449 -3.9057037830352783
v -4.5306363105773926 5.0562286376953125 -3.7333264350891113
v -4.6775112152099609 5.0684518814086914 -3.9139721393585205
v -6.0704412460327148 5.5184364318847656 -4.3989300727844238
v -6.7669062614440918 5.7434287071228027 -4.6414093971252441
vt 0.12162286043167114 0.10973690450191498
vt 0.12162286043167114 0.17054833471775055
vt 0.29948869347572327 0.10973690450191498
vt 0.29948869347572327 0.17054833471775055
vt 0.18091146647930145 0.10973690450191498
vt 0.24020008742809296 0.10973690450191498
vt 0.24020008742809296 0.17054833471775055
vt 0.18091146647930145 0.17054833471775055
vt 0.12162286043167114 0
vt 0.12162286043167114 0.059516079723834991
vt 0.29965409636497498 0
vt 0.29965409636497498 0.059516079723834991
vt 0.18096661567687988 0
vt 0.24031035602092743 0
vt 0.24031035602092743 0.059516079723834991
vt 0.18096661567687988 0.059516079723834991
vt 0.99853515625 0.55011969804763794
vt 0.12162286043167114 0.55011969804763794
vt 0.56007903814315796 0.63913530111312866
vt 0.99853515625 0.72815090417861938
vt 0.56007903814315796 0.72815090417861938
vt 0.12162286043167114 0.72815090417861938
vt 0.99853515625 0.6094633936882019
vt 0.99853515625 0.66880714893341064
vt 0.77930706739425659 0.63913530111312866
vt 0.56007903814315796 0.5946274995803833
vt 0.77930706739425659 0.5946274995803833
vt 0.77930706739425659 0.72815090417861938
vt 0.56007903814315796 0.68364310264587402
vt 0.77930706739425659 0.68364310264587402
vt 0.12162286043167114 0.66880714893341064
vt 0.12162286043167114 0.6094633936882019
vt 0.34085094928741455 0.63913530111312866
vt 0.34085094928741455 0.68364310264587402
vt 0.34085094928741455 0.5946274995803833
vt 0.34085094928741455 0.72815090417861938
vt 0.24689604341983795 0.55011969804763794
vt 0.37216922640800476 0.55011969804763794
vt 0.49744239449501038 0.55011969804763794
vt 0.62271559238433838 0.55011969804763794
vt 0.74798876047134399 0.55011969804763794
vt 0.87326198816299438 0.55011969804763794
vt 0 0
vt 0 0.87250542640686035
vt 0.059346586465835571 0
vt 0.059346586465835571 0.87250542640686035
vt 0 0.65437906980514526
vt 0 0.43625271320343018
vt 0 0.21812635660171509
vt 0.059346586465835571 0.21812635660171509
vt 0.059346586465835571 0.43625271320343018
vt 0.059346586465835571 0.65437906980514526
vt 0.99170297384262085 0.22186221182346344
vt 0.556662917137146 0.22186221182346344
vt 0.12162286043167114 0.22186221182346344
vt 0.556662917137146 0.31087782979011536
vt 0.99170297384262085 0.39989343285560608
vt 0.12162286043167114 0.39989343285560608
vt 0.99170297384262085 0.28120595216751099
vt 0.99170297384262085 0.34054970741271973
vt 0.77418297529220581 0.31087782979011536
vt 0.556662917137146 0.26637002825737
vt 0.77418297529220581 0.22186221182346344
vt 0.77418297529220581 0.26637002825737
vt 0.556662917137146 0.35538563132286072
vt 0.77418297529220581 0.35538563132286072
vt 0.12162286043167114 0.34054970741271973
vt 0.12162286043167114 0.28120595216751099
vt 0.33914288878440857 0.31087782979011536
vt 0.33914288878440857 0.35538563132286072
vt 0.33914288878440857 0.26637002825737
vt 0.33914288878440857 0.22186221182346344
vt 0.86740583181381226 0.39989343285560608
vt 0.74310868978500366 0.39989343285560608
vt 0.61881148815155029 0.39989343285560608
vt 0.49451431632041931 0.39989343285560608
vt 0.37021717429161072 0.39989343285560608
vt 0.24592001736164093 0.39989343285560608
vt 0.060811430215835571 0
vt 0.060811430215835571 0.87691229581832886
vt 0.12015801668167114 0
vt 0.12015801668167114 0.87691229581832886
vt 0.12015801668167114 0.12527318298816681
vt 0.12015801668167114 0.25054636597633362
vt 0.12015801668167114 0.37581956386566162
vt 0.12015801668167114 0.50109273195266724
vt 0.12015801668167114 0.62636595964431763
vt 0.12015801668167114 0.75163912773132324
vt 0.060811430215835571 0.75163912773132324
vt 0.060811430215835571 0.62636595964431763
vt 0.060811430215835571 0.50109273195266724
vt 0.060811430215835571 0.37581956386566162
vt 0.060811430215835571 0.25054636597633362
vt 0.060811430215835571 0.12527318298816681
vt 0.090484723448753357 0.17538246512413025
vt 0.090484723448753357 0.52614742517471313
vt 0.090484723448753357 0.701529860496521
vn 0.83796113729476929 -0.19913469254970551 0.50810092687606812
vn 0.83796113729476929 -0.19913469254970551 0.50810092687606812
vn 0.83796113729476929 -0.19913469254970551 0.50810092687606812
vn 0.83796113729476929 -0.19913469254970551 0.50810092687606812
vn 0.83796113729476929 -0.19913469254970551 0.50810092687606812
vn 0.83796113729476929 -0.19913469254970551 0.50810092687606812
vn 0.83796113729476929 -0.19913469254970551 0.50810092687606812
vn 0.83796113729476929 -0.19913469254970551 0.50810092687606812
vn -0.89699620008468628 0.22087505459785461 -0.38289949297904968
vn -0.89699620008468628 0.22087505459785461 -0.38289949297904968
vn -0.89699620008468628 0.22087505459785461 -0.38289949297904968
vn -0.89699620008468628 0.22087505459785461 -0.38289949297904968
vn -0.89699620008468628 0.22087505459785461 -0.38289949297904968
vn -0.89699620008468628 0.22087505459785461 -0.38289949297904968
vn -0.89699620008468628 0.22087505459785461 -0.38289949297904968
vn -0.89699620008468628 0.22087505459785461 -0.38289949297904968
vn 0.21042701601982117 -0.33745434880256653 -0.91752111911773682
vn 0.21042701601982117 -0.33745434880256653 -0.91752111911773682
vn 0.21042701601982117 -0.33745434880256653 -0.91752111911773682
vn 0.21042701601982117 -0.33745434880256653 -0.91752111911773682
vn 0.21042701601982117 -0.33745434880256653 -0.91752111911773682
vn 0.21042701601982117 -0.33745434880256653 -0.91752111911773682
vn 0.21042701601982117 -0.33745434880256653 -0.91752111911773682
vn 0.21042701601982117 -0.33745434880256653 -0.91752111911773682
vn 0.21042701601982117 -0.33745434880256653 -0.91752111911773682
vn 0.21042701601982117 -0.33745434880256653 -0.91752111911773682
vn 0.21042701601982117 -0.33745434880256653 -0.91752111911773682
vn 0.21042701601982117 -0.33745434880256653 -0.91752111911773682
vn 0.21042701601982117 -0.33745434880256653 -0.91752111911773682
vn 0.21042701601982117 -0.33745434880256653 -0.91752111911773682
vn 0.21042701601982117 -0.33745434880256653 -0.91752111911773682
vn 0.21042701601982117 -0.33745434880256653 -0.91752111911773682
vn 0.21042701601982117 -0.33745434880256653 -0.91752111911773682
vn 0.21042701601982117 -0.33745434880256653 -0.91752111911773682
vn 0.21042701601982117 -0.33745434880256653 -0.91752111911773682
vn 0.21042701601982117 -0.33745434880256653 -0.91752111911773682
vn 0.21042701601982117 -0.33745434880256653 -0.91752111911773682
vn 0.21042701601982117 -0.33745434880256653 -0.91752111911773682
vn 0.21042701601982117 -0.33745434880256653 -0.91752111911773682
vn 0.21042701601982117 -0.33745434880256653 -0.91752111911773682
vn 0.21042701601982117 -0.33745434880256653 -0.91752111911773682
vn 0.21042701601982117 -0.33745434880256653 -0.91752111911773682
vn -0.37386646866798401 -0.89497047662734985 0.24341681599617004
vn -0.37386646866798401 -0.89497047662734985 0.24341681599617004
vn -0.37386646866798401 -0.89497047662734985 0.24341681599617004
vn -0.37386646866798401 -0.89497047662734985 0.24341681599617004
vn -0.37386646866798401 -0.89497047662734985 0.24341681599617004
vn -0.37386646866798401 -0.89497047662734985 0.24341681599617004
vn -0.37386646866798401 -0.89497047662734985 0.24341681599617004
vn -0.37386646866798401 -0.89497047662734985 0.24341681599617004
vn -0.37386646866798401 -0.89497047662734985 0.24341681599617004
vn -0.37386646866798401 -0.89497047662734985 0.24341681599617004
vn -0.21042701601982117 0.33745434880256653 0.91752111911773682
vn -0.21042701601982117 0.33745434880256653 0.91752111911773682
vn -0.21042701601982117 0.33745434880256653 0.91752111911773682
vn -0.21042701601982117 0.33745434880256653 0.91752111911773682
vn -0.21042701601982117 0.33745434880256653 0.91752111911773682
vn -0.21042701601982117 0.33745434880256653 0.91752111911773682
vn -0.21042701601982117 0.33745434880256653 0.91752111911773682
vn -0.21042701601982117 0.33745434880256653 0.91752111911773682
vn -0.21042701601982117 0.33745434880256653 0.91752111911773682
vn -0.21042701601982117 0.33745434880256653 0.91752111911773682
vn -0.21042701601982117 0.33745434880256653 0.91752111911773682
vn -0.21042701601982117 0.33745434880256653 0.91752111911773682
vn -0.21042701601982117 0.33745434880256653 0.91752111911773682
vn -0.21042701601982117 0.33745434880256653 0.91752111911773682
vn -0.21042701601982117 0.33745434880256653 0.91752111911773682
vn -0.21042701601982117 0.33745434880256653 0.91752111911773682
vn -0.21042701601982117 0.33745434880256653 0.91752111911773682
vn -0.21042701601982117 0.33745434880256653 0.91752111911773682
vn -0.21042701601982117 0.33745434880256653 0.91752111911773682
vn -0.21042701601982117 0.33745434880256653 0.91752111911773682
vn -0.21042701601982117 0.33745434880256653 0.91752111911773682
vn -0.21042701601982117 0.33745434880256653 0.91752111911773682
vn -0.21042701601982117 0.33745434880256653 0.91752111911773682
vn -0.21042701601982117 0.33745434880256653 0.91752111911773682
vn -0.21042701601982117 0.33745434880256653 0.91752111911773682
vn -0.21042701601982117 0.33745434880256653 0.91752111911773682
vn 0.37386646866798401 0.89497047662734985 -0.24341681599617004
vn 0.37386646866798401 0.89497047662734985 -0.24341681599617004
vn 0.37386646866798401 0.89497047662734985 -0.24341681599617004
vn 0.37386646866798401 0.89497047662734985 -0.24341681599617004
vn 0.37386646866798401 0.89497047662734985 -0.24341681599617004
vn 0.37386646866798401 0.89497047662734985 -0.24341681599617004
vn 0.37386646866798401 0.89497047662734985 -0.24341681599617004
vn 0.37386646866798401 0.89497047662734985 -0.24341681599617004
vn 0.37386646866798401 0.89497047662734985 -0.24341681599617004
vn 0.37386646866798401 0.89497047662734985 -0.24341681599617004
vn 0.37386646866798401 0.89497047662734985 -0.24341681599617004
vn 0.37386646866798401 0.89497047662734985 -0.24341681599617004
vn 0.37386646866798401 0.89497047662734985 -0.24341681599617004
vn 0.37386646866798401 0.89497047662734985 -0.24341681599617004
vn 0.37386646866798401 0.89497047662734985 -0.24341681599617004
vn 0.37386646866798401 0.89497047662734985 -0.24341681599617004
vn 0.37386646866798401 0.89497047662734985 -0.24341681599617004
vn 0.37386646866798401 0.89497047662734985 -0.24341681599617004
vn 0.37386646866798401 0.89497047662734985 -0.24341681599617004
f 1/1/1 2/2/2 8/8/8 7/7/7 4/4/4 3/3/3 6/6/6 5/5/5
f 9/9/9 13/13/13 14/14/14 11/11/11 12/12/12 15/15/15 16/16/16 10/10/10
f 31/31/31 32/32/32 18/18/18 37/37/37 38/38/38 39/39/39 40/40/40 41/41/41 42/42/42 17/17/17 23/23/23 24/24/24 20/20/20 28/28/28 21/21/21 36/36/36 22/22/22
f 49/49/49 43/43/43 45/45/45 50/50/50 51/51/51 52/52/52 46/46/46 44/44/44 47/47/47 48/48/48
f 54/54/54 63/63/63 53/53/53 59/59/59 60/60/60 57/57/57 73/73/73 74/74/74 75/75/75 76/76/76 77/77/77 78/78/78 58/58/58 67/67/67 68/68/68 55/55/55 72/72/72
f 94/94/94 79/79/79 81/81/81 83/83/83 84/84/84 85/85/85 86/86/86 87/87/87 88/88/88 82/82/82 80/80/80 89/89/89 90/90/90 91/91/91 92/92/92 93/93/93
