# Rhino

mtllib 73.mtl
usemtl diffuse_White
v 1.2470654249191284 3.9596571922302246 1.8739053010940552
v 1.0786314010620117 3.9315769672393799 2.0798308849334717
v 1.2917417287826538 3.1765751838684082 1.819035530090332
v 1.1233078241348267 3.1484949588775635 2.0249612331390381
v 1.2694035768508911 3.5681161880493164 1.8464704751968384
v 1.1009695529937744 3.5400359630584717 2.0523960590362549
v -1.1920628547668457 4.3099799156188965 -1.1474205255508423
v -1.353886604309082 4.2809500694274902 -0.93330675363540649
v -1.2148145437240601 3.5365822315216064 -1.2858127355575562
v -1.3766381740570068 3.5075526237487793 -1.0716990232467651
v -1.1996467113494873 4.0521807670593262 -1.1935513019561768
v -1.2072306871414185 3.7943816184997559 -1.2396820783615112
v -1.3690543174743652 3.7653517723083496 -1.0255682468414307
v -1.3614704608917236 4.0231509208679199 -0.97943747043609619
v 1.2470654249191284 3.9596571922302246 1.8739053010940552
v -1.1920628547668457 4.3099799156188965 -1.1474205255508423
v 1.2917417287826538 3.1765751838684082 1.819035530090332
v 0.038463626056909561 3.3565788269042969 0.26661136746406555
v -1.2148145437240601 3.5365822315216064 -1.2858127355575562
v 1.2694035768508911 3.5681161880493164 1.8464704751968384
v 0.66510272026062012 3.2665770053863525 1.0428234338760376
v -1.2072306871414185 3.7943816184997559 -1.2396820783615112
v -1.1996467113494873 4.0521807670593262 -1.1935513019561768
v -0.58817541599273682 3.4465804100036621 -0.50960069894790649
v -0.58228081464767456 4.2223992347717285 -0.39208903908729553
v 0.02750125341117382 4.1348185539245605 0.36324241757392883
v 0.6372833251953125 4.0472378730773926 1.1185739040374756
v 1.2917417287826538 3.1765751838684082 1.819035530090332
v -1.2148145437240601 3.5365822315216064 -1.2858127355575562
v 1.1233078241348267 3.1484949588775635 2.0249612331390381
v -1.3766381740570068 3.5075526237487793 -1.0716990232467651
v -0.58817541599273682 3.4465804100036621 -0.50960069894790649
v 0.038463626056909561 3.3565788269042969 0.26661136746406555
v 0.66510272026062012 3.2665770053863525 1.0428234338760376
v 0.4983212947845459 3.2382593154907227 1.2507960796356201
v -0.12666520476341248 3.3280236721038818 0.4766310453414917
v -0.75165170431137085 3.4177882671356201 -0.29753398895263672
v 1.1233078241348267 3.1484949588775635 2.0249612331390381
v -0.12666520476341248 3.3280236721038818 0.4766310453414917
v -1.3766381740570068 3.5075526237487793 -1.0716990232467651
v 1.1009695529937744 3.5400359630584717 2.0523960590362549
v -0.13214638829231262 3.7171437740325928 0.52494657039642334
v 1.0786314010620117 3.9315769672393799 2.0798308849334717
v -1.353886604309082 4.2809500694274902 -0.93330675363540649
v 0.48441159725189209 3.6285898685455322 1.2886713743209839
v -0.12940579652786255 3.5225837230682373 0.50078880786895752
v 0.4983212947845459 3.2382593154907227 1.2507960796356201
v 0.49136644601821899 3.4334244728088379 1.2697336673736572
v -0.1348869800567627 3.9117035865783691 0.54910433292388916
v 0.47745674848556519 3.8237550258636475 1.307608962059021
v -1.3614704608917236 4.0231509208679199 -0.97943747043609619
v -1.3690543174743652 3.7653517723083496 -1.0255682468414307
v -0.74575704336166382 4.1936068534851074 -0.18002229928970337
v -0.74870437383651733 3.8056974411010742 -0.23877814412117004
v -0.74723070859909058 3.9996521472930908 -0.20940022170543671
v -0.75165170431137085 3.4177882671356201 -0.29753398895263672
v -0.75017803907394409 3.6117427349090576 -0.26815605163574219
v 0.47050189971923828 4.0189204216003418 1.3265465497970581
v -0.13762757182121277 4.1062636375427246 0.57326209545135498
v 1.0786314010620117 3.9315769672393799 2.0798308849334717
v -1.353886604309082 4.2809500694274902 -0.93330675363540649
v 1.2470654249191284 3.9596571922302246 1.8739053010940552
v -1.1920628547668457 4.3099799156188965 -1.1474205255508423
v 0.6372833251953125 4.0472378730773926 1.1185739040374756
v 0.02750125341117382 4.1348185539245605 0.36324241757392883
v -0.58228081464767456 4.2223992347717285 -0.39208903908729553
v -0.74575704336166382 4.1936068534851074 -0.18002229928970337
v -0.13762757182121277 4.1062636375427246 0.57326209545135498
v 0.47050189971923828 4.0189204216003418 1.3265465497970581
vt 0.11875271797180176 0
vt 0.11875271797180176 0.058840073645114899
vt 0.29169425368309021 0
vt 0.29169425368309021 0.058840073645114899
vt 0.20522348582744598 0
vt 0.20522348582744598 0.058840073645114899
vt 0.11875271797180176 0.11172746121883392
vt 0.11875271797180176 0.1711038202047348
vt 0.29163685441017151 0.11172746121883392
vt 0.29163685441017151 0.1711038202047348
vt 0.17638076841831207 0.11172746121883392
vt 0.23400881886482239 0.11172746121883392
vt 0.23400881886482239 0.1711038202047348
vt 0.17638076841831207 0.1711038202047348
vt 0.99853515625 0.55286026000976563
vt 0.11875271797180176 0.55286026000976563
vt 0.99853515625 0.72580176591873169
vt 0.55864393711090088 0.72580176591873169
vt 0.11875271797180176 0.72580176591873169
vt 0.99853515625 0.63933104276657104
vt 0.77858954668045044 0.72580176591873169
vt 0.11875271797180176 0.66815459728240967
vt 0.11875271797180176 0.61050742864608765
vt 0.33869832754135132 0.72580176591873169
vt 0.33869832754135132 0.55286026000976563
vt 0.55864393711090088 0.55286026000976563
vt 0.77858954668045044 0.55286026000976563
vt 0.059376358985900879 0
vt 0.059376358985900879 0.87978243827819824
vt 0.11728787422180176 0
vt 0.11728787422180176 0.87978243827819824
vt 0.059376358985900879 0.65983682870864868
vt 0.059376358985900879 0.43989121913909912
vt 0.059376358985900879 0.21994560956954956
vt 0.11728787422180176 0.21994560956954956
vt 0.11728787422180176 0.43989121913909912
vt 0.11728787422180176 0.65983682870864868
vt 0.99767595529556274 0.22447323799133301
vt 0.55821436643600464 0.22447323799133301
vt 0.11875271797180176 0.22447323799133301
vt 0.99767595529556274 0.31094399094581604
vt 0.55821436643600464 0.31094399094581604
vt 0.99767595529556274 0.39741474390029907
vt 0.11875271797180176 0.39741474390029907
vt 0.77794516086578369 0.31094399094581604
vt 0.55821436643600464 0.26770859956741333
vt 0.77794516086578369 0.22447323799133301
vt 0.77794516086578369 0.26770859956741333
vt 0.55821436643600464 0.35417938232421875
vt 0.77794516086578369 0.35417938232421875
vt 0.11875271797180176 0.33976757526397705
vt 0.11875271797180176 0.28212040662765503
vt 0.3384835422039032 0.39741474390029907
vt 0.3384835422039032 0.31094399094581604
vt 0.3384835422039032 0.35417938232421875
vt 0.3384835422039032 0.22447323799133301
vt 0.3384835422039032 0.26770859956741333
vt 0.77794516086578369 0.39741474390029907
vt 0.55821436643600464 0.39741474390029907
vt 0 0
vt 0 0.85754114389419556
vt 0.057911515235900879 0
vt 0.057911515235900879 0.85754114389419556
vt 0.057911515235900879 0.21438528597354889
vt 0.057911515235900879 0.42877057194709778
vt 0.057911515235900879 0.64315587282180786
vt 0 0.64315587282180786
vt 0 0.42877057194709778
vt 0 0.21438528597354889
vn 0.7740638256072998 -0.00019940006313845515 0.63310754299163818
vn 0.7740638256072998 -0.00019940006313845515 0.63310754299163818
vn 0.7740638256072998 -0.00019940006313845515 0.63310754299163818
vn 0.7740638256072998 -0.00019940006313845515 0.63310754299163818
vn 0.7740638256072998 -0.00019940006313845515 0.63310754299163818
vn 0.7740638256072998 -0.00019940006313845515 0.63310754299163818
vn -0.79946768283843994 0.12852086126804352 -0.58679962158203125
vn -0.79946768283843994 0.12852086126804352 -0.58679962158203125
vn -0.79946768283843994 0.12852086126804352 -0.58679962158203125
vn -0.79946768283843994 0.12852086126804352 -0.58679962158203125
vn -0.79946768283843994 0.12852086126804352 -0.58679962158203125
vn -0.79946768283843994 0.12852086126804352 -0.58679962158203125
vn -0.79946768283843994 0.12852086126804352 -0.58679962158203125
vn -0.79946768283843994 0.12852086126804352 -0.58679962158203125
vn 0.78003382682800293 0.087912432849407196 -0.61953097581863403
vn 0.78003382682800293 0.087912432849407196 -0.61953097581863403
vn 0.78003382682800293 0.087912432849407196 -0.61953097581863403
vn 0.78003382682800293 0.087912432849407196 -0.61953097581863403
vn 0.78003382682800293 0.087912432849407196 -0.61953097581863403
vn 0.78003382682800293 0.087912432849407196 -0.61953097581863403
vn 0.78003382682800293 0.087912432849407196 -0.61953097581863403
vn 0.78003382682800293 0.087912432849407196 -0.61953097581863403
vn 0.78003382682800293 0.087912432849407196 -0.61953097581863403
vn 0.78003382682800293 0.087912432849407196 -0.61953097581863403
vn 0.78003382682800293 0.087912432849407196 -0.61953097581863403
vn 0.78003382682800293 0.087912432849407196 -0.61953097581863403
vn 0.78003382682800293 0.087912432849407196 -0.61953097581863403
vn 0.012459377758204937 -0.99206733703613281 -0.12508869171142578
vn 0.012459377758204937 -0.99206733703613281 -0.12508869171142578
vn 0.012459377758204937 -0.99206733703613281 -0.12508869171142578
vn 0.012459377758204937 -0.99206733703613281 -0.12508869171142578
vn 0.012459377758204937 -0.99206733703613281 -0.12508869171142578
vn 0.012459377758204937 -0.99206733703613281 -0.12508869171142578
vn 0.012459377758204937 -0.99206733703613281 -0.12508869171142578
vn 0.012459377758204937 -0.99206733703613281 -0.12508869171142578
vn 0.012459377758204937 -0.99206733703613281 -0.12508869171142578
vn 0.012459377758204937 -0.99206733703613281 -0.12508869171142578
vn -0.78003382682800293 -0.087912432849407196 0.61953097581863403
vn -0.78003382682800293 -0.087912432849407196 0.61953097581863403
vn -0.78003382682800293 -0.087912432849407196 0.61953097581863403
vn -0.78003382682800293 -0.087912432849407196 0.61953097581863403
vn -0.78003382682800293 -0.087912432849407196 0.61953097581863403
vn -0.78003382682800293 -0.087912432849407196 0.61953097581863403
vn -0.78003382682800293 -0.087912432849407196 0.61953097581863403
vn -0.78003382682800293 -0.087912432849407196 0.61953097581863403
vn -0.78003382682800293 -0.087912432849407196 0.61953097581863403
vn -0.78003382682800293 -0.087912432849407196 0.61953097581863403
vn -0.78003382682800293 -0.087912432849407196 0.61953097581863403
vn -0.78003382682800293 -0.087912432849407196 0.61953097581863403
vn -0.78003382682800293 -0.087912432849407196 0.61953097581863403
vn -0.78003382682800293 -0.087912432849407196 0.61953097581863403
vn -0.78003382682800293 -0.087912432849407196 0.61953097581863403
vn -0.78003382682800293 -0.087912432849407196 0.61953097581863403
vn -0.78003382682800293 -0.087912432849407196 0.61953097581863403
vn -0.78003382682800293 -0.087912432849407196 0.61953097581863403
vn -0.78003382682800293 -0.087912432849407196 0.61953097581863403
vn -0.78003382682800293 -0.087912432849407196 0.61953097581863403
vn -0.78003382682800293 -0.087912432849407196 0.61953097581863403
vn -0.78003382682800293 -0.087912432849407196 0.61953097581863403
vn -0.012459377758204937 0.99206733703613281 0.12508869171142578
vn -0.012459377758204937 0.99206733703613281 0.12508869171142578
vn -0.012459377758204937 0.99206733703613281 0.12508869171142578
vn -0.012459377758204937 0.99206733703613281 0.12508869171142578
vn -0.012459377758204937 0.99206733703613281 0.12508869171142578
vn -0.012459377758204937 0.99206733703613281 0.12508869171142578
vn -0.012459377758204937 0.99206733703613281 0.12508869171142578
vn -0.012459377758204937 0.99206733703613281 0.12508869171142578
vn -0.012459377758204937 0.99206733703613281 0.12508869171142578
vn -0.012459377758204937 0.99206733703613281 0.12508869171142578
f 1/1/1 2/2/2 6/6/6 4/4/4 3/3/3 5/5/5
f 7/7/7 11/11/11 12/12/12 9/9/9 10/10/10 13/13/13 14/14/14 8/8/8
f 26/26/26 27/27/27 15/15/15 20/20/20 17/17/17 21/21/21 18/18/18 24/24/24 19/19/19 22/22/22 23/23/23 16/16/16 25/25/25
f 34/34/34 28/28/28 30/30/30 35/35/35 36/36/36 37/37/37 31/31/31 29/29/29 32/32/32 33/33/33
f 39/39/39 47/47/47 38/38/38 41/41/41 43/43/43 58/58/58 59/59/59 53/53/53 44/44/44 51/51/51 52/52/52 40/40/40 56/56/56
f 69/69/69 60/60/60 62/62/62 64/64/64 65/65/65 66/66/66 63/63/63 61/61/61 67/67/67 68/68/68
