# Rhino

mtllib 75.mtl
usemtl diffuse_White
v 5.7095432281494141 5.3755331039428711 7.6834650039672852
v 5.619840145111084 5.1914024353027344 7.8460822105407715
v 6.4057669639587402 4.9670090675354004 7.595848560333252
v 6.3160643577575684 4.7828783988952637 7.7584657669067383
v 6.0576553344726563 5.1712713241577148 7.6396565437316895
v 5.9679522514343262 4.9871401786804199 7.802274227142334
v 3.4440629482269287 4.0047402381896973 5.0434756278991699
v 3.3524773120880127 3.8194704055786133 5.2038989067077637
v 3.9895169734954834 3.504988431930542 4.7801647186279297
v 3.8979310989379883 3.319718599319458 4.9405884742736816
v 3.6258809566497803 3.8381564617156982 4.9557051658630371
v 3.8076989650726318 3.6715724468231201 4.8679351806640625
v 3.7161133289337158 3.486302375793457 5.0283584594726563
v 3.5342953205108643 3.6528863906860352 5.1161289215087891
v 5.7095432281494141 5.3755331039428711 7.6834650039672852
v 3.4440629482269287 4.0047402381896973 5.0434756278991699
v 6.0576553344726563 5.1712713241577148 7.6396565437316895
v 4.8872227668762207 4.4630680084228516 6.2757382392883301
v 6.4057669639587402 4.9670090675354004 7.595848560333252
v 3.9895169734954834 3.504988431930542 4.7801647186279297
v 5.4724388122558594 4.8171696662902832 6.9576973915100098
v 4.7320127487182617 4.5766024589538574 6.3196043968200684
v 5.3078060150146484 4.9250020980834961 6.9905824661254883
v 5.8017044067382813 4.601503849029541 6.8919272422790527
v 5.0424323081970215 4.3495330810546875 6.23187255859375
v 5.6370716094970703 4.7093367576599121 6.9248123168945313
v 3.8076989650726318 3.6715724468231201 4.8679351806640625
v 3.6258809566497803 3.8381564617156982 4.9557051658630371
v 4.5935792922973633 3.8704936504364014 5.4840855598449707
v 4.3020062446594238 4.1089663505554199 5.5937790870666504
v 4.4477930068969727 3.9897298812866211 5.5389323234558105
v 4.156219482421875 4.2282023429870605 5.6486258506774902
v 6.1037359237670898 4.7842564582824707 7.2438879013061523
v 5.4996733665466309 4.4187512397766113 6.5399670600891113
v 5.1976418495178223 4.2359986305236816 6.1880064010620117
v 4.8956108093261719 4.053246021270752 5.8360462188720703
v 4.2915482521057129 3.6877410411834717 5.1321253776550293
v 3.7677030563354492 4.2005677223205566 5.420616626739502
v 4.0913429260253906 4.3963956832885742 5.7977581024169922
v 4.4149832725524902 4.5922231674194336 6.1748995780944824
v 4.7386231422424316 4.788050651550293 6.5520410537719727
v 5.062263011932373 4.9838781356811523 6.9291820526123047
v 5.3859033584594727 5.1797056198120117 7.3063235282897949
v 6.4057669639587402 4.9670090675354004 7.595848560333252
v 5.1976418495178223 4.2359986305236816 6.1880064010620117
v 3.9895169734954834 3.504988431930542 4.7801647186279297
v 6.3160643577575684 4.7828783988952637 7.7584657669067383
v 4.7039756774902344 3.8074383735656738 5.8798809051513672
v 3.8979310989379883 3.319718599319458 4.9405884742736816
v 4.2915482521057129 3.6877410411834717 5.1321253776550293
v 4.5935792922973633 3.8704936504364014 5.4840855598449707
v 4.8956108093261719 4.053246021270752 5.8360462188720703
v 5.4996733665466309 4.4187512397766113 6.5399670600891113
v 5.8017044067382813 4.601503849029541 6.8919272422790527
v 6.1037359237670898 4.7842564582824707 7.2438879013061523
v 6.0473828315734863 4.620305061340332 7.4453682899475098
v 5.7787013053894043 4.4577317237854004 7.1322708129882813
v 5.5100197792053223 4.2951583862304688 6.8191733360290527
v 5.2413382530212402 4.1325850486755371 6.5060758590698242
v 4.9726567268371582 3.9700117111206055 6.1929783821105957
v 4.4352941513061523 3.6448650360107422 5.5667834281921387
v 4.1666126251220703 3.4822916984558105 5.2536859512329102
v 5.9580502510070801 4.6311788558959961 7.2076935768127441
v 5.1523199081420898 4.143648624420166 6.2687668800354004
v 4.7494544982910156 3.899883508682251 5.7993035316467285
v 4.3465890884399414 3.656118631362915 5.3298401832580566
v 6.3160643577575684 4.7828783988952637 7.7584657669067383
v 3.8979310989379883 3.319718599319458 4.9405884742736816
v 5.9679522514343262 4.9871401786804199 7.802274227142334
v 4.7965784072875977 4.2783675193786621 6.4372587203979492
v 5.619840145111084 5.1914024353027344 7.8460822105407715
v 3.3524773120880127 3.8194704055786133 5.2038989067077637
v 5.3822650909423828 4.632753849029541 7.1197667121887207
v 4.9517879486083984 4.1648330688476563 6.3933930397033691
v 5.5468978881835938 4.5249209403991699 7.0868816375732422
v 4.6413683891296387 4.391901969909668 6.4811248779296875
v 5.2176322937011719 4.7405867576599121 7.152651309967041
v 3.5342953205108643 3.6528863906860352 5.1161289215087891
v 3.7161133289337158 3.486302375793457 5.0283584594726563
v 4.2108912467956543 3.9239809513092041 5.7547512054443359
v 4.0651044845581055 4.0432171821594238 5.8095979690551758
v 4.3566780090332031 3.8047447204589844 5.6999044418334961
v 4.1666126251220703 3.4822916984558105 5.2536859512329102
v 4.4352941513061523 3.6448650360107422 5.5667834281921387
v 4.7039756774902344 3.8074383735656738 5.8798809051513672
v 4.9726567268371582 3.9700117111206055 6.1929783821105957
v 5.2413382530212402 4.1325850486755371 6.5060758590698242
v 5.5100197792053223 4.2951583862304688 6.8191733360290527
v 5.7787013053894043 4.4577317237854004 7.1322708129882813
v 6.0473828315734863 4.620305061340332 7.4453682899475098
v 5.295931339263916 4.9954123497009277 7.4686274528503418
v 4.9720220565795898 4.7994217872619629 7.0911726951599121
v 4.6481132507324219 4.6034317016601563 6.7137179374694824
v 4.3242044448852539 4.4074411392211914 6.3362631797790527
v 4.0002951622009277 4.2114510536193848 5.958808422088623
v 3.6763863563537598 4.0154604911804199 5.5813536643981934
v 5.619840145111084 5.1914024353027344 7.8460822105407715
v 3.3524773120880127 3.8194704055786133 5.2038989067077637
v 5.7095432281494141 5.3755331039428711 7.6834650039672852
v 3.4440629482269287 4.0047402381896973 5.0434756278991699
v 5.3859033584594727 5.1797056198120117 7.3063235282897949
v 5.062263011932373 4.9838781356811523 6.9291820526123047
v 4.7386231422424316 4.788050651550293 6.5520410537719727
v 4.4149832725524902 4.5922231674194336 6.1748995780944824
v 4.0913429260253906 4.3963956832885742 5.7977581024169922
v 3.7677030563354492 4.2005677223205566 5.420616626739502
v 3.6763863563537598 4.0154604911804199 5.5813536643981934
v 4.0002951622009277 4.2114510536193848 5.958808422088623
v 4.3242044448852539 4.4074411392211914 6.3362631797790527
v 4.6481132507324219 4.6034317016601563 6.7137179374694824
v 4.9720220565795898 4.7994217872619629 7.0911726951599121
v 5.295931339263916 4.9954123497009277 7.4686274528503418
v 5.2114071846008301 5.0091953277587891 7.2365565299987793
v 4.3048386573791504 4.4606504440307617 6.180121898651123
v 3.8515543937683105 4.186378002166748 5.6519045829772949
vt 0.11590968817472458 0.10772788524627686
vt 0.11590968817472458 0.16566012799739838
vt 0.2957751452922821 0.10772788524627686
vt 0.2957751452922821 0.16566012799739838
vt 0.20584240555763245 0.10772788524627686
vt 0.20584240555763245 0.16566012799739838
vt 0.11590968817472458 0
vt 0.11590968817472458 0.057954844087362289
vt 0.28985416889190674 0
vt 0.28985416889190674 0.057954844087362289
vt 0.17389118671417236 0
vt 0.23187267780303955 0
vt 0.23187267780303955 0.057954844087362289
vt 0.17389118671417236 0.057954844087362289
vt 0.99853515625 0.21541374921798706
vt 0.11590968817472458 0.21541374921798706
vt 0.99853515625 0.30534645915031433
vt 0.55722242593765259 0.30534645915031433
vt 0.99853515625 0.39527919888496399
vt 0.11590968817472458 0.39527919888496399
vt 0.77787876129150391 0.30534645915031433
vt 0.55722242593765259 0.2603800892829895
vt 0.77787876129150391 0.2603800892829895
vt 0.77787876129150391 0.39527919888496399
vt 0.55722242593765259 0.35031282901763916
vt 0.77787876129150391 0.35031282901763916
vt 0.11590968817472458 0.33532404899597168
vt 0.11590968817472458 0.27536889910697937
vt 0.33656606078147888 0.39527919888496399
vt 0.33656606078147888 0.30534645915031433
vt 0.33656606078147888 0.35031282901763916
vt 0.33656606078147888 0.2603800892829895
vt 0.88820695877075195 0.39527919888496399
vt 0.66755062341690063 0.39527919888496399
vt 0.55722242593765259 0.39527919888496399
vt 0.44689422845840454 0.39527919888496399
vt 0.22623787820339203 0.39527919888496399
vt 0.24199903011322021 0.21541374921798706
vt 0.36808839440345764 0.21541374921798706
vt 0.49417772889137268 0.21541374921798706
vt 0.62026709318161011 0.21541374921798706
vt 0.74635642766952515 0.21541374921798706
vt 0.87244582176208496 0.21541374921798706
vt 0.057954844087362289 0
vt 0.057954844087362289 0.44131273031234741
vt 0.057954844087362289 0.88262546062469482
vt 0.11444484442472458 0
vt 0.11444484442472458 0.58841699361801147
vt 0.11444484442472458 0.88262546062469482
vt 0.057954844087362289 0.77229726314544678
vt 0.057954844087362289 0.66196912527084351
vt 0.057954844087362289 0.55164092779159546
vt 0.057954844087362289 0.33098456263542175
vt 0.057954844087362289 0.22065636515617371
vt 0.057954844087362289 0.11032818257808685
vt 0.11444484442472458 0.09806949645280838
vt 0.11444484442472458 0.19613899290561676
vt 0.11444484442472458 0.29420849680900574
vt 0.11444484442472458 0.39227798581123352
vt 0.11444484442472458 0.49034750461578369
vt 0.11444484442472458 0.68648648262023926
vt 0.11444484442472458 0.78455597162246704
vt 0.086199849843978882 0.14710424840450287
vt 0.086199849843978882 0.44131273031234741
vt 0.086199849843978882 0.58841699361801147
vt 0.086199849843978882 0.73552119731903076
vt 0.99853515625 0.54975199699401855
vt 0.11590968817472458 0.54975199699401855
vt 0.99853515625 0.63968473672866821
vt 0.55722242593765259 0.63968473672866821
vt 0.99853515625 0.72961747646331787
vt 0.11590968817472458 0.72961747646331787
vt 0.77787876129150391 0.63968473672866821
vt 0.55722242593765259 0.59471839666366577
vt 0.77787876129150391 0.59471839666366577
vt 0.55722242593765259 0.68465113639831543
vt 0.77787876129150391 0.68465113639831543
vt 0.11590968817472458 0.66966229677200317
vt 0.11590968817472458 0.60970717668533325
vt 0.33656606078147888 0.63968473672866821
vt 0.33656606078147888 0.68465113639831543
vt 0.33656606078147888 0.59471839666366577
vt 0.21397918462753296 0.54975199699401855
vt 0.31204867362976074 0.54975199699401855
vt 0.41011816263198853 0.54975199699401855
vt 0.50818765163421631 0.54975199699401855
vt 0.60625714063644409 0.54975199699401855
vt 0.70432662963867188 0.54975199699401855
vt 0.80239617824554443 0.54975199699401855
vt 0.90046566724777222 0.54975199699401855
vt 0.87244582176208496 0.72961747646331787
vt 0.74635642766952515 0.72961747646331787
vt 0.62026709318161011 0.72961747646331787
vt 0.49417772889137268 0.72961747646331787
vt 0.36808839440345764 0.72961747646331787
vt 0.24199903011322021 0.72961747646331787
vt 0 0
vt 0 0.82896745204925537
vt 0.056490000337362289 0
vt 0.056490000337362289 0.82896745204925537
vt 0.056490000337362289 0.11842393130064011
vt 0.056490000337362289 0.23684786260128021
vt 0.056490000337362289 0.35527178645133972
vt 0.056490000337362289 0.47369572520256042
vt 0.056490000337362289 0.59211963415145874
vt 0.056490000337362289 0.71054357290267944
vt 0 0.71054357290267944
vt 0 0.59211963415145874
vt 0 0.47369572520256042
vt 0 0.35527178645133972
vt 0 0.23684786260128021
vt 0 0.11842393130064011
vt 0.028245000168681145 0.16579349339008331
vt 0.028245000168681145 0.49738049507141113
vt 0.028245000168681145 0.66317397356033325
vn 0.38882920145988464 0.49616679549217224 0.77629274129867554
vn 0.38882920145988464 0.49616679549217224 0.77629274129867554
vn 0.38882920145988464 0.49616679549217224 0.77629274129867554
vn 0.38882920145988464 0.49616679549217224 0.77629274129867554
vn 0.38882920145988464 0.49616679549217224 0.77629274129867554
vn 0.38882920145988464 0.49616679549217224 0.77629274129867554
vn -0.62770438194274902 -0.30854853987693787 -0.71469223499298096
vn -0.62770438194274902 -0.30854853987693787 -0.71469223499298096
vn -0.62770438194274902 -0.30854853987693787 -0.71469223499298096
vn -0.62770438194274902 -0.30854853987693787 -0.71469223499298096
vn -0.62770438194274902 -0.30854853987693787 -0.71469223499298096
vn -0.62770438194274902 -0.30854853987693787 -0.71469223499298096
vn -0.62770438194274902 -0.30854853987693787 -0.71469223499298096
vn -0.62770438194274902 -0.30854853987693787 -0.71469223499298096
vn 0.32681232690811157 0.69445145130157471 -0.64103889465332031
vn 0.32681232690811157 0.69445145130157471 -0.64103889465332031
vn 0.32681232690811157 0.69445145130157471 -0.64103889465332031
vn 0.32681232690811157 0.69445145130157471 -0.64103889465332031
vn 0.32681232690811157 0.69445145130157471 -0.64103889465332031
vn 0.32681232690811157 0.69445145130157471 -0.64103889465332031
vn 0.32681232690811157 0.69445145130157471 -0.64103889465332031
vn 0.32681232690811157 0.69445145130157471 -0.64103889465332031
vn 0.32681232690811157 0.69445145130157471 -0.64103889465332031
vn 0.32681232690811157 0.69445145130157471 -0.64103889465332031
vn 0.32681232690811157 0.69445145130157471 -0.64103889465332031
vn 0.32681232690811157 0.69445145130157471 -0.64103889465332031
vn 0.32681232690811157 0.69445145130157471 -0.64103889465332031
vn 0.32681232690811157 0.69445145130157471 -0.64103889465332031
vn 0.32681232690811157 0.69445145130157471 -0.64103889465332031
vn 0.32681232690811157 0.69445145130157471 -0.64103889465332031
vn 0.32681232690811157 0.69445145130157471 -0.64103889465332031
vn 0.32681232690811157 0.69445145130157471 -0.64103889465332031
vn 0.32681232690811157 0.69445145130157471 -0.64103889465332031
vn 0.32681232690811157 0.69445145130157471 -0.64103889465332031
vn 0.32681232690811157 0.69445145130157471 -0.64103889465332031
vn 0.32681232690811157 0.69445145130157471 -0.64103889465332031
vn 0.32681232690811157 0.69445145130157471 -0.64103889465332031
vn 0.32681232690811157 0.69445145130157471 -0.64103889465332031
vn 0.32681232690811157 0.69445145130157471 -0.64103889465332031
vn 0.32681232690811157 0.69445145130157471 -0.64103889465332031
vn 0.32681232690811157 0.69445145130157471 -0.64103889465332031
vn 0.32681232690811157 0.69445145130157471 -0.64103889465332031
vn 0.32681232690811157 0.69445145130157471 -0.64103889465332031
vn 0.72532469034194946 -0.61914092302322388 -0.30094620585441589
vn 0.72532469034194946 -0.61914092302322388 -0.30094620585441589
vn 0.72532469034194946 -0.61914092302322388 -0.30094620585441589
vn 0.72532469034194946 -0.61914092302322388 -0.30094620585441589
vn 0.72532469034194946 -0.61914092302322388 -0.30094620585441589
vn 0.72532469034194946 -0.61914092302322388 -0.30094620585441589
vn 0.72532469034194946 -0.61914092302322388 -0.30094620585441589
vn 0.72532469034194946 -0.61914092302322388 -0.30094620585441589
vn 0.72532469034194946 -0.61914092302322388 -0.30094620585441589
vn 0.72532469034194946 -0.61914092302322388 -0.30094620585441589
vn 0.72532469034194946 -0.61914092302322388 -0.30094620585441589
vn 0.72532469034194946 -0.61914092302322388 -0.30094620585441589
vn 0.72532469034194946 -0.61914092302322388 -0.30094620585441589
vn 0.72532469034194946 -0.61914092302322388 -0.30094620585441589
vn 0.72532469034194946 -0.61914092302322388 -0.30094620585441589
vn 0.72532469034194946 -0.61914092302322388 -0.30094620585441589
vn 0.72532469034194946 -0.61914092302322388 -0.30094620585441589
vn 0.72532469034194946 -0.61914092302322388 -0.30094620585441589
vn 0.72532469034194946 -0.61914092302322388 -0.30094620585441589
vn 0.72532469034194946 -0.61914092302322388 -0.30094620585441589
vn 0.72532469034194946 -0.61914092302322388 -0.30094620585441589
vn 0.72532469034194946 -0.61914092302322388 -0.30094620585441589
vn 0.72532469034194946 -0.61914092302322388 -0.30094620585441589
vn -0.32681232690811157 -0.69445145130157471 0.64103889465332031
vn -0.32681232690811157 -0.69445145130157471 0.64103889465332031
vn -0.32681232690811157 -0.69445145130157471 0.64103889465332031
vn -0.32681232690811157 -0.69445145130157471 0.64103889465332031
vn -0.32681232690811157 -0.69445145130157471 0.64103889465332031
vn -0.32681232690811157 -0.69445145130157471 0.64103889465332031
vn -0.32681232690811157 -0.69445145130157471 0.64103889465332031
vn -0.32681232690811157 -0.69445145130157471 0.64103889465332031
vn -0.32681232690811157 -0.69445145130157471 0.64103889465332031
vn -0.32681232690811157 -0.69445145130157471 0.64103889465332031
vn -0.32681232690811157 -0.69445145130157471 0.64103889465332031
vn -0.32681232690811157 -0.69445145130157471 0.64103889465332031
vn -0.32681232690811157 -0.69445145130157471 0.64103889465332031
vn -0.32681232690811157 -0.69445145130157471 0.64103889465332031
vn -0.32681232690811157 -0.69445145130157471 0.64103889465332031
vn -0.32681232690811157 -0.69445145130157471 0.64103889465332031
vn -0.32681232690811157 -0.69445145130157471 0.64103889465332031
vn -0.32681232690811157 -0.69445145130157471 0.64103889465332031
vn -0.32681232690811157 -0.69445145130157471 0.64103889465332031
vn -0.32681232690811157 -0.69445145130157471 0.64103889465332031
vn -0.32681232690811157 -0.69445145130157471 0.64103889465332031
vn -0.32681232690811157 -0.69445145130157471 0.64103889465332031
vn -0.32681232690811157 -0.69445145130157471 0.64103889465332031
vn -0.32681232690811157 -0.69445145130157471 0.64103889465332031
vn -0.32681232690811157 -0.69445145130157471 0.64103889465332031
vn -0.32681232690811157 -0.69445145130157471 0.64103889465332031
vn -0.32681232690811157 -0.69445145130157471 0.64103889465332031
vn -0.32681232690811157 -0.69445145130157471 0.64103889465332031
vn -0.32681232690811157 -0.69445145130157471 0.64103889465332031
vn -0.32681232690811157 -0.69445145130157471 0.64103889465332031
vn -0.72532469034194946 0.61914092302322388 0.30094620585441589
vn -0.72532469034194946 0.61914092302322388 0.30094620585441589
vn -0.72532469034194946 0.61914092302322388 0.30094620585441589
vn -0.72532469034194946 0.61914092302322388 0.30094620585441589
vn -0.72532469034194946 0.61914092302322388 0.30094620585441589
vn -0.72532469034194946 0.61914092302322388 0.30094620585441589
vn -0.72532469034194946 0.61914092302322388 0.30094620585441589
vn -0.72532469034194946 0.61914092302322388 0.30094620585441589
vn -0.72532469034194946 0.61914092302322388 0.30094620585441589
vn -0.72532469034194946 0.61914092302322388 0.30094620585441589
vn -0.72532469034194946 0.61914092302322388 0.30094620585441589
vn -0.72532469034194946 0.61914092302322388 0.30094620585441589
vn -0.72532469034194946 0.61914092302322388 0.30094620585441589
vn -0.72532469034194946 0.61914092302322388 0.30094620585441589
vn -0.72532469034194946 0.61914092302322388 0.30094620585441589
vn -0.72532469034194946 0.61914092302322388 0.30094620585441589
vn -0.72532469034194946 0.61914092302322388 0.30094620585441589
vn -0.72532469034194946 0.61914092302322388 0.30094620585441589
vn -0.72532469034194946 0.61914092302322388 0.30094620585441589
f 1/1/1 2/2/2 6/6/6 4/4/4 3/3/3 5/5/5
f 7/7/7 11/11/11 12/12/12 9/9/9 10/10/10 13/13/13 14/14/14 8/8/8
f 41/41/41 42/42/42 43/43/43 15/15/15 17/17/17 19/19/19 33/33/33 24/24/24 34/34/34 35/35/35 36/36/36 29/29/29 37/37/37 20/20/20 27/27/27 28/28/28 16/16/16 38/38/38 39/39/39 40/40/40
f 55/55/55 44/44/44 47/47/47 56/56/56 57/57/57 58/58/58 59/59/59 60/60/60 48/48/48 61/61/61 62/62/62 49/49/49 46/46/46 50/50/50 51/51/51 52/52/52 45/45/45 53/53/53 54/54/54
f 87/87/87 88/88/88 89/89/89 90/90/90 67/67/67 69/69/69 71/71/71 91/91/91 92/92/92 93/93/93 94/94/94 95/95/95 96/96/96 72/72/72 78/78/78 79/79/79 68/68/68 83/83/83 84/84/84 85/85/85 86/86/86
f 112/112/112 97/97/97 99/99/99 101/101/101 102/102/102 103/103/103 104/104/104 105/105/105 106/106/106 100/100/100 98/98/98 107/107/107 108/108/108 109/109/109 110/110/110 111/111/111
