# Rhino

mtllib 82.mtl
usemtl diffuse_White
v 2.9919474124908447 12.33060359954834 -8.1347627639770508
v 2.8478176593780518 12.566356658935547 -8.0904722213745117
v 2.3998892307281494 12.038782119750977 -8.5589408874511719
v 2.2557594776153564 12.274535179138184 -8.5146503448486328
v 2.6959183216094971 12.184693336486816 -8.3468513488769531
v 2.5517885684967041 12.420446395874023 -8.3025617599487305
v 3.7899830341339111 12.422907829284668 -9.3914365768432617
v 3.6471309661865234 12.658807754516602 -9.3491582870483398
v 3.1928486824035645 12.130498886108398 -9.807621955871582
v 3.0499966144561768 12.366399765014648 -9.7653436660766602
v 3.4914159774780273 12.276702880859375 -9.5995292663574219
v 3.3485636711120605 12.512603759765625 -9.5572509765625
v 2.9919474124908447 12.33060359954834 -8.1347627639770508
v 3.7899830341339111 12.422907829284668 -9.3914365768432617
v 2.3998892307281494 12.038782119750977 -8.5589408874511719
v 3.1928486824035645 12.130498886108398 -9.807621955871582
v 2.6959183216094971 12.184693336486816 -8.3468513488769531
v 3.4914159774780273 12.276702880859375 -9.5995292663574219
v 2.6642091274261475 12.069355010986328 -8.9751682281494141
v 2.9285290241241455 12.099926948547363 -9.3913946151733398
v 3.5239710807800293 12.392139434814453 -8.9725456237792969
v 3.2579593658447266 12.361371994018555 -8.5536537170410156
v 2.3998892307281494 12.038782119750977 -8.5589408874511719
v 3.1928486824035645 12.130498886108398 -9.807621955871582
v 2.2557594776153564 12.274535179138184 -8.5146503448486328
v 3.0499966144561768 12.366399765014648 -9.7653436660766602
v 2.9285290241241455 12.099926948547363 -9.3913946151733398
v 2.6642091274261475 12.069355010986328 -8.9751682281494141
v 2.5205051898956299 12.305156707763672 -8.9315481185913086
v 2.7852509021759033 12.33577823638916 -9.3484458923339844
v 2.2557594776153564 12.274535179138184 -8.5146503448486328
v 3.0499966144561768 12.366399765014648 -9.7653436660766602
v 2.8478176593780518 12.566356658935547 -8.0904722213745117
v 3.6471309661865234 12.658807754516602 -9.3491582870483398
v 2.5517885684967041 12.420446395874023 -8.3025617599487305
v 3.3485636711120605 12.512603759765625 -9.5572509765625
v 2.7852509021759033 12.33577823638916 -9.3484458923339844
v 2.5205051898956299 12.305156707763672 -8.9315481185913086
v 3.114255428314209 12.597173690795898 -8.5100345611572266
v 3.3806931972503662 12.62799072265625 -8.929595947265625
v 2.8478176593780518 12.566356658935547 -8.0904722213745117
v 3.6471309661865234 12.658807754516602 -9.3491582870483398
v 2.9919474124908447 12.33060359954834 -8.1347627639770508
v 3.7899830341339111 12.422907829284668 -9.3914365768432617
v 3.2579593658447266 12.361371994018555 -8.5536537170410156
v 3.5239710807800293 12.392139434814453 -8.9725456237792969
v 3.3806931972503662 12.62799072265625 -8.929595947265625
v 3.114255428314209 12.597173690795898 -8.5100345611572266
vt 0.2630043625831604 0.13110607862472534
vt 0.2630043625831604 0.26114341616630554
vt 0.63170021772384644 0.13110607862472534
vt 0.63170021772384644 0.26114341616630554
vt 0.44735229015350342 0.13110607862472534
vt 0.44735229015350342 0.26114341616630554
vt 0.2630043625831604 0
vt 0.2630043625831604 0.12964123487472534
vt 0.6315990686416626 0
vt 0.6315990686416626 0.12964123487472534
vt 0.4473017156124115 0
vt 0.4473017156124115 0.12964123487472534
vt 0.96353405714035034 0.26260825991630554
vt 0.2630043625831604 0.26260825991630554
vt 0.96353405714035034 0.62983930110931396
vt 0.2630043625831604 0.62983930110931396
vt 0.96353405714035034 0.44622376561164856
vt 0.2630043625831604 0.44622376561164856
vt 0.73002415895462036 0.62983930110931396
vt 0.49651426076889038 0.62983930110931396
vt 0.49651426076889038 0.26260825991630554
vt 0.73002415895462036 0.26260825991630554
vt 0 0
vt 0 0.6975364089012146
vt 0.1300373375415802 0
vt 0.1300373375415802 0.6975364089012146
vt 0 0.46502429246902466
vt 0 0.23251214623451233
vt 0.1300373375415802 0.23251214623451233
vt 0.1300373375415802 0.46502429246902466
vt 0.96353405714035034 0.63130414485931396
vt 0.2630043625831604 0.63130414485931396
vt 0.96353405714035034 0.99853515625
vt 0.2630043625831604 0.99853515625
vt 0.96353405714035034 0.81491965055465698
vt 0.2630043625831604 0.81491965055465698
vt 0.49651426076889038 0.63130414485931396
vt 0.73002415895462036 0.63130414485931396
vt 0.73002415895462036 0.99853515625
vt 0.49651426076889038 0.99853515625
vt 0.1315021812915802 0
vt 0.1315021812915802 0.70199453830718994
vt 0.2615395188331604 0
vt 0.2615395188331604 0.70199453830718994
vt 0.2615395188331604 0.23399819433689117
vt 0.2615395188331604 0.46799638867378235
vt 0.1315021812915802 0.46799638867378235
vt 0.1315021812915802 0.23399819433689117
vn -0.39659446477890015 -0.39788162708282471 0.82728654146194458
vn -0.39659446477890015 -0.39788162708282471 0.82728654146194458
vn -0.39659446477890015 -0.39788162708282471 0.82728654146194458
vn -0.39659446477890015 -0.39788162708282471 0.82728654146194458
vn -0.39659446477890015 -0.39788162708282471 0.82728654146194458
vn -0.39659446477890015 -0.39788162708282471 0.82728654146194458
vn 0.39212676882743835 0.38702353835105896 -0.83453541994094849
vn 0.39212676882743835 0.38702353835105896 -0.83453541994094849
vn 0.39212676882743835 0.38702353835105896 -0.83453541994094849
vn 0.39212676882743835 0.38702353835105896 -0.83453541994094849
vn 0.39212676882743835 0.38702353835105896 -0.83453541994094849
vn 0.39212676882743835 0.38702353835105896 -0.83453541994094849
vn 0.34696915745735168 -0.92541724443435669 0.15236584842205048
vn 0.34696915745735168 -0.92541724443435669 0.15236584842205048
vn 0.34696915745735168 -0.92541724443435669 0.15236584842205048
vn 0.34696915745735168 -0.92541724443435669 0.15236584842205048
vn 0.34696915745735168 -0.92541724443435669 0.15236584842205048
vn 0.34696915745735168 -0.92541724443435669 0.15236584842205048
vn 0.34696915745735168 -0.92541724443435669 0.15236584842205048
vn 0.34696915745735168 -0.92541724443435669 0.15236584842205048
vn 0.34696915745735168 -0.92541724443435669 0.15236584842205048
vn 0.34696915745735168 -0.92541724443435669 0.15236584842205048
vn -0.77028095722198486 -0.37386238574981689 -0.51661801338195801
vn -0.77028095722198486 -0.37386238574981689 -0.51661801338195801
vn -0.77028095722198486 -0.37386238574981689 -0.51661801338195801
vn -0.77028095722198486 -0.37386238574981689 -0.51661801338195801
vn -0.77028095722198486 -0.37386238574981689 -0.51661801338195801
vn -0.77028095722198486 -0.37386238574981689 -0.51661801338195801
vn -0.77028095722198486 -0.37386238574981689 -0.51661801338195801
vn -0.77028095722198486 -0.37386238574981689 -0.51661801338195801
vn -0.34696915745735168 0.92541724443435669 -0.15236584842205048
vn -0.34696915745735168 0.92541724443435669 -0.15236584842205048
vn -0.34696915745735168 0.92541724443435669 -0.15236584842205048
vn -0.34696915745735168 0.92541724443435669 -0.15236584842205048
vn -0.34696915745735168 0.92541724443435669 -0.15236584842205048
vn -0.34696915745735168 0.92541724443435669 -0.15236584842205048
vn -0.34696915745735168 0.92541724443435669 -0.15236584842205048
vn -0.34696915745735168 0.92541724443435669 -0.15236584842205048
vn -0.34696915745735168 0.92541724443435669 -0.15236584842205048
vn -0.34696915745735168 0.92541724443435669 -0.15236584842205048
vn 0.77028095722198486 0.37386238574981689 0.51661801338195801
vn 0.77028095722198486 0.37386238574981689 0.51661801338195801
vn 0.77028095722198486 0.37386238574981689 0.51661801338195801
vn 0.77028095722198486 0.37386238574981689 0.51661801338195801
vn 0.77028095722198486 0.37386238574981689 0.51661801338195801
vn 0.77028095722198486 0.37386238574981689 0.51661801338195801
vn 0.77028095722198486 0.37386238574981689 0.51661801338195801
vn 0.77028095722198486 0.37386238574981689 0.51661801338195801
f 1/1/1 2/2/2 6/6/6 4/4/4 3/3/3 5/5/5
f 8/8/8 7/7/7 11/11/11 9/9/9 10/10/10 12/12/12
f 22/22/22 13/13/13 17/17/17 15/15/15 19/19/19 20/20/20 16/16/16 18/18/18 14/14/14 21/21/21
f 28/28/28 23/23/23 25/25/25 29/29/29 30/30/30 26/26/26 24/24/24 27/27/27
f 38/38/38 31/31/31 35/35/35 33/33/33 39/39/39 40/40/40 34/34/34 36/36/36 32/32/32 37/37/37
f 48/48/48 41/41/41 43/43/43 45/45/45 46/46/46 44/44/44 42/42/42 47/47/47
