# Rhino

mtllib 9.mtl
usemtl diffuse_White
v 2.4841272830963135 3.0811026096343994 6.2853288650512695
v 2.3308191299438477 3.0136313438415527 6.0833120346069336
v 2.9337577819824219 2.4454915523529053 6.1648321151733398
v 2.780449390411377 2.3780202865600586 5.9628152847290039
v 2.6340041160583496 2.869232177734375 6.2451629638671875
v 2.7838809490203857 2.6573619842529297 6.2049975395202637
v 2.6305725574493408 2.589890718460083 6.0029807090759277
v 2.4806957244873047 2.8017609119415283 6.0431466102600098
v 4.2016258239746094 5.1805410385131836 3.8704988956451416
v 4.0499935150146484 5.1151180267333984 3.6661264896392822
v 4.6823816299438477 4.5829768180847168 3.7062397003173828
v 4.5307488441467285 4.5175538063049316 3.5018670558929443
v 4.3618779182434082 4.9813528060913086 3.8157458305358887
v 4.5221295356750488 4.7821650505065918 3.7609927654266357
v 4.3704972267150879 4.7167420387268066 3.5566201210021973
v 4.2102451324462891 4.9159297943115234 3.6113734245300293
v 2.4841272830963135 3.0811026096343994 6.2853288650512695
v 3.342876672744751 4.130821704864502 5.077913761138916
v 4.2016258239746094 5.1805410385131836 3.8704988956451416
v 3.5754730701446533 3.8225281238555908 5.0067248344421387
v 2.9337577819824219 2.4454915523529053 6.1648321151733398
v 4.6823816299438477 4.5829768180847168 3.7062397003173828
v 2.6340041160583496 2.869232177734375 6.2451629638671875
v 2.7838809490203857 2.6573619842529297 6.2049975395202637
v 3.1422078609466553 3.292912483215332 5.6159024238586426
v 3.4591748714447021 3.9766750335693359 5.0423192977905273
v 2.9135019779205322 3.6059622764587402 5.6816210746765137
v 3.0278549194335938 3.4494373798370361 5.6487617492675781
v 3.6917715072631836 3.6683812141418457 4.97113037109375
v 3.2565608024597168 3.136387825012207 5.583043098449707
v 4.5221295356750488 4.7821650505065918 3.7609927654266357
v 4.3618779182434082 4.9813528060913086 3.8157458305358887
v 4.0087385177612305 4.3521437644958496 4.3975472450256348
v 4.1269822120666504 4.2003746032714844 4.3592171669006348
v 3.7722513675689697 4.6556816101074219 4.4742064476013184
v 3.8904948234558105 4.5039124488830566 4.4358768463134766
v 3.1835610866546631 2.7508466243743896 5.8136043548583984
v 3.4333646297454834 3.056201696395874 5.4623770713806152
v 3.6831679344177246 3.3615567684173584 5.1111493110656738
v 3.9329714775085449 3.6669118404388428 4.7599220275878906
v 4.1827750205993652 3.9722669124603271 4.4086947441101074
v 4.4325780868530273 4.2776217460632324 4.057466983795166
v 2.9337577819824219 2.4454915523529053 6.1648321151733398
v 4.6823816299438477 4.5829768180847168 3.7062397003173828
v 2.780449390411377 2.3780202865600586 5.9628152847290039
v 4.5307488441467285 4.5175538063049316 3.5018670558929443
v 4.4325780868530273 4.2776217460632324 4.057466983795166
v 4.1827750205993652 3.9722669124603271 4.4086947441101074
v 3.9329714775085449 3.6669118404388428 4.7599220275878906
v 3.6831679344177246 3.3615567684173584 5.1111493110656738
v 3.4333646297454834 3.056201696395874 5.4623770713806152
v 3.1835610866546631 2.7508466243743896 5.8136043548583984
v 3.0304923057556152 2.6836678981781006 5.6112513542175293
v 3.2805349826812744 2.9893155097961426 5.2596874237060547
v 3.5305778980255127 3.2949633598327637 4.9081234931945801
v 3.7806205749511719 3.6006109714508057 4.5565590858459473
v 4.0306634902954102 3.9062585830688477 4.2049951553344727
v 4.2807064056396484 4.2119064331054688 3.853431224822998
v 3.206995964050293 2.8394577503204346 5.5718693733215332
v 3.9067807197570801 3.6948616504669189 4.5879616737365723
v 4.2566728591918945 4.122563362121582 4.0960073471069336
v 2.780449390411377 2.3780202865600586 5.9628152847290039
v 4.5307488441467285 4.5175538063049316 3.5018670558929443
v 2.3308191299438477 3.0136313438415527 6.0833120346069336
v 4.0499935150146484 5.1151180267333984 3.6661264896392822
v 2.6305725574493408 2.589890718460083 6.0029807090759277
v 2.4806957244873047 2.8017609119415283 6.0431466102600098
v 3.1904060840606689 4.0643744468688965 4.8747191429138184
v 3.4230027198791504 3.7560808658599854 4.803530216217041
v 2.9893183708190918 3.2259533405303955 5.413297176361084
v 3.5393009185791016 3.6019339561462402 4.7679357528686523
v 3.1036713123321533 3.0694284439086914 5.3804378509521484
v 2.7606127262115479 3.5390028953552246 5.4790158271789551
v 3.3067045211791992 3.9102277755737305 4.8391246795654297
v 2.8749654293060303 3.3824782371520996 5.4461565017700195
v 4.2102451324462891 4.9159297943115234 3.6113734245300293
v 4.3704972267150879 4.7167420387268066 3.5566201210021973
v 3.8566868305206299 4.2862086296081543 4.1937637329101563
v 3.7384433746337891 4.4379773139953613 4.232093334197998
v 3.9749305248260498 4.1344394683837891 4.1554336547851563
v 4.2807064056396484 4.2119064331054688 3.853431224822998
v 4.0306634902954102 3.9062585830688477 4.2049951553344727
v 3.7806205749511719 3.6006109714508057 4.5565590858459473
v 3.5305778980255127 3.2949633598327637 4.9081234931945801
v 3.2805349826812744 2.9893155097961426 5.2596874237060547
v 3.0304923057556152 2.6836678981781006 5.6112513542175293
v 3.6201996803283691 4.5897464752197266 4.2704229354858398
v 2.3308191299438477 3.0136313438415527 6.0833120346069336
v 4.0499935150146484 5.1151180267333984 3.6661264896392822
v 2.4841272830963135 3.0811026096343994 6.2853288650512695
v 4.2016258239746094 5.1805410385131836 3.8704988956451416
v 2.9135019779205322 3.6059622764587402 5.6816210746765137
v 3.342876672744751 4.130821704864502 5.077913761138916
v 3.7722513675689697 4.6556816101074219 4.4742064476013184
v 3.6201996803283691 4.5897464752197266 4.2704229354858398
v 3.1904060840606689 4.0643744468688965 4.8747191429138184
v 2.7606127262115479 3.5390028953552246 5.4790158271789551
vt 0.12433701008558273 0.10952002555131912
vt 0.12433701008558273 0.17161001265048981
vt 0.31074064970016479 0.10952002555131912
vt 0.31074064970016479 0.17161001265048981
vt 0.18647156655788422 0.10952002555131912
vt 0.2486061155796051 0.10952002555131912
vt 0.2486061155796051 0.17161001265048981
vt 0.18647156655788422 0.17161001265048981
vt 0.12433701008558273 0
vt 0.12433701008558273 0.062168505042791367
vt 0.30991318821907043 0
vt 0.30991318821907043 0.062168505042791367
vt 0.1861957460641861 0
vt 0.24805447459220886 0
vt 0.24805447459220886 0.062168505042791367
vt 0.1861957460641861 0.062168505042791367
vt 0.99853515625 0.21890173852443695
vt 0.56143605709075928 0.21890173852443695
vt 0.12433701008558273 0.21890173852443695
vt 0.56143605709075928 0.31210356950759888
vt 0.99853515625 0.40530538558959961
vt 0.12433701008558273 0.40530538558959961
vt 0.99853515625 0.28103628754615784
vt 0.99853515625 0.34317085146903992
vt 0.77998560667037964 0.31210356950759888
vt 0.56143605709075928 0.26550266146659851
vt 0.77998560667037964 0.21890173852443695
vt 0.77998560667037964 0.26550266146659851
vt 0.56143605709075928 0.35870447754859924
vt 0.77998560667037964 0.35870447754859924
vt 0.12433701008558273 0.34317085146903992
vt 0.12433701008558273 0.28103628754615784
vt 0.3428865373134613 0.31210356950759888
vt 0.3428865373134613 0.35870447754859924
vt 0.3428865373134613 0.21890173852443695
vt 0.3428865373134613 0.26550266146659851
vt 0.8736497163772583 0.40530538558959961
vt 0.74876421689987183 0.40530538558959961
vt 0.62387877702713013 0.40530538558959961
vt 0.49899333715438843 0.40530538558959961
vt 0.37410789728164673 0.40530538558959961
vt 0.24922245740890503 0.40530538558959961
vt 0.062168505042791367 0
vt 0.062168505042791367 0.87419813871383667
vt 0.12287216633558273 0
vt 0.12287216633558273 0.87419813871383667
vt 0.062168505042791367 0.74931269884109497
vt 0.062168505042791367 0.62442725896835327
vt 0.062168505042791367 0.49954181909561157
vt 0.062168505042791367 0.37465634942054749
vt 0.062168505042791367 0.24977090954780579
vt 0.062168505042791367 0.12488545477390289
vt 0.12287216633558273 0.12488545477390289
vt 0.12287216633558273 0.24977090954780579
vt 0.12287216633558273 0.37465634942054749
vt 0.12287216633558273 0.49954181909561157
vt 0.12287216633558273 0.62442725896835327
vt 0.12287216633558273 0.74931269884109497
vt 0.092520333826541901 0.17483963072299957
vt 0.092520333826541901 0.52451890707015991
vt 0.092520333826541901 0.69935852289199829
vt 0.99853515625 0.54728233814239502
vt 0.12433701008558273 0.54728233814239502
vt 0.99853515625 0.73368602991104126
vt 0.12433701008558273 0.73368602991104126
vt 0.99853515625 0.6094169020652771
vt 0.99853515625 0.67155146598815918
vt 0.56143605709075928 0.73368602991104126
vt 0.56143605709075928 0.64048421382904053
vt 0.77998560667037964 0.64048421382904053
vt 0.56143605709075928 0.59388327598571777
vt 0.77998560667037964 0.59388327598571777
vt 0.77998560667037964 0.73368602991104126
vt 0.56143605709075928 0.68708509206771851
vt 0.77998560667037964 0.68708509206771851
vt 0.12433701008558273 0.67155146598815918
vt 0.12433701008558273 0.6094169020652771
vt 0.3428865373134613 0.64048421382904053
vt 0.3428865373134613 0.68708509206771851
vt 0.3428865373134613 0.59388327598571777
vt 0.24922245740890503 0.54728233814239502
vt 0.37410789728164673 0.54728233814239502
vt 0.49899333715438843 0.54728233814239502
vt 0.62387877702713013 0.54728233814239502
vt 0.74876421689987183 0.54728233814239502
vt 0.8736497163772583 0.54728233814239502
vt 0.3428865373134613 0.73368602991104126
vt 0 0
vt 0 0.86009120941162109
vt 0.060703661292791367 0
vt 0.060703661292791367 0.86009120941162109
vt 0.060703661292791367 0.21502280235290527
vt 0.060703661292791367 0.43004560470581055
vt 0.060703661292791367 0.64506840705871582
vt 0 0.64506840705871582
vt 0 0.43004560470581055
vt 0 0.21502280235290527
vn -0.58176195621490479 -0.52871018648147583 0.61807650327682495
vn -0.58176195621490479 -0.52871018648147583 0.61807650327682495
vn -0.58176195621490479 -0.52871018648147583 0.61807650327682495
vn -0.58176195621490479 -0.52871018648147583 0.61807650327682495
vn -0.58176195621490479 -0.52871018648147583 0.61807650327682495
vn -0.58176195621490479 -0.52871018648147583 0.61807650327682495
vn -0.58176195621490479 -0.52871018648147583 0.61807650327682495
vn -0.58176195621490479 -0.52871018648147583 0.61807650327682495
vn 0.54044002294540405 0.59760421514511108 -0.59227848052978516
vn 0.54044002294540405 0.59760421514511108 -0.59227848052978516
vn 0.54044002294540405 0.59760421514511108 -0.59227848052978516
vn 0.54044002294540405 0.59760421514511108 -0.59227848052978516
vn 0.54044002294540405 0.59760421514511108 -0.59227848052978516
vn 0.54044002294540405 0.59760421514511108 -0.59227848052978516
vn 0.54044002294540405 0.59760421514511108 -0.59227848052978516
vn 0.54044002294540405 0.59760421514511108 -0.59227848052978516
vn 0.62770438194274902 0.30854853987693787 0.71469223499298096
vn 0.62770438194274902 0.30854853987693787 0.71469223499298096
vn 0.62770438194274902 0.30854853987693787 0.71469223499298096
vn 0.62770438194274902 0.30854853987693787 0.71469223499298096
vn 0.62770438194274902 0.30854853987693787 0.71469223499298096
vn 0.62770438194274902 0.30854853987693787 0.71469223499298096
vn 0.62770438194274902 0.30854853987693787 0.71469223499298096
vn 0.62770438194274902 0.30854853987693787 0.71469223499298096
vn 0.62770438194274902 0.30854853987693787 0.71469223499298096
vn 0.62770438194274902 0.30854853987693787 0.71469223499298096
vn 0.62770438194274902 0.30854853987693787 0.71469223499298096
vn 0.62770438194274902 0.30854853987693787 0.71469223499298096
vn 0.62770438194274902 0.30854853987693787 0.71469223499298096
vn 0.62770438194274902 0.30854853987693787 0.71469223499298096
vn 0.62770438194274902 0.30854853987693787 0.71469223499298096
vn 0.62770438194274902 0.30854853987693787 0.71469223499298096
vn 0.62770438194274902 0.30854853987693787 0.71469223499298096
vn 0.62770438194274902 0.30854853987693787 0.71469223499298096
vn 0.62770438194274902 0.30854853987693787 0.71469223499298096
vn 0.62770438194274902 0.30854853987693787 0.71469223499298096
vn 0.62770438194274902 0.30854853987693787 0.71469223499298096
vn 0.62770438194274902 0.30854853987693787 0.71469223499298096
vn 0.62770438194274902 0.30854853987693787 0.71469223499298096
vn 0.62770438194274902 0.30854853987693787 0.71469223499298096
vn 0.62770438194274902 0.30854853987693787 0.71469223499298096
vn 0.62770438194274902 0.30854853987693787 0.71469223499298096
vn 0.61832714080810547 -0.75538277626037598 -0.2169526219367981
vn 0.61832714080810547 -0.75538277626037598 -0.2169526219367981
vn 0.61832714080810547 -0.75538277626037598 -0.2169526219367981
vn 0.61832714080810547 -0.75538277626037598 -0.2169526219367981
vn 0.61832714080810547 -0.75538277626037598 -0.2169526219367981
vn 0.61832714080810547 -0.75538277626037598 -0.2169526219367981
vn 0.61832714080810547 -0.75538277626037598 -0.2169526219367981
vn 0.61832714080810547 -0.75538277626037598 -0.2169526219367981
vn 0.61832714080810547 -0.75538277626037598 -0.2169526219367981
vn 0.61832714080810547 -0.75538277626037598 -0.2169526219367981
vn 0.61832714080810547 -0.75538277626037598 -0.2169526219367981
vn 0.61832714080810547 -0.75538277626037598 -0.2169526219367981
vn 0.61832714080810547 -0.75538277626037598 -0.2169526219367981
vn 0.61832714080810547 -0.75538277626037598 -0.2169526219367981
vn 0.61832714080810547 -0.75538277626037598 -0.2169526219367981
vn 0.61832714080810547 -0.75538277626037598 -0.2169526219367981
vn 0.61832714080810547 -0.75538277626037598 -0.2169526219367981
vn 0.61832714080810547 -0.75538277626037598 -0.2169526219367981
vn 0.61832714080810547 -0.75538277626037598 -0.2169526219367981
vn -0.62770438194274902 -0.30854853987693787 -0.71469223499298096
vn -0.62770438194274902 -0.30854853987693787 -0.71469223499298096
vn -0.62770438194274902 -0.30854853987693787 -0.71469223499298096
vn -0.62770438194274902 -0.30854853987693787 -0.71469223499298096
vn -0.62770438194274902 -0.30854853987693787 -0.71469223499298096
vn -0.62770438194274902 -0.30854853987693787 -0.71469223499298096
vn -0.62770438194274902 -0.30854853987693787 -0.71469223499298096
vn -0.62770438194274902 -0.30854853987693787 -0.71469223499298096
vn -0.62770438194274902 -0.30854853987693787 -0.71469223499298096
vn -0.62770438194274902 -0.30854853987693787 -0.71469223499298096
vn -0.62770438194274902 -0.30854853987693787 -0.71469223499298096
vn -0.62770438194274902 -0.30854853987693787 -0.71469223499298096
vn -0.62770438194274902 -0.30854853987693787 -0.71469223499298096
vn -0.62770438194274902 -0.30854853987693787 -0.71469223499298096
vn -0.62770438194274902 -0.30854853987693787 -0.71469223499298096
vn -0.62770438194274902 -0.30854853987693787 -0.71469223499298096
vn -0.62770438194274902 -0.30854853987693787 -0.71469223499298096
vn -0.62770438194274902 -0.30854853987693787 -0.71469223499298096
vn -0.62770438194274902 -0.30854853987693787 -0.71469223499298096
vn -0.62770438194274902 -0.30854853987693787 -0.71469223499298096
vn -0.62770438194274902 -0.30854853987693787 -0.71469223499298096
vn -0.62770438194274902 -0.30854853987693787 -0.71469223499298096
vn -0.62770438194274902 -0.30854853987693787 -0.71469223499298096
vn -0.62770438194274902 -0.30854853987693787 -0.71469223499298096
vn -0.62770438194274902 -0.30854853987693787 -0.71469223499298096
vn -0.62770438194274902 -0.30854853987693787 -0.71469223499298096
vn -0.61832714080810547 0.75538277626037598 0.2169526219367981
vn -0.61832714080810547 0.75538277626037598 0.2169526219367981
vn -0.61832714080810547 0.75538277626037598 0.2169526219367981
vn -0.61832714080810547 0.75538277626037598 0.2169526219367981
vn -0.61832714080810547 0.75538277626037598 0.2169526219367981
vn -0.61832714080810547 0.75538277626037598 0.2169526219367981
vn -0.61832714080810547 0.75538277626037598 0.2169526219367981
vn -0.61832714080810547 0.75538277626037598 0.2169526219367981
vn -0.61832714080810547 0.75538277626037598 0.2169526219367981
vn -0.61832714080810547 0.75538277626037598 0.2169526219367981
f 1/1/1 2/2/2 8/8/8 7/7/7 4/4/4 3/3/3 6/6/6 5/5/5
f 9/9/9 13/13/13 14/14/14 11/11/11 12/12/12 15/15/15 16/16/16 10/10/10
f 18/18/18 27/27/27 17/17/17 23/23/23 24/24/24 21/21/21 37/37/37 38/38/38 39/39/39 40/40/40 41/41/41 42/42/42 22/22/22 31/31/31 32/32/32 19/19/19 35/35/35
f 52/52/52 43/43/43 45/45/45 53/53/53 54/54/54 55/55/55 56/56/56 57/57/57 58/58/58 46/46/46 44/44/44 47/47/47 48/48/48 49/49/49 50/50/50 51/51/51
f 68/68/68 87/87/87 65/65/65 76/76/76 77/77/77 63/63/63 81/81/81 82/82/82 83/83/83 84/84/84 85/85/85 86/86/86 62/62/62 66/66/66 67/67/67 64/64/64 73/73/73
f 97/97/97 88/88/88 90/90/90 92/92/92 93/93/93 94/94/94 91/91/91 89/89/89 95/95/95 96/96/96
